{
.appVersion = "1230";
DisplayStrings = (
"/uni0136"
);
copyright = "Copyright 2019 The Tomorrow Project Authors (https://github.com/MonicaRizzolli/Tomorrow)";
customParameters = (
{
name = panose;
value = (
0,
0,
3,
0,
0,
0,
0,
0,
0,
0
);
},
{
name = unicodeRanges;
value = (
0,
1,
2,
29
);
},
{
name = codePageRanges;
value = (
1252,
1250,
1257
);
},
{
name = blueScale;
value = 0.037;
},
{
name = glyphOrder;
value = (
.notdef,
CR,
space,
A,
Aacute,
Abreve,
uni1EAE,
uni1EB6,
uni1EB0,
uni1EB2,
uni1EB4,
Acircumflex,
uni1EA4,
uni1EAC,
uni1EA6,
uni1EA8,
uni1EAA,
uni0200,
Adieresis,
uni1EA0,
Agrave,
uni1EA2,
uni0202,
Amacron,
Aogonek,
Aring,
Aringacute,
Atilde,
AE,
AEacute,
B,
C,
Cacute,
Ccaron,
Ccedilla,
Ccircumflex,
Cdotaccent,
D,
uni01C4,
Eth,
Dcaron,
Dcroat,
uni01C5,
E,
Eacute,
Ebreve,
Ecaron,
Ecircumflex,
uni1EBE,
uni1EC6,
uni1EC0,
uni1EC2,
uni1EC4,
uni0204,
Edieresis,
Edotaccent,
uni1EB8,
Egrave,
uni1EBA,
uni0206,
Emacron,
Eogonek,
uni1EBC,
F,
G,
Gbreve,
Gcaron,
Gcircumflex,
uni0122,
Gdotaccent,
H,
Hbar,
Hcircumflex,
I,
Iacute,
Ibreve,
Icircumflex,
uni0208,
Idieresis,
Idotaccent,
uni1ECA,
Igrave,
uni1EC8,
uni020A,
Imacron,
Iogonek,
Itilde,
J,
Jcircumflex,
K,
uni0136,
L,
uni01C7,
Lacute,
Lcaron,
uni013B,
Ldot,
uni01C8,
Lslash,
M,
N,
uni01CA,
Nacute,
Ncaron,
uni0145,
Eng,
uni01CB,
Ntilde,
O,
Oacute,
Obreve,
Ocircumflex,
uni1ED0,
uni1ED8,
uni1ED2,
uni1ED4,
uni1ED6,
uni020C,
Odieresis,
uni022A,
uni0230,
uni1ECC,
Ograve,
uni1ECE,
Ohorn,
uni1EDA,
uni1EE2,
uni1EDC,
uni1EDE,
uni1EE0,
Ohungarumlaut,
uni020E,
Omacron,
uni01EA,
Oslash,
Oslashacute,
Otilde,
uni022C,
OE,
P,
Thorn,
Q,
R,
Racute,
Rcaron,
uni0156,
uni0210,
uni0212,
S,
Sacute,
Scaron,
Scedilla,
Scircumflex,
uni0218,
uni1E9E,
uni018F,
T,
Tbar,
Tcaron,
uni0162,
uni021A,
U,
Uacute,
Ubreve,
Ucircumflex,
uni0214,
Udieresis,
uni1EE4,
Ugrave,
uni1EE6,
Uhorn,
uni1EE8,
uni1EF0,
uni1EEA,
uni1EEC,
uni1EEE,
Uhungarumlaut,
uni0216,
Umacron,
Uogonek,
Uring,
Utilde,
V,
W,
Wacute,
Wcircumflex,
Wdieresis,
Wgrave,
X,
Y,
Yacute,

glyphs = (
{
glyphname = .notdef;
lastChange = "2019-09-04 12:29:29 +0000";
layers = (
{
hints = (
{
horizontal = 1;
place = "{215.55, 29.95}";
type = Stem;
},
{
horizontal = 1;
place = "{381.21, 141.29}";
type = Stem;
},
{
place = "{114.31, 30.96}";
type = Stem;
},
{
place = "{578.83, 32.59}";
type = Stem;
}
);
layerId = "4A657952-F232-4636-873B-F2B6F2CFB0B2";
paths = (
{
closed = 1;
nodes = (
"141.98 98.86 LINE",
"148.56 136.19 LINE",
"236.78 215.55 LINE",
"522.01 215.55 LINE",
"582.14 136.32 LINE",
"575.53 98.86 LINE",
"607.31 98.86 LINE",
"615.53 145.48 LINE",
"538.93 245.5 LINE",
"230.29 245.5 LINE",
"118.42 145.48 LINE",
"110.2 98.86 LINE"
);
},
{
closed = 1;
nodes = (
"325.24 381.21 LINE",
"350.15 522.5 LINE",
"319.59 522.5 LINE",
"294.68 381.21 LINE"
);
},
{
closed = 1;
nodes = (
"522.29 381.21 LINE",
"547.21 522.5 LINE",
"516.65 522.5 LINE",
"491.74 381.21 LINE"
);
}
);
width = 681;
}
);
note = .notdef;
},
{
glyphname = A;
lastChange = "2019-09-04 12:29:29 +0000";
layers = (
{
hints = (
{
horizontal = 1;
place = "{212.58, 31.78}";
type = Stem;
},
{
horizontal = 1;
place = "{704.25, 32.75}";
type = Stem;
},
{
place = "{18.89, 595.61}";
type = Stem;
}
);
layerId = "4A657952-F232-4636-873B-F2B6F2CFB0B2";
paths = (
{
closed = 1;
nodes = (
"55.38 0 LINE",
"169.31 212.58 LINE",
"542.8 212.58 LINE",
"581.92 0 LINE",
"614.5 0 LINE",
"477.64 737 LINE",
"414.86 737 LINE",
"18.89 0 LINE"
);
},
{
closed = 1;
nodes = (
"432.81 704.25 LINE",
"452.33 704.25 LINE",
"536.95 244.36 LINE",
"186.34 244.36 LINE"
);
}
);
width = 633;
}
);
leftKerningGroup = A;
note = A;
rightKerningGroup = A;
unicode = 0041;
},
{
glyphname = Aacute;
lastChange = "2019-09-04 12:29:29 +0000";
layers = (
{
hints = (
{
horizontal = 1;
place = "{212.58, 31.78}";
type = Stem;
},
{
horizontal = 1;
place = "{704.25, 32.75}";
type = Stem;
},
{
horizontal = 1;
place = "{794.25, 140.22}";
type = Stem;
},
{
place = "{18.89, 595.61}";
type = Stem;
}
);
layerId = "4A657952-F232-4636-873B-F2B6F2CFB0B2";
paths = (
{
closed = 1;
nodes = (
"55.38 0 LINE",
"169.31 212.58 LINE",
"542.8 212.58 LINE",
"581.92 0 LINE",
"614.5 0 LINE",
"477.64 737 LINE",
"414.86 737 LINE",
"18.89 0 LINE"
);
},
{
closed = 1;
nodes = (
"432.81 704.25 LINE",
"452.33 704.25 LINE",
"536.95 244.36 LINE",
"186.34 244.36 LINE"
);
},
{
closed = 1;
nodes = (
"474 794.25 LINE",
"601.63 934.47 LINE",
"552.09 934.47 LINE",
"440.72 794.25 LINE"
);
}
);
width = 633;
}
);
leftKerningGroup = A;
note = Aacute;
rightKerningGroup = A;
unicode = 00C1;
},
{
glyphname = Abreve;
lastChange = "2019-09-04 12:29:29 +0000";
layers = (
{
hints = (
{
horizontal = 1;
place = "{212.58, 31.78}";
type = Stem;
},
{
horizontal = 1;
place = "{704.25, 32.75}";
type = Stem;
},
{
horizontal = 1;
place = "{794.25, 27.22}";
type = Stem;
},
{
place = "{18.89, 595.61}";
type = Stem;
}
);
layerId = "4A657952-F232-4636-873B-F2B6F2CFB0B2";
paths = (
{
closed = 1;
nodes = (
"55.38 0 LINE",
"169.31 212.58 LINE",
"542.8 212.58 LINE",
"581.92 0 LINE",
"614.5 0 LINE",
"477.64 737 LINE",
"414.86 737 LINE",
"18.89 0 LINE"
);
},
{
closed = 1;
nodes = (
"432.81 704.25 LINE",
"452.33 704.25 LINE",
"536.95 244.36 LINE",
"186.34 244.36 LINE"
);
},
{
closed = 1;
nodes = (
"519.99 794.25 LINE",
"576.76 842.51 LINE",
"589.46 913.69 LINE",
"561.86 913.69 LINE",
"551.44 855.03 LINE",
"512.04 821.47 LINE",
"401.26 821.47 LINE",
"373.58 855.03 LINE",
"384 913.69 LINE",
"356.4 913.69 LINE",
"344.86 848.42 LINE",
"390.01 794.24 LINE"
);
}
);
width = 633;
}
);
leftKerningGroup = A;
note = Abreve;
rightKerningGroup = A;
unicode = 0102;
},
{
glyphname = uni1EAE;
lastChange = "2019-09-04 12:29:29 +0000";
layers = (
{
hints = (
{
horizontal = 1;
place = "{212.58, 31.78}";
type = Stem;
},
{
horizontal = 1;
place = "{704.25, 32.75}";
type = Stem;
},
{
horizontal = 1;
place = "{794.25, 27.22}";
type = Stem;
},
{
horizontal = 1;
place = "{935.73, 140.23}";
type = Stem;
},
{
place = "{18.89, 599.41}";
type = Stem;
}
);
layerId = "4A657952-F232-4636-873B-F2B6F2CFB0B2";
paths = (
{
closed = 1;
nodes = (
"55.38 0 LINE",
"169.31 212.58 LINE",
"542.8 212.58 LINE",
"581.92 0 LINE",
"614.5 0 LINE",
"477.64 737 LINE",
"414.86 737 LINE",
"18.89 0 LINE"
);
},
{
closed = 1;
nodes = (
"432.81 704.25 LINE",
"452.33 704.25 LINE",
"536.95 244.36 LINE",
"186.34 244.36 LINE"
);
},
{
closed = 1;
nodes = (
"519.99 794.25 LINE",
"576.77 842.51 LINE",
"589.46 913.69 LINE",
"561.86 913.69 LINE",
"551.44 855.03 LINE",
"512.04 821.47 LINE",
"401.26 821.47 LINE",
"373.58 855.03 LINE",
"384 913.69 LINE",
"356.4 913.69 LINE",
"344.86 848.42 LINE",
"390.01 794.24 LINE"
);
},
{
closed = 1;
nodes = (
"490.67 935.73 LINE",
"618.3 1075.96 LINE",
"568.77 1075.96 LINE",
"457.39 935.73 LINE"
);
}
);
width = 633;
}
);
leftKerningGroup = A;
note = uni1EAE;
rightKerningGroup = A;
unicode = 1EAE;
},
{
glyphname = uni1EB6;
lastChange = "2019-09-04 12:29:29 +0000";
layers = (
{
hints = (
{
horizontal = 1;
place = "{-163.07, 105.82}";
type = Stem;
},
{
horizontal = 1;
place = "{212.58, 31.78}";
type = Stem;
},
{
horizontal = 1;
place = "{704.25, 32.75}";
type = Stem;
},
{
horizontal = 1;
place = "{794.25, 27.22}";
type = Stem;
},
{
place = "{18.89, 595.61}";
type = Stem;
}
);
layerId = "4A657952-F232-4636-873B-F2B6F2CFB0B2";
paths = (
{
closed = 1;
nodes = (
"55.38 0 LINE",
"169.31 212.58 LINE",
"542.8 212.58 LINE",
"581.92 0 LINE",
"614.5 0 LINE",
"477.64 737 LINE",
"414.86 737 LINE",
"18.89 0 LINE"
);
},
{
closed = 1;
nodes = (
"309.37 -163.07 LINE",
"328.05 -57.25 LINE",
"295.05 -57.25 LINE",
"276.37 -163.07 LINE"
);
},
{
closed = 1;
nodes = (
"432.81 704.25 LINE",
"452.33 704.25 LINE",
"536.95 244.36 LINE",
"186.34 244.36 LINE"
);
},
{
closed = 1;
nodes = (
"519.99 794.25 LINE",
"576.76 842.51 LINE",
"589.46 913.69 LINE",
"561.86 913.69 LINE",
"551.44 855.03 LINE",
"512.04 821.47 LINE",
"401.26 821.47 LINE",
"373.58 855.03 LINE",
"384 913.69 LINE",
"356.4 913.69 LINE",
"344.86 848.42 LINE",
"390.01 794.24 LINE"
);
}
);
width = 633;
}
);
leftKerningGroup = A;
note = uni1EB6;
rightKerningGroup = A;
unicode = 1EB6;
},
{
glyphname = uni1EB0;
lastChange = "2019-09-04 12:29:29 +0000";
layers = (
{
hints = (
{
horizontal = 1;
place = "{212.58, 31.78}";
type = Stem;
},
{
horizontal = 1;
place = "{704.25, 32.75}";
type = Stem;
},
{
horizontal = 1;
place = "{794.25, 27.22}";
type = Stem;
},
{
horizontal = 1;
place = "{935.68, 140.22}";
type = Stem;
},
{
place = "{18.89, 595.61}";
type = Stem;
}
);
layerId = "4A657952-F232-4636-873B-F2B6F2CFB0B2";
paths = (
{
closed = 1;
nodes = (
"55.38 0 LINE",
"169.31 212.58 LINE",
"542.8 212.58 LINE",
"581.92 0 LINE",
"614.5 0 LINE",
"477.64 737 LINE",
"414.86 737 LINE",
"18.89 0 LINE"
);
},
{
closed = 1;
nodes = (
"432.81 704.25 LINE",
"452.33 704.25 LINE",
"536.95 244.36 LINE",
"186.34 244.36 LINE"
);
},
{
closed = 1;
nodes = (
"519.99 794.25 LINE",
"576.76 842.51 LINE",
"589.46 913.69 LINE",
"561.86 913.69 LINE",
"551.44 855.03 LINE",
"512.04 821.47 LINE",
"401.26 821.47 LINE",
"373.58 855.03 LINE",
"384 913.69 LINE",
"356.4 913.69 LINE",
"344.86 848.42 LINE",
"390.01 794.24 LINE"
);
},
{
closed = 1;
nodes = (
"479.64 935.68 LINE",
"417.79 1075.9 LINE",
"373.86 1075.9 LINE",
"450.78 935.68 LINE"
);
}
);
width = 633;
}
);
leftKerningGroup = A;
note = uni1EB0;
rightKerningGroup = A;
unicode = 1EB0;
},
{
glyphname = uni1EB2;
lastChange = "2019-09-04 12:29:29 +0000";
layers = (
{
hints = (
{
horizontal = 1;
place = "{212.58, 31.78}";
type = Stem;
},
{
horizontal = 1;
place = "{704.25, 32.75}";
type = Stem;
},
{
horizontal = 1;
place = "{794.25, 27.22}";
type = Stem;
},
{
horizontal = 1;
place = "{1100.04, 27.11}";
type = Stem;
},
{
place = "{463.69, 26.74}";
type = Stem;
}
);
layerId = "4A657952-F232-4636-873B-F2B6F2CFB0B2";
paths = (
{
closed = 1;
nodes = (
"55.38 0 LINE",
"169.31 212.58 LINE",
"542.8 212.58 LINE",
"581.92 0 LINE",
"614.5 0 LINE",
"477.64 737 LINE",
"414.86 737 LINE",
"18.89 0 LINE"
);
},
{
closed = 1;
nodes = (
"432.81 704.25 LINE",
"452.33 704.25 LINE",
"536.95 244.36 LINE",
"186.34 244.36 LINE"
);
},
{
closed = 1;
nodes = (
"519.99 794.25 LINE",
"576.76 842.51 LINE",
"589.46 913.69 LINE",
"561.86 913.69 LINE",
"551.44 855.03 LINE",
"512.04 821.47 LINE",
"401.26 821.47 LINE",
"373.58 855.03 LINE",
"384 913.69 LINE",
"356.4 913.69 LINE",
"344.86 848.42 LINE",
"390.01 794.24 LINE"
);
},
{
closed = 1;
nodes = (
"488.05 935.73 LINE",
"492.81 962 LINE",
"572.21 1026.76 LINE",
"583.07 1088.34 LINE",
"552.69 1127.15 LINE",
"474.04 1127.15 LINE",
"429.59 1087.3 LINE",
"447.8 1066.41 LINE",
"485.53 1100.04 LINE",
"538.04 1100.04 LINE",
"553 1080.8 LINE",
"545.91 1040.86 LINE",
"467.26 976.08 LINE",
"460.12 935.73 LINE"
);
}
);
width = 633;
}
);
leftKerningGroup = A;
note = uni1EB2;
rightKerningGroup = A;
unicode = 1EB2;
},
{
glyphname = uni1EB4;
lastChange = "2019-09-04 12:29:29 +0000";
layers = (
{
hints = (
{
horizontal = 1;
place = "{212.58, 31.78}";
type = Stem;
},
{
horizontal = 1;
place = "{704.25, 32.75}";
type = Stem;
},
{
horizontal = 1;
place = "{794.25, 27.22}";
type = Stem;
},
{
horizontal = 1;
place = "{935.72, 26.99}";
type = Stem;
},
{
horizontal = 1;
place = "{1011.5, 26.98}";
type = Stem;
},
{
place = "{18.89, 617.12}";
type = Stem;
}
);
layerId = "4A657952-F232-4636-873B-F2B6F2CFB0B2";
paths = (
{
closed = 1;
nodes = (
"55.38 -0.01 LINE",
"169.31 212.57 LINE",
"542.8 212.57 LINE",
"581.92 -0.01 LINE",
"614.5 -0.01 LINE",
"477.64 736.99 LINE",
"414.86 736.99 LINE",
"18.89 -0.01 LINE"
);
},
{
closed = 1;
nodes = (
"432.81 704.24 LINE",
"452.33 704.24 LINE",
"536.95 244.35 LINE",
"186.34 244.35 LINE"
);
},
{
closed = 1;
nodes = (
"519.99 794.24 LINE",
"576.76 842.5 LINE",
"589.46 913.68 LINE",
"561.86 913.68 LINE",
"551.44 855.02 LINE",
"512.04 821.46 LINE",
"401.26 821.46 LINE",
"373.58 855.02 LINE",
"384 913.68 LINE",
"356.4 913.69 LINE",
"344.86 848.42 LINE",
"390.01 794.24 LINE"
);
},
{
closed = 1;
nodes = (
"569.86 935.72 LINE",
"625.76 984.63 LINE",
"636.01 1038.11 LINE",
"614.23 1038.11 LINE",
"604.49 998.96 LINE",
"558.98 962.71 LINE",
"521.66 962.71 LINE",
"459.14 1038.48 LINE",
"385.66 1038.48 LINE",
"329.63 989.08 LINE",
"319.3 936.08 LINE",
"341.22 936.08 LINE",
"351.06 975.12 LINE",
"396.56 1011.5 LINE",
"445.12 1011.5 LINE",
"507.54 935.72 LINE"
);
}
);
width = 633;
}
);
leftKerningGroup = A;
note = uni1EB4;
rightKerningGroup = A;
unicode = 1EB4;
},
{
glyphname = Acircumflex;
lastChange = "2019-09-04 12:29:29 +0000";
layers = (
{
hints = (
{
horizontal = 1;
place = "{212.58, 31.78}";
type = Stem;
},
{
horizontal = 1;
place = "{704.25, 32.75}";
type = Stem;
},
{
horizontal = 1;
place = "{906.37, 25.99}";
type = Stem;
},
{
place = "{18.89, 595.61}";
type = Stem;
}
);
layerId = "4A657952-F232-4636-873B-F2B6F2CFB0B2";
paths = (
{
closed = 1;
nodes = (
"55.38 0 LINE",
"169.31 212.58 LINE",
"542.8 212.58 LINE",
"581.92 0 LINE",
"614.5 0 LINE",
"477.64 737 LINE",
"414.86 737 LINE",
"18.89 0 LINE"
);
},
{
closed = 1;
nodes = (
"432.81 704.25 LINE",
"452.33 704.25 LINE",
"536.95 244.36 LINE",
"186.34 244.36 LINE"
);
},
{
closed = 1;
nodes = (
"353.11 794.25 LINE",
"466.46 906.37 LINE",
"482.01 906.37 LINE",
"555.8 794.25 LINE",
"585.3 794.25 LINE",
"503.17 932.36 LINE",
"446.99 932.36 LINE",
"320.12 794.25 LINE"
);
}
);
width = 633;
}
);
leftKerningGroup = A;
note = Acircumflex;
rightKerningGroup = A;
unicode = 00C2;
},
{
glyphname = uni1EA4;
lastChange = "2019-09-04 12:29:29 +0000";
layers = (
{
hints = (
{
horizontal = 1;
place = "{212.58, 31.78}";
type = Stem;
},
{
horizontal = 1;
place = "{704.25, 32.75}";
type = Stem;
},
{
horizontal = 1;
place = "{861.61, 140.22}";
type = Stem;
},
{
place = "{18.89, 730.64}";
type = Stem;
},
{
horizontal = 1;
place = "{906.37, 25.99}";
type = Stem;
}
);
layerId = "4A657952-F232-4636-873B-F2B6F2CFB0B2";
paths = (
{
closed = 1;
nodes = (
"55.38 0 LINE",
"169.31 212.58 LINE",
"542.8 212.58 LINE",
"581.92 0 LINE",
"614.5 0 LINE",
"477.64 737 LINE",
"414.86 737 LINE",
"18.89 0 LINE"
);
},
{
closed = 1;
nodes = (
"432.81 704.25 LINE",
"452.33 704.25 LINE",
"536.95 244.36 LINE",
"186.34 244.36 LINE"
);
},
{
closed = 1;
nodes = (
"353.11 794.25 LINE",
"466.46 906.37 LINE",
"482.01 906.37 LINE",
"555.8 794.25 LINE",
"585.3 794.25 LINE",
"503.17 932.36 LINE",
"446.99 932.36 LINE",
"320.12 794.25 LINE"
);
},
{
closed = 1;
nodes = (
"621.89 861.61 LINE",
"749.53 1001.83 LINE",
"699.99 1001.83 LINE",
"588.62 861.61 LINE"
);
}
);
width = 633;
}
);
leftKerningGroup = A;
note = uni1EA4;
rightKerningGroup = A;
unicode = 1EA4;
},
{
glyphname = uni1EAC;
lastChange = "2019-09-04 12:29:29 +0000";
layers = (
{
hints = (
{
horizontal = 1;
place = "{-163.07, 105.82}";
type = Stem;
},
{
horizontal = 1;
place = "{212.58, 31.78}";
type = Stem;
},
{
horizontal = 1;
place = "{704.25, 32.75}";
type = Stem;
},
{
horizontal = 1;
place = "{906.37, 25.99}";
type = Stem;
},
{
place = "{18.89, 595.61}";
type = Stem;
}
);
layerId = "4A657952-F232-4636-873B-F2B6F2CFB0B2";
paths = (
{
closed = 1;
nodes = (
"55.38 0 LINE",
"169.31 212.58 LINE",
"542.8 212.58 LINE",
"581.92 0 LINE",
"614.5 0 LINE",
"477.64 737 LINE",
"414.86 737 LINE",
"18.89 0 LINE"
);
},
{
closed = 1;
nodes = (
"309.37 -163.07 LINE",
"328.05 -57.25 LINE",
"295.05 -57.25 LINE",
"276.37 -163.07 LINE"
);
},
{
closed = 1;
nodes = (
"432.81 704.25 LINE",
"452.33 704.25 LINE",
"536.95 244.36 LINE",
"186.34 244.36 LINE"
);
},
{
closed = 1;
nodes = (
"353.11 794.25 LINE",
"466.46 906.37 LINE",
"482.01 906.37 LINE",
"555.8 794.25 LINE",
"585.3 794.25 LINE",
"503.17 932.36 LINE",
"446.99 932.36 LINE",
"320.12 794.25 LINE"
);
}
);
width = 633;
}
);
leftKerningGroup = A;
note = uni1EAC;
rightKerningGroup = A;
unicode = 1EAC;
},
{
glyphname = uni1EA6;
lastChange = "2019-09-04 12:29:29 +0000";
layers = (
{
hints = (
{
horizontal = 1;
place = "{212.58, 31.78}";
type = Stem;
},
{
horizontal = 1;
place = "{704.25, 32.75}";
type = Stem;
},
{
horizontal = 1;
place = "{861.59, 140.22}";
type = Stem;
},
{
place = "{18.89, 595.61}";
type = Stem;
},
{
horizontal = 1;
place = "{906.37, 25.99}";
type = Stem;
}
);
layerId = "4A657952-F232-4636-873B-F2B6F2CFB0B2";
paths = (
{
closed = 1;
nodes = (
"55.38 0 LINE",
"169.31 212.58 LINE",
"542.8 212.58 LINE",
"581.92 0 LINE",
"614.5 0 LINE",
"477.64 737 LINE",
"414.86 737 LINE",
"18.89 0 LINE"
);
},
{
closed = 1;
nodes = (
"432.81 704.25 LINE",
"452.33 704.25 LINE",
"536.95 244.36 LINE",
"186.34 244.36 LINE"
);
},
{
closed = 1;
nodes = (
"333.36 861.59 LINE",
"271.52 1001.81 LINE",
"227.59 1001.81 LINE",
"304.5 861.59 LINE"
);
},
{
closed = 1;
nodes = (
"353.11 794.25 LINE",
"466.46 906.37 LINE",
"482.01 906.37 LINE",
"555.8 794.25 LINE",
"585.3 794.25 LINE",
"503.17 932.36 LINE",
"446.99 932.36 LINE",
"320.12 794.25 LINE"
);
}
);
width = 633;
}
);
leftKerningGroup = A;
note = uni1EA6;
rightKerningGroup = A;
unicode = 1EA6;
},
{
glyphname = uni1EA8;
lastChange = "2019-09-04 12:29:29 +0000";
layers = (
{
hints = (
{
horizontal = 1;
place = "{212.58, 31.78}";
type = Stem;
},
{
horizontal = 1;
place = "{704.25, 32.75}";
type = Stem;
},
{
horizontal = 1;
place = "{906.37, 25.99}";
type = Stem;
},
{
horizontal = 1;
place = "{1025.94, 27.11}";
type = Stem;
},
{
place = "{582.02, 26.74}";
type = Stem;
}
);
layerId = "4A657952-F232-4636-873B-F2B6F2CFB0B2";
paths = (
{
closed = 1;
nodes = (
"55.38 0 LINE",
"169.31 212.58 LINE",
"542.8 212.58 LINE",
"581.92 0 LINE",
"614.5 0 LINE",
"477.64 737 LINE",
"414.86 737 LINE",
"18.89 0 LINE"
);
},
{
closed = 1;
nodes = (
"432.81 704.25 LINE",
"452.33 704.25 LINE",
"536.95 244.36 LINE",
"186.34 244.36 LINE"
);
},
{
closed = 1;
nodes = (
"353.11 794.25 LINE",
"466.46 906.37 LINE",
"482.01 906.37 LINE",
"555.8 794.25 LINE",
"585.3 794.25 LINE",
"503.17 932.36 LINE",
"446.99 932.36 LINE",
"320.12 794.25 LINE"
);
},
{
closed = 1;
nodes = (
"606.39 861.64 LINE",
"611.14 887.9 LINE",
"690.54 952.66 LINE",
"701.41 1014.24 LINE",
"671.02 1053.05 LINE",
"592.37 1053.05 LINE",
"547.92 1013.2 LINE",
"566.14 992.32 LINE",
"603.86 1025.94 LINE",
"656.37 1025.94 LINE",
"671.33 1006.71 LINE",
"664.25 966.76 LINE",
"585.59 901.98 LINE",
"578.46 861.64 LINE"
);
}
);
width = 633;
}
);
leftKerningGroup = A;
note = uni1EA8;
rightKerningGroup = A;
unicode = 1EA8;
},
{
glyphname = uni1EAA;
lastChange = "2019-09-04 12:29:29 +0000";
layers = (
{
hints = (
{
horizontal = 1;
place = "{212.58, 31.78}";
type = Stem;
},
{
horizontal = 1;
place = "{704.25, 32.75}";
type = Stem;
},
{
horizontal = 1;
place = "{954.43, 26.98}";
type = Stem;
},
{
horizontal = 1;
place = "{1030.21, 26.98}";
type = Stem;
},
{
place = "{18.89, 627.52}";
type = Stem;
},
{
horizontal = 1;
place = "{906.37, 25.99}";
type = Stem;
}
);
layerId = "4A657952-F232-4636-873B-F2B6F2CFB0B2";
paths = (
{
closed = 1;
nodes = (
"55.38 0 LINE",
"169.31 212.58 LINE",
"542.8 212.58 LINE",
"581.92 0 LINE",
"614.5 0 LINE",
"477.64 737 LINE",
"414.86 737 LINE",
"18.89 0 LINE"
);
},
{
closed = 1;
nodes = (
"432.81 704.25 LINE",
"452.33 704.25 LINE",
"536.95 244.36 LINE",
"186.34 244.36 LINE"
);
},
{
closed = 1;
nodes = (
"353.11 794.25 LINE",
"466.46 906.37 LINE",
"482.01 906.37 LINE",
"555.8 794.25 LINE",
"585.3 794.25 LINE",
"503.17 932.36 LINE",
"446.99 932.36 LINE",
"320.12 794.25 LINE"
);
},
{
closed = 1;
nodes = (
"580.26 954.43 LINE",
"636.15 1003.34 LINE",
"646.41 1056.82 LINE",
"624.62 1056.82 LINE",
"614.89 1017.66 LINE",
"569.37 981.41 LINE",
"532.05 981.41 LINE",
"469.53 1057.19 LINE",
"396.06 1057.19 LINE",
"340.02 1007.79 LINE",
"329.69 954.79 LINE",
"351.61 954.79 LINE",
"361.46 993.83 LINE",
"406.96 1030.21 LINE",
"455.51 1030.21 LINE",
"517.93 954.43 LINE"
);
}
);
width = 633;
}
);
leftKerningGroup = A;
note = uni1EAA;
rightKerningGroup = A;
unicode = 1EAA;
},
{
glyphname = uni0200;
lastChange = "2019-09-04 12:29:29 +0000";
layers = (
{
hints = (
{
horizontal = 1;
place = "{212.58, 31.78}";
type = Stem;
},
{
horizontal = 1;
place = "{704.25, 32.75}";
type = Stem;
},
{
horizontal = 1;
place = "{794.25, 140.22}";
type = Stem;
},
{
place = "{18.89, 595.61}";
type = Stem;
}
);
layerId = "4A657952-F232-4636-873B-F2B6F2CFB0B2";
paths = (
{
closed = 1;
nodes = (
"55.38 0 LINE",
"169.31 212.58 LINE",
"542.8 212.58 LINE",
"581.92 0 LINE",
"614.5 0 LINE",
"477.64 737 LINE",
"414.86 737 LINE",
"18.89 0 LINE"
);
},
{
closed = 1;
nodes = (
"432.81 704.25 LINE",
"452.33 704.25 LINE",
"536.95 244.36 LINE",
"186.34 244.36 LINE"
);
},
{
closed = 1;
nodes = (
"396.1 794.25 LINE",
"334.25 934.47 LINE",
"290.32 934.47 LINE",
"367.24 794.25 LINE"
);
},
{
closed = 1;
nodes = (
"515.47 794.25 LINE",
"453.62 934.47 LINE",
"409.69 934.47 LINE",
"486.61 794.25 LINE"
);
}
);
width = 633;
}
);
leftKerningGroup = A;
note = uni0200;
rightKerningGroup = A;
unicode = 0200;
},
{
glyphname = Adieresis;
lastChange = "2019-09-04 12:29:29 +0000";
layers = (
{
hints = (
{
horizontal = 1;
place = "{212.58, 31.78}";
type = Stem;
},
{
horizontal = 1;
place = "{704.25, 32.75}";
type = Stem;
},
{
horizontal = 1;
place = "{794.25, 105.94}";
type = Stem;
},
{
place = "{18.89, 603.69}";
type = Stem;
}
);
layerId = "4A657952-F232-4636-873B-F2B6F2CFB0B2";
paths = (
{
closed = 1;
nodes = (
"55.38 0 LINE",
"169.31 212.58 LINE",
"542.8 212.58 LINE",
"581.92 0 LINE",
"614.5 0 LINE",
"477.64 737 LINE",
"414.86 737 LINE",
"18.89 0 LINE"
);
},
{
closed = 1;
nodes = (
"432.81 704.25 LINE",
"452.33 704.25 LINE",
"536.95 244.36 LINE",
"186.34 244.36 LINE"
);
},
{
closed = 1;
nodes = (
"337.79 794.25 LINE",
"356.47 900.19 LINE",
"323.47 900.19 LINE",
"304.79 794.25 LINE"
);
},
{
closed = 1;
nodes = (
"603.9 794.25 LINE",
"622.58 900.19 LINE",
"589.58 900.19 LINE",
"570.9 794.25 LINE"
);
}
);
width = 633;
}
);
leftKerningGroup = A;
note = Adieresis;
rightKerningGroup = A;
unicode = 00C4;
},
{
glyphname = uni1EA0;
lastChange = "2019-09-04 12:29:29 +0000";
layers = (
{
hints = (
{
horizontal = 1;
place = "{-163.07, 105.82}";
type = Stem;
},
{
horizontal = 1;
place = "{212.58, 31.78}";
type = Stem;
},
{
horizontal = 1;
place = "{704.25, 32.75}";
type = Stem;
},
{
place = "{18.89, 595.61}";
type = Stem;
}
);
layerId = "4A657952-F232-4636-873B-F2B6F2CFB0B2";
paths = (
{
closed = 1;
nodes = (
"55.38 0 LINE",
"169.31 212.58 LINE",
"542.8 212.58 LINE",
"581.92 0 LINE",
"614.5 0 LINE",
"477.64 737 LINE",
"414.86 737 LINE",
"18.89 0 LINE"
);
},
{
closed = 1;
nodes = (
"309.37 -163.07 LINE",
"328.05 -57.25 LINE",
"295.05 -57.25 LINE",
"276.37 -163.07 LINE"
);
},
{
closed = 1;
nodes = (
"432.81 704.25 LINE",
"452.33 704.25 LINE",
"536.95 244.36 LINE",
"186.34 244.36 LINE"
);
}
);
width = 633;
}
);
leftKerningGroup = A;
note = uni1EA0;
rightKerningGroup = A;
unicode = 1EA0;
},
{
glyphname = Agrave;
lastChange = "2019-09-04 12:29:29 +0000";
layers = (
{
hints = (
{
horizontal = 1;
place = "{212.58, 31.78}";
type = Stem;
},
{
horizontal = 1;
place = "{704.25, 32.75}";
type = Stem;
},
{
horizontal = 1;
place = "{794.25, 140.22}";
type = Stem;
},
{
place = "{18.89, 595.61}";
type = Stem;
}
);
layerId = "4A657952-F232-4636-873B-F2B6F2CFB0B2";
paths = (
{
closed = 1;
nodes = (
"55.38 0 LINE",
"169.31 212.58 LINE",
"542.8 212.58 LINE",
"581.92 0 LINE",
"614.5 0 LINE",
"477.64 737 LINE",
"414.86 737 LINE",
"18.89 0 LINE"
);
},
{
closed = 1;
nodes = (
"432.81 704.25 LINE",
"452.33 704.25 LINE",
"536.95 244.36 LINE",
"186.34 244.36 LINE"
);
},
{
closed = 1;
nodes = (
"455.28 794.25 LINE",
"393.44 934.47 LINE",
"349.51 934.47 LINE",
"426.42 794.25 LINE"
);
}
);
width = 633;
}
);
leftKerningGroup = A;
note = Agrave;
rightKerningGroup = A;
unicode = 00C0;
},
{
glyphname = uni1EA2;
lastChange = "2019-09-04 12:29:29 +0000";
layers = (
{
hints = (
{
horizontal = 1;
place = "{212.58, 31.78}";
type = Stem;
},
{
horizontal = 1;
place = "{704.25, 32.75}";
type = Stem;
},
{
horizontal = 1;
place = "{958.55, 27.11}";
type = Stem;
},
{
place = "{443.33, 26.74}";
type = Stem;
}
);
layerId = "4A657952-F232-4636-873B-F2B6F2CFB0B2";
paths = (
{
closed = 1;
nodes = (
"55.38 0 LINE",
"169.31 212.58 LINE",
"542.8 212.58 LINE",
"581.92 0 LINE",
"614.5 0 LINE",
"477.64 737 LINE",
"414.86 737 LINE",
"18.89 0 LINE"
);
},
{
closed = 1;
nodes = (
"432.81 704.25 LINE",
"452.33 704.25 LINE",
"536.95 244.36 LINE",
"186.34 244.36 LINE"
);
},
{
closed = 1;
nodes = (
"467.69 794.25 LINE",
"472.45 820.52 LINE",
"551.84 885.28 LINE",
"562.71 946.85 LINE",
"532.33 985.66 LINE",
"453.68 985.66 LINE",
"409.23 945.81 LINE",
"427.44 924.93 LINE",
"465.16 958.55 LINE",
"517.67 958.55 LINE",
"532.64 939.32 LINE",
"525.55 899.37 LINE",
"446.9 834.59 LINE",
"439.76 794.25 LINE"
);
}
);
width = 633;
}
);
leftKerningGroup = A;
note = uni1EA2;
rightKerningGroup = A;
unicode = 1EA2;
},
{
glyphname = uni0202;
lastChange = "2019-09-04 12:29:29 +0000";
layers = (
{
hints = (
{
horizontal = 1;
place = "{212.58, 31.78}";
type = Stem;
},
{
horizontal = 1;
place = "{704.25, 32.75}";
type = Stem;
},
{
horizontal = 1;
place = "{886.46, 27.23}";
type = Stem;
},
{
place = "{18.89, 595.61}";
type = Stem;
}
);
layerId = "4A657952-F232-4636-873B-F2B6F2CFB0B2";
paths = (
{
closed = 1;
nodes = (
"55.38 0 LINE",
"169.31 212.58 LINE",
"542.8 212.58 LINE",
"581.92 0 LINE",
"614.5 0 LINE",
"477.64 737 LINE",
"414.86 737 LINE",
"18.89 0 LINE"
);
},
{
closed = 1;
nodes = (
"432.81 704.25 LINE",
"452.33 704.25 LINE",
"536.95 244.36 LINE",
"186.34 244.36 LINE"
);
},
{
closed = 1;
nodes = (
"367.08 794.25 LINE",
"377.5 852.91 LINE",
"416.9 886.46 LINE",
"527.68 886.46 LINE",
"555.36 852.91 LINE",
"544.94 794.25 LINE",
"572.54 794.25 LINE",
"584.07 858.91 LINE",
"538.79 913.69 LINE",
"408.94 913.69 LINE",
"352.09 865.3 LINE",
"339.48 794.25 LINE"
);
}
);
width = 633;
}
);
leftKerningGroup = A;
note = uni0202;
rightKerningGroup = A;
unicode = 0202;
},
{
glyphname = Amacron;
lastChange = "2019-09-04 12:29:29 +0000";
layers = (
{
hints = (
{
horizontal = 1;
place = "{212.58, 31.78}";
type = Stem;
},
{
horizontal = 1;
place = "{704.25, 32.75}";
type = Stem;
},
{
horizontal = 1;
place = "{794.25, 28.57}";
type = Stem;
},
{
place = "{18.89, 595.61}";
type = Stem;
}
);
layerId = "4A657952-F232-4636-873B-F2B6F2CFB0B2";
paths = (
{
closed = 1;
nodes = (
"55.38 0 LINE",
"169.31 212.58 LINE",
"542.8 212.58 LINE",
"581.92 0 LINE",
"614.5 0 LINE",
"477.64 737 LINE",
"414.86 737 LINE",
"18.89 0 LINE"
);
},
{
closed = 1;
nodes = (
"432.81 704.25 LINE",
"452.33 704.25 LINE",
"536.95 244.36 LINE",
"186.34 244.36 LINE"
);
},
{
closed = 1;
nodes = (
"605.79 794.25 LINE",
"610.9 822.82 LINE",
"311.79 822.82 LINE",
"306.68 794.25 LINE"
);
}
);
width = 633;
}
);
leftKerningGroup = A;
note = Amacron;
rightKerningGroup = A;
unicode = 0100;
},
{
glyphname = Aogonek;
lastChange = "2019-09-04 12:30:08 +0000";
layers = (
{
hints = (
{
horizontal = 1;
place = "{-141.88, 28.63}";
type = Stem;
},
{
horizontal = 1;
place = "{212.58, 31.78}";
type = Stem;
},
{
horizontal = 1;
place = "{704.25, 32.75}";
type = Stem;
},
{
place = "{18.89, 597.31}";
type = Stem;
}
);
layerId = "4A657952-F232-4636-873B-F2B6F2CFB0B2";
paths = (
{
closed = 1;
nodes = (
"585.23 -141.87 LINE",
"590.28 -113.24 LINE",
"569.28 -113.24 LINE",
"542.1 -80.25 LINE",
"547.63 -48.89 LINE",
"616.2 -8.75 LINE",
"477.64 737 LINE",
"414.86 737 LINE",
"18.89 0 LINE",
"55.38 0 LINE",
"169.31 212.58 LINE",
"542.8 212.58 LINE",
"581.92 0 LINE",
"521.93 -33 LINE",
"511.88 -90 LINE",
"555.58 -141.87 LINE"
);
},
{
closed = 1;
nodes = (
"432.81 704.26 LINE",
"452.33 704.26 LINE",
"536.95 244.37 LINE",
"186.34 244.37 LINE"
);
}
);
width = 582;
}
);
leftKerningGroup = A;
note = Aogonek;
rightKerningGroup = A;
unicode = 0104;
},
{
glyphname = Aring;
lastChange = "2019-09-04 12:29:29 +0000";
layers = (
{
hints = (
{
horizontal = 1;
place = "{212.58, 31.78}";
type = Stem;
},
{
horizontal = 1;
place = "{704.25, 32.75}";
type = Stem;
},
{
horizontal = 1;
place = "{794.25, 25.76}";
type = Stem;
},
{
horizontal = 1;
place = "{940.5, 25.76}";
type = Stem;
},
{
place = "{18.89, 595.61}";
type = Stem;
}
);
layerId = "4A657952-F232-4636-873B-F2B6F2CFB0B2";
paths = (
{
closed = 1;
nodes = (
"55.38 0 LINE",
"169.31 212.58 LINE",
"542.8 212.58 LINE",
"581.92 0 LINE",
"614.5 0 LINE",
"477.64 737 LINE",
"414.86 737 LINE",
"18.89 0 LINE"
);
},
{
closed = 1;
nodes = (
"432.81 704.25 LINE",
"452.33 704.25 LINE",
"536.95 244.36 LINE",
"186.34 244.36 LINE"
);
},
{
closed = 1;
nodes = (
"493.1 794.25 LINE",
"549.67 842.47 LINE",
"561.88 911.79 LINE",
"517.23 966.26 LINE",
"443.66 966.26 LINE",
"387.19 918.08 LINE",
"374.98 848.89 LINE",
"419.87 794.25 LINE"
);
},
{
closed = 1;
nodes = (
"403.5 854.16 LINE",
"412.72 906.23 LINE",
"453.08 940.5 LINE",
"505.14 940.5 LINE",
"533.33 906.23 LINE",
"524.11 854.16 LINE",
"483.87 820.01 LINE",
"431.82 820.01 LINE"
);
}
);
width = 633;
}
);
leftKerningGroup = A;
note = Aring;
rightKerningGroup = A;
unicode = 00C5;
},
{
glyphname = Aringacute;
lastChange = "2019-09-04 12:29:29 +0000";
layers = (
{
hints = (
{
horizontal = 1;
place = "{212.58, 31.78}";
type = Stem;
},
{
horizontal = 1;
place = "{704.25, 32.75}";
type = Stem;
},
{
horizontal = 1;
place = "{794.25, 25.76}";
type = Stem;
},
{
horizontal = 1;
place = "{940.5, 25.76}";
type = Stem;
},
{
horizontal = 1;
place = "{988.51, 140.22}";
type = Stem;
},
{
place = "{18.89, 611.85}";
type = Stem;
}
);
layerId = "4A657952-F232-4636-873B-F2B6F2CFB0B2";
paths = (
{
closed = 1;
nodes = (
"55.38 0 LINE",
"169.31 212.58 LINE",
"542.8 212.58 LINE",
"581.92 0 LINE",
"614.5 0 LINE",
"477.64 737 LINE",
"414.86 737 LINE",
"18.89 0 LINE"
);
},
{
closed = 1;
nodes = (
"432.81 704.25 LINE",
"452.33 704.25 LINE",
"536.95 244.36 LINE",
"186.34 244.36 LINE"
);
},
{
closed = 1;
nodes = (
"493.1 794.25 LINE",
"549.67 842.47 LINE",
"561.88 911.79 LINE",
"517.23 966.26 LINE",
"443.66 966.26 LINE",
"387.19 918.08 LINE",
"374.98 848.89 LINE",
"419.87 794.25 LINE"
);
},
{
closed = 1;
nodes = (
"403.5 854.16 LINE",
"412.72 906.23 LINE",
"453.08 940.5 LINE",
"505.14 940.5 LINE",
"533.33 906.23 LINE",
"524.11 854.16 LINE",
"483.87 820.01 LINE",
"431.82 820.01 LINE"
);
},
{
closed = 1;
nodes = (
"503.11 988.51 LINE",
"630.74 1128.73 LINE",
"581.21 1128.73 LINE",
"469.83 988.51 LINE"
);
}
);
width = 633;
}
);
leftKerningGroup = A;
note = Aringacute;
rightKerningGroup = A;
unicode = 01FA;
},
{
glyphname = Atilde;
lastChange = "2019-09-04 12:29:29 +0000";
layers = (
{
hints = (
{
horizontal = 1;
place = "{212.58, 31.78}";
type = Stem;
},
{
horizontal = 1;
place = "{704.25, 32.75}";
type = Stem;
},
{
horizontal = 1;
place = "{794.25, 26.98}";
type = Stem;
},
{
horizontal = 1;
place = "{870.03, 26.98}";
type = Stem;
},
{
place = "{18.89, 606.34}";
type = Stem;
}
);
layerId = "4A657952-F232-4636-873B-F2B6F2CFB0B2";
paths = (
{
closed = 1;
nodes = (
"55.38 0 LINE",
"169.31 212.58 LINE",
"542.8 212.58 LINE",
"581.92 0 LINE",
"614.5 0 LINE",
"477.64 737 LINE",
"414.86 737 LINE",
"18.89 0 LINE"
);
},
{
closed = 1;
nodes = (
"432.81 704.25 LINE",
"452.33 704.25 LINE",
"536.95 244.36 LINE",
"186.34 244.36 LINE"
);
},
{
closed = 1;
nodes = (
"559.08 794.25 LINE",
"614.97 843.16 LINE",
"625.23 896.64 LINE",
"603.44 896.64 LINE",
"593.71 857.48 LINE",
"548.19 821.23 LINE",
"510.87 821.23 LINE",
"448.35 897.01 LINE",
"374.88 897.01 LINE",
"318.84 847.61 LINE",
"308.51 794.61 LINE",
"330.43 794.61 LINE",
"340.28 833.65 LINE",
"385.78 870.03 LINE",
"434.33 870.03 LINE",
"496.75 794.25 LINE"
);
}
);
width = 633;
}
);
leftKerningGroup = A;
note = Atilde;
rightKerningGroup = A;
unicode = 00C3;
},
{
glyphname = AE;
lastChange = "2019-09-04 12:29:29 +0000";
layers = (
{
hints = (
{
horizontal = 1;
place = "{0, 32.26}";
type = Stem;
},
{
horizontal = 1;
place = "{212.58, 31.78}";
type = Stem;
},
{
horizontal = 1;
place = "{373.87, 32.27}";
type = Stem;
},
{
horizontal = 1;
place = "{704.73, 32.27}";
type = Stem;
},
{
place = "{18.89, 994.3}";
type = Stem;
}
);
layerId = "4A657952-F232-4636-873B-F2B6F2CFB0B2";
paths = (
{
closed = 1;
nodes = (
"55.38 0 LINE",
"169.31 212.58 LINE",
"542.8 212.58 LINE",
"581.92 0 LINE",
"883.19 0 LINE",
"888.89 32.26 LINE",
"608.51 32.26 LINE",
"545.07 373.87 LINE",
"892.64 373.87 LINE",
"898.32 406.14 LINE",
"539.08 406.14 LINE",
"483.63 704.73 LINE",
"1007.5 704.73 LINE",
"1013.19 737 LINE",
"414.86 737 LINE",
"18.89 0 LINE"
);
},
{
closed = 1;
nodes = (
"432.81 704.25 LINE",
"452.33 704.25 LINE",
"536.95 244.36 LINE",
"186.34 244.36 LINE"
);
}
);
width = 938;
}
);
leftKerningGroup = A;
note = AE;
rightKerningGroup = AE;
unicode = 00C6;
},
{
glyphname = AEacute;
lastChange = "2019-09-04 12:29:29 +0000";
layers = (
{
hints = (
{
horizontal = 1;
place = "{0, 32.26}";
type = Stem;
},
{
horizontal = 1;
place = "{212.58, 31.78}";
type = Stem;
},
{
horizontal = 1;
place = "{373.87, 32.27}";
type = Stem;
},
{
horizontal = 1;
place = "{704.73, 32.27}";
type = Stem;
},
{
horizontal = 1;
place = "{794.25, 140.22}";
type = Stem;
},
{
place = "{18.89, 994.3}";
type = Stem;
}
);
layerId = "4A657952-F232-4636-873B-F2B6F2CFB0B2";
paths = (
{
closed = 1;
nodes = (
"55.38 0 LINE",
"169.31 212.58 LINE",
"542.8 212.58 LINE",
"581.92 0 LINE",
"883.19 0 LINE",
"888.89 32.26 LINE",
"608.51 32.26 LINE",
"545.07 373.87 LINE",
"892.64 373.87 LINE",
"898.32 406.14 LINE",
"539.08 406.14 LINE",
"483.63 704.73 LINE",
"1007.5 704.73 LINE",
"1013.19 737 LINE",
"414.86 737 LINE",
"18.89 0 LINE"
);
},
{
closed = 1;
nodes = (
"432.81 704.25 LINE",
"452.33 704.25 LINE",
"536.95 244.36 LINE",
"186.34 244.36 LINE"
);
},
{
closed = 1;
nodes = (
"474 794.25 LINE",
"601.63 934.47 LINE",
"552.09 934.47 LINE",
"440.72 794.25 LINE"
);
}
);
width = 938;
}
);
leftKerningGroup = A;
note = AEacute;
rightKerningGroup = AE;
unicode = 01FC;
},
{
glyphname = B;
lastChange = "2019-09-04 12:29:29 +0000";
layers = (
{
hints = (
{
horizontal = 1;
place = "{0, 31.79}";
type = Stem;
},
{
horizontal = 1;
place = "{374.14, 31.76}";
type = Stem;
},
{
horizontal = 1;
place = "{705.24, 31.77}";
type = Stem;
},
{
place = "{97.78, 554.37}";
type = Stem;
}
);
layerId = "4A657952-F232-4636-873B-F2B6F2CFB0B2";
paths = (
{
closed = 1;
nodes = (
"495.02 0.01 LINE",
"602.38 92.07 LINE",
"638.41 296.56 LINE",
"563.62 394.37 LINE",
"622.37 469.8 LINE",
"652.15 638.87 LINE",
"572.38 737.01 LINE",
"227.73 737.01 LINE",
"97.78 0.01 LINE"
);
},
{
closed = 1;
nodes = (
"197.48 374.13 LINE",
"537.16 374.16 LINE",
"603.43 287.8 LINE",
"571.28 105.12 LINE",
"485.96 31.81 LINE",
"137.11 31.79 LINE"
);
},
{
closed = 1;
nodes = (
"255.86 705.23 LINE",
"558.08 705.26 LINE",
"617.4 631.9 LINE",
"589.96 476.06 LINE",
"535.39 405.91 LINE",
"203.08 405.91 LINE"
);
}
);
width = 659;
}
);
leftKerningGroup = B;
note = B;
rightKerningGroup = B;
unicode = 0042;
},
{
glyphname = C;
lastChange = "2019-09-04 12:29:29 +0000";
layers = (
{
hints = (
{
horizontal = 1;
place = "{0, 31.78}";
type = Stem;
},
{
horizontal = 1;
place = "{705.21, 31.78}";
type = Stem;
},
{
place = "{100.18, 597.68}";
type = Stem;
}
);
layerId = "4A657952-F232-4636-873B-F2B6F2CFB0B2";
paths = (
{
closed = 1;
nodes = (
"617.58 104.6 LINE",
"598.04 128.72 LINE",
"484.79 31.78 LINE",
"194.29 31.75 LINE",
"134.96 105.11 LINE",
"227.75 631.89 LINE",
"313.08 705.19 LINE",
"597.72 705.22 LINE",
"674.29 611.28 LINE",
"697.86 631.34 LINE",
"612.03 736.98 LINE",
"302.3 737 LINE",
"196.99 646.69 LINE",
"100.18 98.31 LINE",
"180.06 0 LINE",
"495.58 -0.03 LINE"
);
}
);
width = 643;
}
);
leftKerningGroup = C;
note = C;
rightKerningGroup = C;
unicode = 0043;
},
{
glyphname = Cacute;
lastChange = "2019-09-04 12:29:29 +0000";
layers = (
{
hints = (
{
horizontal = 1;
place = "{0, 31.78}";
type = Stem;
},
{
horizontal = 1;
place = "{705.21, 31.78}";
type = Stem;
},
{
horizontal = 1;
place = "{794.25, 140.22}";
type = Stem;
},
{
place = "{100.18, 597.68}";
type = Stem;
}
);
layerId = "4A657952-F232-4636-873B-F2B6F2CFB0B2";
paths = (
{
closed = 1;
nodes = (
"617.58 104.6 LINE",
"598.04 128.72 LINE",
"484.79 31.78 LINE",
"194.29 31.75 LINE",
"134.96 105.11 LINE",
"227.75 631.89 LINE",
"313.08 705.19 LINE",
"597.72 705.22 LINE",
"674.29 611.28 LINE",
"697.86 631.34 LINE",
"612.03 736.98 LINE",
"302.3 737 LINE",
"196.99 646.69 LINE",
"100.18 98.31 LINE",
"180.06 0 LINE",
"495.58 -0.03 LINE"
);
},
{
closed = 1;
nodes = (
"485.1 794.25 LINE",
"612.73 934.47 LINE",
"563.19 934.47 LINE",
"451.82 794.25 LINE"
);
}
);
width = 643;
}
);
leftKerningGroup = C;
note = Cacute;
rightKerningGroup = C;
unicode = 0106;
},
{
glyphname = Ccaron;
lastChange = "2019-09-04 12:29:29 +0000";
layers = (
{
hints = (
{
horizontal = 1;
place = "{0, 31.78}";
type = Stem;
},
{
horizontal = 1;
place = "{705.21, 31.78}";
type = Stem;
},
{
horizontal = 1;
place = "{794.24, 25.99}";
type = Stem;
},
{
place = "{100.18, 597.68}";
type = Stem;
}
);
layerId = "4A657952-F232-4636-873B-F2B6F2CFB0B2";
paths = (
{
closed = 1;
nodes = (
"617.58 104.6 LINE",
"598.04 128.72 LINE",
"484.79 31.78 LINE",
"194.29 31.75 LINE",
"134.96 105.11 LINE",
"227.75 631.89 LINE",
"313.08 705.19 LINE",
"597.72 705.22 LINE",
"674.29 611.28 LINE",
"697.86 631.34 LINE",
"612.03 736.98 LINE",
"302.3 737 LINE",
"196.99 646.69 LINE",
"100.18 98.31 LINE",
"180.06 0 LINE",
"495.58 -0.03 LINE"
);
},
{
closed = 1;
nodes = (
"492.01 794.24 LINE",
"618.88 932.35 LINE",
"585.89 932.35 LINE",
"472.54 820.23 LINE",
"456.99 820.23 LINE",
"383.2 932.35 LINE",
"353.7 932.35 LINE",
"435.83 794.24 LINE"
);
}
);
width = 643;
}
);
leftKerningGroup = C;
note = Ccaron;
rightKerningGroup = C;
unicode = 010C;
},
{
glyphname = Ccedilla;
lastChange = "2019-09-04 12:29:29 +0000";
layers = (
{
hints = (
{
horizontal = 1;
place = "{0, 31.78}";
type = Stem;
},
{
horizontal = 1;
place = "{705.21, 31.78}";
type = Stem;
},
{
place = "{100.18, 597.68}";
type = Stem;
}
);
layerId = "4A657952-F232-4636-873B-F2B6F2CFB0B2";
paths = (
{
closed = 1;
nodes = (
"297.31 -131.27 LINE",
"359.26 -0.02 LINE",
"495.58 -0.02 LINE",
"617.58 104.61 LINE",
"598.04 128.73 LINE",
"484.79 31.79 LINE",
"194.29 31.76 LINE",
"134.96 105.12 LINE",
"227.75 631.9 LINE",
"313.08 705.19 LINE",
"597.72 705.22 LINE",
"674.29 611.28 LINE",
"697.86 631.34 LINE",
"612.03 736.98 LINE",
"302.3 737 LINE",
"196.99 646.69 LINE",
"100.18 98.31 LINE",
"180.06 0 LINE",
"325.16 -0.02 LINE",
"266.61 -131.27 LINE"
);
}
);
width = 643;
}
);
leftKerningGroup = C;
note = Ccedilla;
rightKerningGroup = C;
unicode = 00C7;
},
{
glyphname = Ccircumflex;
lastChange = "2019-09-04 12:29:29 +0000";
layers = (
{
hints = (
{
horizontal = 1;
place = "{0, 31.78}";
type = Stem;
},
{
horizontal = 1;
place = "{705.21, 31.78}";
type = Stem;
},
{
horizontal = 1;
place = "{906.37, 25.99}";
type = Stem;
},
{
place = "{100.18, 597.68}";
type = Stem;
}
);
layerId = "4A657952-F232-4636-873B-F2B6F2CFB0B2";
paths = (
{
closed = 1;
nodes = (
"617.58 104.6 LINE",
"598.04 128.72 LINE",
"484.79 31.78 LINE",
"194.29 31.75 LINE",
"134.96 105.11 LINE",
"227.75 631.89 LINE",
"313.08 705.19 LINE",
"597.72 705.22 LINE",
"674.29 611.28 LINE",
"697.86 631.34 LINE",
"612.03 736.98 LINE",
"302.3 737 LINE",
"196.99 646.69 LINE",
"100.18 98.31 LINE",
"180.06 0 LINE",
"495.58 -0.03 LINE"
);
},
{
closed = 1;
nodes = (
"364.21 794.25 LINE",
"477.56 906.37 LINE",
"493.11 906.37 LINE",
"566.9 794.25 LINE",
"596.4 794.25 LINE",
"514.27 932.36 LINE",
"458.09 932.36 LINE",
"331.21 794.25 LINE"
);
}
);
width = 643;
}
);
leftKerningGroup = C;
note = Ccircumflex;
rightKerningGroup = C;
unicode = 0108;
},
{
glyphname = Cdotaccent;
lastChange = "2019-09-04 12:29:29 +0000";
layers = (
{
hints = (
{
horizontal = 1;
place = "{0, 31.78}";
type = Stem;
},
{
horizontal = 1;
place = "{705.21, 31.78}";
type = Stem;
},
{
horizontal = 1;
place = "{794.25, 105.82}";
type = Stem;
},
{
place = "{100.18, 597.68}";
type = Stem;
}
);
layerId = "4A657952-F232-4636-873B-F2B6F2CFB0B2";
paths = (
{
closed = 1;
nodes = (
"617.58 104.6 LINE",
"598.04 128.72 LINE",
"484.79 31.78 LINE",
"194.29 31.75 LINE",
"134.96 105.11 LINE",
"227.75 631.89 LINE",
"313.08 705.19 LINE",
"597.72 705.22 LINE",
"674.29 611.28 LINE",
"697.86 631.34 LINE",
"612.03 736.98 LINE",
"302.3 737 LINE",
"196.99 646.69 LINE",
"100.18 98.31 LINE",
"180.06 0 LINE",
"495.58 -0.03 LINE"
);
},
{
closed = 1;
nodes = (
"483.83 794.25 LINE",
"502.51 900.07 LINE",
"469.51 900.07 LINE",
"450.83 794.25 LINE"
);
}
);
width = 643;
}
);
leftKerningGroup = C;
note = Cdotaccent;
rightKerningGroup = C;
unicode = 010A;
},
{
glyphname = D;
lastChange = "2019-09-04 12:29:29 +0000";
layers = (
{
hints = (
{
horizontal = 1;
place = "{0, 31.79}";
type = Stem;
},
{
horizontal = 1;
place = "{705.22, 31.77}";
type = Stem;
},
{
place = "{97.78, 611.32}";
type = Stem;
}
);
layerId = "4A657952-F232-4636-873B-F2B6F2CFB0B2";
paths = (
{
closed = 1;
nodes = (
"633.74 150.75 LINE",
"709.1 578.99 LINE",
"584.12 736.98 LINE",
"227.73 737 LINE",
"97.78 0 LINE",
"462.01 -0.02 LINE"
);
},
{
closed = 1;
nodes = (
"255.86 705.22 LINE",
"569.65 705.22 LINE",
"674.48 571.78 LINE",
"602.8 165.33 LINE",
"450.97 31.78 LINE",
"137.11 31.78 LINE"
);
}
);
width = 680;
}
);
leftKerningGroup = B;
note = D;
rightKerningGroup = D;
unicode = 0044;
},
{
glyphname = uni01C4;
lastChange = "2019-09-04 12:29:29 +0000";
layers = (
{
hints = (
{
horizontal = 1;
place = "{0, 32.26}";
type = Stem;
},
{
horizontal = 1;
place = "{704.73, 32.27}";
type = Stem;
},
{
horizontal = 1;
place = "{794.24, 25.99}";
type = Stem;
},
{
place = "{97.78, 1305}";
type = Stem;
},
{
horizontal = 1;
place = "{0, 31.79}";
type = Stem;
},
{
horizontal = 1;
place = "{705.22, 31.77}";
type = Stem;
}
);
layerId = "4A657952-F232-4636-873B-F2B6F2CFB0B2";
paths = (
{
closed = 1;
nodes = (
"633.74 150.75 LINE",
"709.1 578.99 LINE",
"584.12 736.98 LINE",
"227.73 737 LINE",
"97.78 0 LINE",
"462.01 -0.02 LINE"
);
},
{
closed = 1;
nodes = (
"255.86 705.22 LINE",
"569.65 705.22 LINE",
"674.48 571.78 LINE",
"602.8 165.33 LINE",
"450.97 31.78 LINE",
"137.11 31.78 LINE"
);
},
{
closed = 1;
nodes = (
"1285.55 0 LINE",
"1291.23 32.26 LINE",
"840.26 32.26 LINE",
"843.86 52.51 LINE",
"1392.45 680.32 LINE",
"1402.78 737 LINE",
"945.55 737 LINE",
"939.86 704.73 LINE",
"1357.64 704.73 LINE",
"1354.05 684.48 LINE",
"806.71 58.55 LINE",
"796.44 0 LINE"
);
},
{
closed = 1;
nodes = (
"1208.5 794.24 LINE",
"1335.38 932.35 LINE",
"1302.39 932.35 LINE",
"1189.04 820.23 LINE",
"1173.49 820.23 LINE",
"1099.69 932.35 LINE",
"1070.2 932.35 LINE",
"1152.32 794.24 LINE"
);
}
);
width = 1377;
}
);
note = uni01C4;
unicode = 01C4;
},
{
glyphname = Eth;
lastChange = "2019-09-04 12:29:29 +0000";
layers = (
{
hints = (
{
horizontal = 1;
place = "{0, 31.79}";
type = Stem;
},
{
horizontal = 1;
place = "{358.72, 30.56}";
type = Stem;
},
{
horizontal = 1;
place = "{705.22, 31.77}";
type = Stem;
},
{
place = "{81.23, 627.87}";
type = Stem;
}
);
layerId = "4A657952-F232-4636-873B-F2B6F2CFB0B2";
paths = (
{
closed = 1;
nodes = (
"633.74 150.75 LINE",
"709.1 578.99 LINE",
"584.12 736.98 LINE",
"227.73 737 LINE",
"166.42 389.28 LINE",
"86.61 389.28 LINE",
"81.23 358.72 LINE",
"161.03 358.72 LINE",
"97.78 0 LINE",
"462.01 -0.02 LINE"
);
},
{
closed = 1;
nodes = (
"194.76 358.72 LINE",
"359.62 358.72 LINE",
"365 389.28 LINE",
"200.15 389.28 LINE",
"255.86 705.22 LINE",
"569.65 705.22 LINE",
"674.48 571.78 LINE",
"602.8 165.33 LINE",
"450.97 31.78 LINE",
"137.11 31.78 LINE"
);
}
);
width = 680;
}
);
note = Eth;
rightKerningGroup = D;
unicode = 00D0;
},
{
glyphname = Dcaron;
lastChange = "2019-09-04 12:29:29 +0000";
layers = (
{
hints = (
{
horizontal = 1;
place = "{0, 31.79}";
type = Stem;
},
{
horizontal = 1;
place = "{705.22, 31.77}";
type = Stem;
},
{
horizontal = 1;
place = "{794.24, 25.99}";
type = Stem;
},
{
place = "{97.78, 611.32}";
type = Stem;
}
);
layerId = "4A657952-F232-4636-873B-F2B6F2CFB0B2";
paths = (
{
closed = 1;
nodes = (
"633.74 150.75 LINE",
"709.1 578.99 LINE",
"584.12 736.98 LINE",
"227.73 737 LINE",
"97.78 0 LINE",
"462.01 -0.02 LINE"
);
},
{
closed = 1;
nodes = (
"255.86 705.22 LINE",
"569.65 705.22 LINE",
"674.48 571.78 LINE",
"602.8 165.33 LINE",
"450.97 31.78 LINE",
"137.11 31.78 LINE"
);
},
{
closed = 1;
nodes = (
"474.78 794.24 LINE",
"601.66 932.35 LINE",
"568.67 932.35 LINE",
"455.32 820.23 LINE",
"439.76 820.23 LINE",
"365.97 932.35 LINE",
"336.48 932.35 LINE",
"418.6 794.24 LINE"
);
}
);
width = 680;
}
);
note = Dcaron;
rightKerningGroup = D;
unicode = 010E;
},
{
glyphname = Dcroat;
lastChange = "2019-09-04 12:29:29 +0000";
layers = (
{
hints = (
{
horizontal = 1;
place = "{0, 31.79}";
type = Stem;
},
{
horizontal = 1;
place = "{358.72, 30.56}";
type = Stem;
},
{
horizontal = 1;
place = "{705.22, 31.77}";
type = Stem;
},
{
place = "{81.23, 627.87}";
type = Stem;
}
);
layerId = "4A657952-F232-4636-873B-F2B6F2CFB0B2";
paths = (
{
closed = 1;
nodes = (
"633.74 150.75 LINE",
"709.1 578.99 LINE",
"584.12 736.98 LINE",
"227.73 737 LINE",
"166.42 389.28 LINE",
"86.61 389.28 LINE",
"81.23 358.72 LINE",
"161.03 358.72 LINE",
"97.78 0 LINE",
"462.01 -0.02 LINE"
);
},
{
closed = 1;
nodes = (
"194.76 358.72 LINE",
"359.62 358.72 LINE",
"365 389.28 LINE",
"200.15 389.28 LINE",
"255.86 705.22 LINE",
"569.65 705.22 LINE",
"674.48 571.78 LINE",
"602.8 165.33 LINE",
"450.97 31.78 LINE",
"137.11 31.78 LINE"
);
}
);
width = 680;
}
);
note = Dcroat;
rightKerningGroup = D;
unicode = 0110;
},
{
glyphname = uni01C5;
lastChange = "2019-09-04 12:29:29 +0000";
layers = (
{
hints = (
{
horizontal = 1;
place = "{0, 31.79}";
type = Stem;
},
{
horizontal = 1;
place = "{491.94, 30.56}";
type = Stem;
},
{
horizontal = 1;
place = "{579.74, 25.99}";
type = Stem;
},
{
horizontal = 1;
place = "{705.22, 31.77}";
type = Stem;
},
{
place = "{97.78, 1148.54}";
type = Stem;
},
{
horizontal = 1;
place = "{0, 30.55}";
type = Stem;
}
);
layerId = "4A657952-F232-4636-873B-F2B6F2CFB0B2";
paths = (
{
closed = 1;
nodes = (
"633.74 150.75 LINE",
"709.1 578.99 LINE",
"584.12 736.98 LINE",
"227.73 737 LINE",
"97.78 0 LINE",
"462.01 -0.02 LINE"
);
},
{
closed = 1;
nodes = (
"255.86 705.22 LINE",
"569.65 705.22 LINE",
"674.48 571.78 LINE",
"602.8 165.33 LINE",
"450.97 31.78 LINE",
"137.11 31.78 LINE"
);
},
{
closed = 1;
nodes = (
"1165.59 0 LINE",
"1170.98 30.55 LINE",
"809.6 30.55 LINE",
"813.34 44.08 LINE",
"1236.43 466.65 LINE",
"1246.32 522.5 LINE",
"890.65 522.5 LINE",
"885.26 491.94 LINE",
"1210.25 491.94 LINE",
"1206.54 478.54 LINE",
"781.39 54.34 LINE",
"771.76 0 LINE"
);
},
{
closed = 1;
nodes = (
"1105.64 579.74 LINE",
"1232.52 717.85 LINE",
"1199.53 717.85 LINE",
"1086.18 605.73 LINE",
"1070.62 605.73 LINE",
"996.83 717.85 LINE",
"967.34 717.85 LINE",
"1049.46 579.74 LINE"
);
}
);
width = 1221;
}
);
note = uni01C5;
unicode = 01C5;
},
{
glyphname = E;
lastChange = "2019-09-04 12:29:29 +0000";
layers = (
{
hints = (
{
horizontal = 1;
place = "{0, 32.26}";
type = Stem;
},
{
horizontal = 1;
place = "{373.87, 32.27}";
type = Stem;
},
{
horizontal = 1;
place = "{704.73, 32.27}";
type = Stem;
},
{
place = "{97.78, 586.86}";
type = Stem;
}
);
layerId = "4A657952-F232-4636-873B-F2B6F2CFB0B2";
paths = (
{
closed = 1;
nodes = (
"554.64 0 LINE",
"560.32 32.26 LINE",
"137.2 32.26 LINE",
"197.43 373.87 LINE",
"564.08 373.87 LINE",
"569.76 406.14 LINE",
"203.12 406.14 LINE",
"255.77 704.73 LINE",
"678.94 704.73 LINE",
"684.64 737 LINE",
"227.73 737 LINE",
"97.78 0 LINE"
);
}
);
width = 609;
}
);
note = E;
rightKerningGroup = AE;
unicode = 0045;
},
{
glyphname = Eacute;
lastChange = "2019-09-04 12:29:29 +0000";
layers = (
{
hints = (
{
horizontal = 1;
place = "{0, 32.26}";
type = Stem;
},
{
horizontal = 1;
place = "{373.87, 32.27}";
type = Stem;
},
{
horizontal = 1;
place = "{704.73, 32.27}";
type = Stem;
},
{
horizontal = 1;
place = "{794.25, 140.22}";
type = Stem;
},
{
place = "{97.78, 586.86}";
type = Stem;
}
);
layerId = "4A657952-F232-4636-873B-F2B6F2CFB0B2";
paths = (
{
closed = 1;
nodes = (
"554.64 0 LINE",
"560.32 32.26 LINE",
"137.2 32.26 LINE",
"197.43 373.87 LINE",
"564.08 373.87 LINE",
"569.76 406.14 LINE",
"203.12 406.14 LINE",
"255.77 704.73 LINE",
"678.94 704.73 LINE",
"684.64 737 LINE",
"227.73 737 LINE",
"97.78 0 LINE"
);
},
{
closed = 1;
nodes = (
"483.39 794.25 LINE",
"611.02 934.47 LINE",
"561.48 934.47 LINE",
"450.11 794.25 LINE"
);
}
);
width = 609;
}
);
note = Eacute;
rightKerningGroup = AE;
unicode = 00C9;
},
{
glyphname = Ebreve;
lastChange = "2019-09-04 12:29:29 +0000";
layers = (
{
hints = (
{
horizontal = 1;
place = "{0, 32.26}";
type = Stem;
},
{
horizontal = 1;
place = "{373.87, 32.27}";
type = Stem;
},
{
horizontal = 1;
place = "{704.73, 32.27}";
type = Stem;
},
{
horizontal = 1;
place = "{794.25, 27.22}";
type = Stem;
},
{
place = "{97.78, 586.86}";
type = Stem;
}
);
layerId = "4A657952-F232-4636-873B-F2B6F2CFB0B2";
paths = (
{
closed = 1;
nodes = (
"554.64 0 LINE",
"560.32 32.26 LINE",
"137.2 32.26 LINE",
"197.43 373.87 LINE",
"564.08 373.87 LINE",
"569.76 406.14 LINE",
"203.12 406.14 LINE",
"255.77 704.73 LINE",
"678.94 704.73 LINE",
"684.64 737 LINE",
"227.73 737 LINE",
"97.78 0 LINE"
);
},
{
closed = 1;
nodes = (
"529.38 794.25 LINE",
"586.15 842.51 LINE",
"598.84 913.69 LINE",
"571.25 913.69 LINE",
"560.83 855.03 LINE",
"521.43 821.47 LINE",
"410.65 821.47 LINE",
"382.97 855.03 LINE",
"393.39 913.69 LINE",
"365.79 913.69 LINE",
"354.25 848.42 LINE",
"399.4 794.24 LINE"
);
}
);
width = 609;
}
);
note = Ebreve;
rightKerningGroup = AE;
unicode = 0114;
},
{
glyphname = Ecaron;
lastChange = "2019-09-04 12:29:29 +0000";
layers = (
{
hints = (
{
horizontal = 1;
place = "{0, 32.26}";
type = Stem;
},
{
horizontal = 1;
place = "{373.87, 32.27}";
type = Stem;
},
{
horizontal = 1;
place = "{704.73, 32.27}";
type = Stem;
},
{
horizontal = 1;
place = "{794.24, 25.99}";
type = Stem;
},
{
place = "{97.78, 586.86}";
type = Stem;
}
);
layerId = "4A657952-F232-4636-873B-F2B6F2CFB0B2";
paths = (
{
closed = 1;
nodes = (
"554.64 0 LINE",
"560.32 32.26 LINE",
"137.2 32.26 LINE",
"197.43 373.87 LINE",
"564.08 373.87 LINE",
"569.76 406.14 LINE",
"203.12 406.14 LINE",
"255.77 704.73 LINE",
"678.94 704.73 LINE",
"684.64 737 LINE",
"227.73 737 LINE",
"97.78 0 LINE"
);
},
{
closed = 1;
nodes = (
"490.29 794.24 LINE",
"617.17 932.35 LINE",
"584.18 932.35 LINE",
"470.83 820.23 LINE",
"455.28 820.23 LINE",
"381.49 932.35 LINE",
"351.99 932.35 LINE",
"434.11 794.24 LINE"
);
}
);
width = 609;
}
);
note = Ecaron;
rightKerningGroup = AE;
unicode = 011A;
},
{
glyphname = Ecircumflex;
lastChange = "2019-09-04 12:29:29 +0000";
layers = (
{
hints = (
{
horizontal = 1;
place = "{0, 32.26}";
type = Stem;
},
{
horizontal = 1;
place = "{373.87, 32.27}";
type = Stem;
},
{
horizontal = 1;
place = "{704.73, 32.27}";
type = Stem;
},
{
horizontal = 1;
place = "{906.37, 25.99}";
type = Stem;
},
{
place = "{97.78, 586.86}";
type = Stem;
}
);
layerId = "4A657952-F232-4636-873B-F2B6F2CFB0B2";
paths = (
{
closed = 1;
nodes = (
"554.64 0 LINE",
"560.32 32.26 LINE",
"137.2 32.26 LINE",
"197.43 373.87 LINE",
"564.08 373.87 LINE",
"569.76 406.14 LINE",
"203.12 406.14 LINE",
"255.77 704.73 LINE",
"678.94 704.73 LINE",
"684.64 737 LINE",
"227.73 737 LINE",
"97.78 0 LINE"
);
},
{
closed = 1;
nodes = (
"362.5 794.25 LINE",
"475.84 906.37 LINE",
"491.4 906.37 LINE",
"565.19 794.25 LINE",
"594.69 794.25 LINE",
"512.56 932.36 LINE",
"456.38 932.36 LINE",
"329.5 794.25 LINE"
);
}
);
width = 609;
}
);
note = Ecircumflex;
rightKerningGroup = AE;
unicode = 00CA;
},
{
glyphname = uni1EBE;
lastChange = "2019-09-04 12:29:29 +0000";
layers = (
{
hints = (
{
horizontal = 1;
place = "{0, 32.26}";
type = Stem;
},
{
horizontal = 1;
place = "{373.87, 32.27}";
type = Stem;
},
{
horizontal = 1;
place = "{704.73, 32.27}";
type = Stem;
},
{
horizontal = 1;
place = "{861.61, 140.22}";
type = Stem;
},
{
place = "{97.78, 661.13}";
type = Stem;
},
{
horizontal = 1;
place = "{906.37, 25.99}";
type = Stem;
}
);
layerId = "4A657952-F232-4636-873B-F2B6F2CFB0B2";
paths = (
{
closed = 1;
nodes = (
"554.64 0 LINE",
"560.32 32.26 LINE",
"137.2 32.26 LINE",
"197.43 373.87 LINE",
"564.08 373.87 LINE",
"569.76 406.14 LINE",
"203.12 406.14 LINE",
"255.77 704.73 LINE",
"678.94 704.73 LINE",
"684.64 737 LINE",
"227.73 737 LINE",
"97.78 0 LINE"
);
},
{
closed = 1;
nodes = (
"362.5 794.25 LINE",
"475.84 906.37 LINE",
"491.4 906.37 LINE",
"565.19 794.25 LINE",
"594.69 794.25 LINE",
"512.56 932.36 LINE",
"456.38 932.36 LINE",
"329.5 794.25 LINE"
);
},
{
closed = 1;
nodes = (
"631.28 861.61 LINE",
"758.91 1001.83 LINE",
"709.38 1001.83 LINE",
"598 861.61 LINE"
);
}
);
width = 609;
}
);
note = uni1EBE;
rightKerningGroup = AE;
unicode = 1EBE;
},
{
glyphname = uni1EC6;
lastChange = "2019-09-04 12:29:29 +0000";
layers = (
{
hints = (
{
horizontal = 1;
place = "{-163.07, 105.82}";
type = Stem;
},
{
horizontal = 1;
place = "{0, 32.26}";
type = Stem;
},
{
horizontal = 1;
place = "{373.87, 32.27}";
type = Stem;
},
{
horizontal = 1;
place = "{704.73, 32.27}";
type = Stem;
},
{
horizontal = 1;
place = "{906.37, 25.99}";
type = Stem;
},
{
place = "{97.78, 586.86}";
type = Stem;
}
);
layerId = "4A657952-F232-4636-873B-F2B6F2CFB0B2";
paths = (
{
closed = 1;
nodes = (
"554.64 0 LINE",
"560.32 32.26 LINE",
"137.2 32.26 LINE",
"197.43 373.87 LINE",
"564.08 373.87 LINE",
"569.76 406.14 LINE",
"203.12 406.14 LINE",
"255.77 704.73 LINE",
"678.94 704.73 LINE",
"684.64 737 LINE",
"227.73 737 LINE",
"97.78 0 LINE"
);
},
{
closed = 1;
nodes = (
"307.2 -163.07 LINE",
"325.88 -57.25 LINE",
"292.88 -57.25 LINE",
"274.2 -163.07 LINE"
);
},
{
closed = 1;
nodes = (
"362.5 794.25 LINE",
"475.84 906.37 LINE",
"491.4 906.37 LINE",
"565.19 794.25 LINE",
"594.69 794.25 LINE",
"512.56 932.36 LINE",
"456.38 932.36 LINE",
"329.5 794.25 LINE"
);
}
);
width = 609;
}
);
note = uni1EC6;
rightKerningGroup = AE;
unicode = 1EC6;
},
{
glyphname = uni1EC0;
lastChange = "2019-09-04 12:29:29 +0000";
layers = (
{
hints = (
{
horizontal = 1;
place = "{0, 32.26}";
type = Stem;
},
{
horizontal = 1;
place = "{373.87, 32.27}";
type = Stem;
},
{
horizontal = 1;
place = "{704.73, 32.27}";
type = Stem;
},
{
horizontal = 1;
place = "{861.59, 140.22}";
type = Stem;
},
{
place = "{97.78, 586.86}";
type = Stem;
},
{
horizontal = 1;
place = "{906.37, 25.99}";
type = Stem;
}
);
layerId = "4A657952-F232-4636-873B-F2B6F2CFB0B2";
paths = (
{
closed = 1;
nodes = (
"554.64 0 LINE",
"560.32 32.26 LINE",
"137.2 32.26 LINE",
"197.43 373.87 LINE",
"564.08 373.87 LINE",
"569.76 406.14 LINE",
"203.12 406.14 LINE",
"255.77 704.73 LINE",
"678.94 704.73 LINE",
"684.64 737 LINE",
"227.73 737 LINE",
"97.78 0 LINE"
);
},
{
closed = 1;
nodes = (
"342.75 861.59 LINE",
"280.91 1001.81 LINE",
"236.98 1001.81 LINE",
"313.89 861.59 LINE"
);
},
{
closed = 1;
nodes = (
"362.5 794.25 LINE",
"475.84 906.37 LINE",
"491.4 906.37 LINE",
"565.19 794.25 LINE",
"594.69 794.25 LINE",
"512.56 932.36 LINE",
"456.38 932.36 LINE",
"329.5 794.25 LINE"
);
}
);
width = 609;
}
);
leftKerningGroup = B;
note = uni1EC0;
rightKerningGroup = AE;
unicode = 1EC0;
},
{
glyphname = uni1EC2;
lastChange = "2019-09-04 12:29:29 +0000";
layers = (
{
hints = (
{
horizontal = 1;
place = "{0, 32.26}";
type = Stem;
},
{
horizontal = 1;
place = "{373.87, 32.27}";
type = Stem;
},
{
horizontal = 1;
place = "{704.73, 32.27}";
type = Stem;
},
{
horizontal = 1;
place = "{906.37, 25.99}";
type = Stem;
},
{
horizontal = 1;
place = "{1025.94, 27.11}";
type = Stem;
},
{
place = "{591.41, 26.74}";
type = Stem;
}
);
layerId = "4A657952-F232-4636-873B-F2B6F2CFB0B2";
paths = (
{
closed = 1;
nodes = (
"554.64 0 LINE",
"560.32 32.26 LINE",
"137.2 32.26 LINE",
"197.43 373.87 LINE",
"564.08 373.87 LINE",
"569.76 406.14 LINE",
"203.12 406.14 LINE",
"255.77 704.73 LINE",
"678.94 704.73 LINE",
"684.64 737 LINE",
"227.73 737 LINE",
"97.78 0 LINE"
);
},
{
closed = 1;
nodes = (
"362.5 794.25 LINE",
"475.84 906.37 LINE",
"491.4 906.37 LINE",
"565.19 794.25 LINE",
"594.69 794.25 LINE",
"512.56 932.36 LINE",
"456.38 932.36 LINE",
"329.5 794.25 LINE"
);
},
{
closed = 1;
nodes = (
"615.78 861.64 LINE",
"620.53 887.9 LINE",
"699.93 952.66 LINE",
"710.8 1014.24 LINE",
"680.41 1053.05 LINE",
"601.76 1053.05 LINE",
"557.31 1013.2 LINE",
"575.53 992.32 LINE",
"613.25 1025.94 LINE",
"665.76 1025.94 LINE",
"680.72 1006.71 LINE",
"673.64 966.76 LINE",
"594.98 901.98 LINE",
"587.84 861.64 LINE"
);
}
);
width = 609;
}
);
note = uni1EC2;
rightKerningGroup = AE;
unicode = 1EC2;
},
{
glyphname = uni1EC4;
lastChange = "2019-09-04 12:29:29 +0000";
layers = (
{
hints = (
{
horizontal = 1;
place = "{0, 32.26}";
type = Stem;
},
{
horizontal = 1;
place = "{373.87, 32.27}";
type = Stem;
},
{
horizontal = 1;
place = "{704.73, 32.27}";
type = Stem;
},
{
horizontal = 1;
place = "{954.43, 26.98}";
type = Stem;
},
{
horizontal = 1;
place = "{1030.21, 26.98}";
type = Stem;
},
{
place = "{97.78, 586.86}";
type = Stem;
},
{
horizontal = 1;
place = "{906.37, 25.99}";
type = Stem;
}
);
layerId = "4A657952-F232-4636-873B-F2B6F2CFB0B2";
paths = (
{
closed = 1;
nodes = (
"554.64 0 LINE",
"560.32 32.26 LINE",
"137.2 32.26 LINE",
"197.43 373.87 LINE",
"564.08 373.87 LINE",
"569.76 406.14 LINE",
"203.12 406.14 LINE",
"255.77 704.73 LINE",
"678.94 704.73 LINE",
"684.64 737 LINE",
"227.73 737 LINE",
"97.78 0 LINE"
);
},
{
closed = 1;
nodes = (
"362.5 794.25 LINE",
"475.84 906.37 LINE",
"491.4 906.37 LINE",
"565.19 794.25 LINE",
"594.69 794.25 LINE",
"512.56 932.36 LINE",
"456.38 932.36 LINE",
"329.5 794.25 LINE"
);
},
{
closed = 1;
nodes = (
"589.64 954.43 LINE",
"645.54 1003.34 LINE",
"655.8 1056.82 LINE",
"634.01 1056.82 LINE",
"624.28 1017.66 LINE",
"578.76 981.41 LINE",
"541.44 981.41 LINE",
"478.92 1057.19 LINE",
"405.45 1057.19 LINE",
"349.41 1007.79 LINE",
"339.08 954.79 LINE",
"361 954.79 LINE",
"370.84 993.83 LINE",
"416.34 1030.21 LINE",
"464.9 1030.21 LINE",
"527.32 954.43 LINE"
);
}
);
width = 609;
}
);
note = uni1EC4;
rightKerningGroup = AE;
unicode = 1EC4;
},
{
glyphname = uni0204;
lastChange = "2019-09-04 12:29:29 +0000";
layers = (
{
hints = (
{
horizontal = 1;
place = "{0, 32.26}";
type = Stem;
},
{
horizontal = 1;
place = "{373.87, 32.27}";
type = Stem;
},
{
horizontal = 1;
place = "{704.73, 32.27}";
type = Stem;
},
{
horizontal = 1;
place = "{794.25, 140.22}";
type = Stem;
},
{
place = "{97.78, 586.86}";
type = Stem;
}
);
layerId = "4A657952-F232-4636-873B-F2B6F2CFB0B2";
paths = (
{
closed = 1;
nodes = (
"554.64 0 LINE",
"560.32 32.26 LINE",
"137.2 32.26 LINE",
"197.43 373.87 LINE",
"564.08 373.87 LINE",
"569.76 406.14 LINE",
"203.12 406.14 LINE",
"255.77 704.73 LINE",
"678.94 704.73 LINE",
"684.64 737 LINE",
"227.73 737 LINE",
"97.78 0 LINE"
);
},
{
closed = 1;
nodes = (
"405.49 794.25 LINE",
"343.64 934.47 LINE",
"299.71 934.47 LINE",
"376.63 794.25 LINE"
);
},
{
closed = 1;
nodes = (
"524.85 794.25 LINE",
"463.01 934.47 LINE",
"419.08 934.47 LINE",
"496 794.25 LINE"
);
}
);
width = 609;
}
);
leftKerningGroup = B;
note = uni0204;
rightKerningGroup = AE;
unicode = 0204;
},
{
glyphname = Edieresis;
lastChange = "2019-09-04 12:29:29 +0000";
layers = (
{
hints = (
{
horizontal = 1;
place = "{0, 32.26}";
type = Stem;
},
{
horizontal = 1;
place = "{373.87, 32.27}";
type = Stem;
},
{
horizontal = 1;
place = "{704.73, 32.27}";
type = Stem;
},
{
horizontal = 1;
place = "{794.25, 105.94}";
type = Stem;
},
{
place = "{97.78, 586.86}";
type = Stem;
}
);
layerId = "4A657952-F232-4636-873B-F2B6F2CFB0B2";
paths = (
{
closed = 1;
nodes = (
"554.64 0 LINE",
"560.32 32.26 LINE",
"137.2 32.26 LINE",
"197.43 373.87 LINE",
"564.08 373.87 LINE",
"569.76 406.14 LINE",
"203.12 406.14 LINE",
"255.77 704.73 LINE",
"678.94 704.73 LINE",
"684.64 737 LINE",
"227.73 737 LINE",
"97.78 0 LINE"
);
},
{
closed = 1;
nodes = (
"347.18 794.25 LINE",
"365.86 900.19 LINE",
"332.86 900.19 LINE",
"314.18 794.25 LINE"
);
},
{
closed = 1;
nodes = (
"613.29 794.25 LINE",
"631.97 900.19 LINE",
"598.97 900.19 LINE",
"580.29 794.25 LINE"
);
}
);
width = 609;
}
);
note = Edieresis;
rightKerningGroup = AE;
unicode = 00CB;
},
{
glyphname = Edotaccent;
lastChange = "2019-09-04 12:29:29 +0000";
layers = (
{
hints = (
{
horizontal = 1;
place = "{0, 32.26}";
type = Stem;
},
{
horizontal = 1;
place = "{373.87, 32.27}";
type = Stem;
},
{
horizontal = 1;
place = "{704.73, 32.27}";
type = Stem;
},
{
horizontal = 1;
place = "{794.25, 105.82}";
type = Stem;
},
{
place = "{97.78, 586.86}";
type = Stem;
}
);
layerId = "4A657952-F232-4636-873B-F2B6F2CFB0B2";
paths = (
{
closed = 1;
nodes = (
"554.64 0 LINE",
"560.32 32.26 LINE",
"137.2 32.26 LINE",
"197.43 373.87 LINE",
"564.08 373.87 LINE",
"569.76 406.14 LINE",
"203.12 406.14 LINE",
"255.77 704.73 LINE",
"678.94 704.73 LINE",
"684.64 737 LINE",
"227.73 737 LINE",
"97.78 0 LINE"
);
},
{
closed = 1;
nodes = (
"482.12 794.25 LINE",
"500.8 900.07 LINE",
"467.8 900.07 LINE",
"449.12 794.25 LINE"
);
}
);
width = 609;
}
);
note = Edotaccent;
rightKerningGroup = AE;
unicode = 0116;
},
{
glyphname = uni1EB8;
lastChange = "2019-09-04 12:29:29 +0000";
layers = (
{
hints = (
{
horizontal = 1;
place = "{-163.07, 105.82}";
type = Stem;
},
{
horizontal = 1;
place = "{0, 32.26}";
type = Stem;
},
{
horizontal = 1;
place = "{373.87, 32.27}";
type = Stem;
},
{
horizontal = 1;
place = "{704.73, 32.27}";
type = Stem;
},
{
place = "{97.78, 586.86}";
type = Stem;
}
);
layerId = "4A657952-F232-4636-873B-F2B6F2CFB0B2";
paths = (
{
closed = 1;
nodes = (
"554.64 0 LINE",
"560.32 32.26 LINE",
"137.2 32.26 LINE",
"197.43 373.87 LINE",
"564.08 373.87 LINE",
"569.76 406.14 LINE",
"203.12 406.14 LINE",
"255.77 704.73 LINE",
"678.94 704.73 LINE",
"684.64 737 LINE",
"227.73 737 LINE",
"97.78 0 LINE"
);
},
{
closed = 1;
nodes = (
"307.2 -163.07 LINE",
"325.88 -57.25 LINE",
"292.88 -57.25 LINE",
"274.2 -163.07 LINE"
);
}
);
width = 609;
}
);
note = uni1EB8;
rightKerningGroup = AE;
unicode = 1EB8;
},
{
glyphname = Egrave;
lastChange = "2019-09-04 12:29:29 +0000";
layers = (
{
hints = (
{
horizontal = 1;
place = "{0, 32.26}";
type = Stem;
},
{
horizontal = 1;
place = "{373.87, 32.27}";
type = Stem;
},
{
horizontal = 1;
place = "{704.73, 32.27}";
type = Stem;
},
{
horizontal = 1;
place = "{794.25, 140.22}";
type = Stem;
},
{
place = "{97.78, 586.86}";
type = Stem;
}
);
layerId = "4A657952-F232-4636-873B-F2B6F2CFB0B2";
paths = (
{
closed = 1;
nodes = (
"554.64 0 LINE",
"560.32 32.26 LINE",
"137.2 32.26 LINE",
"197.43 373.87 LINE",
"564.08 373.87 LINE",
"569.76 406.14 LINE",
"203.12 406.14 LINE",
"255.77 704.73 LINE",
"678.94 704.73 LINE",
"684.64 737 LINE",
"227.73 737 LINE",
"97.78 0 LINE"
);
},
{
closed = 1;
nodes = (
"464.67 794.25 LINE",
"402.83 934.47 LINE",
"358.9 934.47 LINE",
"435.81 794.25 LINE"
);
}
);
width = 609;
}
);
note = Egrave;
rightKerningGroup = AE;
unicode = 00C8;
},
{
glyphname = uni1EBA;
lastChange = "2019-09-04 12:29:29 +0000";
layers = (
{
hints = (
{
horizontal = 1;
place = "{0, 32.26}";
type = Stem;
},
{
horizontal = 1;
place = "{373.87, 32.27}";
type = Stem;
},
{
horizontal = 1;
place = "{704.73, 32.27}";
type = Stem;
},
{
horizontal = 1;
place = "{958.55, 27.11}";
type = Stem;
},
{
place = "{452.72, 26.74}";
type = Stem;
}
);
layerId = "4A657952-F232-4636-873B-F2B6F2CFB0B2";
paths = (
{
closed = 1;
nodes = (
"554.64 0 LINE",
"560.32 32.26 LINE",
"137.2 32.26 LINE",
"197.43 373.87 LINE",
"564.08 373.87 LINE",
"569.76 406.14 LINE",
"203.12 406.14 LINE",
"255.77 704.73 LINE",
"678.94 704.73 LINE",
"684.64 737 LINE",
"227.73 737 LINE",
"97.78 0 LINE"
);
},
{
closed = 1;
nodes = (
"477.08 794.25 LINE",
"481.84 820.52 LINE",
"561.23 885.28 LINE",
"572.1 946.85 LINE",
"541.71 985.66 LINE",
"463.06 985.66 LINE",
"418.62 945.81 LINE",
"436.83 924.93 LINE",
"474.55 958.55 LINE",
"527.06 958.55 LINE",
"542.03 939.32 LINE",
"534.94 899.37 LINE",
"456.29 834.59 LINE",
"449.15 794.25 LINE"
);
}
);
width = 609;
}
);
note = uni1EBA;
rightKerningGroup = AE;
unicode = 1EBA;
},
{
glyphname = uni0206;
lastChange = "2019-09-04 12:29:29 +0000";
layers = (
{
hints = (
{
horizontal = 1;
place = "{0, 32.26}";
type = Stem;
},
{
horizontal = 1;
place = "{373.87, 32.27}";
type = Stem;
},
{
horizontal = 1;
place = "{704.73, 32.27}";
type = Stem;
},
{
horizontal = 1;
place = "{886.46, 27.23}";
type = Stem;
},
{
place = "{97.78, 586.86}";
type = Stem;
}
);
layerId = "4A657952-F232-4636-873B-F2B6F2CFB0B2";
paths = (
{
closed = 1;
nodes = (
"554.64 0 LINE",
"560.32 32.26 LINE",
"137.2 32.26 LINE",
"197.43 373.87 LINE",
"564.08 373.87 LINE",
"569.76 406.14 LINE",
"203.12 406.14 LINE",
"255.77 704.73 LINE",
"678.94 704.73 LINE",
"684.64 737 LINE",
"227.73 737 LINE",
"97.78 0 LINE"
);
},
{
closed = 1;
nodes = (
"376.47 794.25 LINE",
"386.89 852.91 LINE",
"426.29 886.46 LINE",
"537.07 886.46 LINE",
"564.75 852.91 LINE",
"554.33 794.25 LINE",
"581.93 794.25 LINE",
"593.46 858.91 LINE",
"548.18 913.69 LINE",
"418.33 913.69 LINE",
"361.48 865.3 LINE",
"348.87 794.25 LINE"
);
}
);
width = 609;
}
);
note = uni0206;
rightKerningGroup = AE;
unicode = 0206;
},
{
glyphname = Emacron;
lastChange = "2019-09-04 12:29:29 +0000";
layers = (
{
hints = (
{
horizontal = 1;
place = "{0, 32.26}";
type = Stem;
},
{
horizontal = 1;
place = "{373.87, 32.27}";
type = Stem;
},
{
horizontal = 1;
place = "{704.73, 32.27}";
type = Stem;
},
{
horizontal = 1;
place = "{794.25, 28.57}";
type = Stem;
},
{
place = "{97.78, 586.86}";
type = Stem;
}
);
layerId = "4A657952-F232-4636-873B-F2B6F2CFB0B2";
paths = (
{
closed = 1;
nodes = (
"554.64 0 LINE",
"560.32 32.26 LINE",
"137.2 32.26 LINE",
"197.43 373.87 LINE",
"564.08 373.87 LINE",
"569.76 406.14 LINE",
"203.12 406.14 LINE",
"255.77 704.73 LINE",
"678.94 704.73 LINE",
"684.64 737 LINE",
"227.73 737 LINE",
"97.78 0 LINE"
);
},
{
closed = 1;
nodes = (
"615.18 794.25 LINE",
"620.29 822.82 LINE",
"321.18 822.82 LINE",
"316.07 794.25 LINE"
);
}
);
width = 609;
}
);
note = Emacron;
rightKerningGroup = AE;
unicode = 0112;
},
{
glyphname = Eogonek;
lastChange = "2019-09-04 12:29:29 +0000";
layers = (
{
hints = (
{
horizontal = 1;
place = "{-142.29, 28.59}";
type = Stem;
},
{
horizontal = 1;
place = "{0, 32.26}";
type = Stem;
},
{
horizontal = 1;
place = "{373.87, 32.27}";
type = Stem;
},
{
horizontal = 1;
place = "{704.73, 32.27}";
type = Stem;
},
{
place = "{97.78, 586.86}";
type = Stem;
}
);
layerId = "4A657952-F232-4636-873B-F2B6F2CFB0B2";
paths = (
{
closed = 1;
nodes = (
"529.49 -142.29 LINE",
"534.53 -113.7 LINE",
"511.43 -113.7 LINE",
"486.17 -83.03 LINE",
"493.45 -42.17 LINE",
"554.63 0 LINE",
"560.31 32.26 LINE",
"137.19 32.26 LINE",
"197.42 373.87 LINE",
"564.07 373.87 LINE",
"569.75 406.14 LINE",
"203.11 406.14 LINE",
"255.76 704.73 LINE",
"678.94 704.73 LINE",
"684.64 737 LINE",
"227.73 737 LINE",
"97.78 0 LINE",
"511.49 0 LINE",
"467.37 -30.34 LINE",
"457 -89.91 LINE",
"500 -142.29 LINE"
);
}
);
width = 609;
}
);
note = Eogonek;
rightKerningGroup = AE;
unicode = 0118;
},
{
glyphname = uni1EBC;
lastChange = "2019-09-04 12:29:29 +0000";
layers = (
{
hints = (
{
horizontal = 1;
place = "{0, 32.26}";
type = Stem;
},
{
horizontal = 1;
place = "{373.87, 32.27}";
type = Stem;
},
{
horizontal = 1;
place = "{704.73, 32.27}";
type = Stem;
},
{
horizontal = 1;
place = "{794.25, 26.98}";
type = Stem;
},
{
horizontal = 1;
place = "{870.03, 26.98}";
type = Stem;
},
{
place = "{97.78, 586.86}";
type = Stem;
}
);
layerId = "4A657952-F232-4636-873B-F2B6F2CFB0B2";
paths = (
{
closed = 1;
nodes = (
"554.64 0 LINE",
"560.32 32.26 LINE",
"137.2 32.26 LINE",
"197.43 373.87 LINE",
"564.08 373.87 LINE",
"569.76 406.14 LINE",
"203.12 406.14 LINE",
"255.77 704.73 LINE",
"678.94 704.73 LINE",
"684.64 737 LINE",
"227.73 737 LINE",
"97.78 0 LINE"
);
},
{
closed = 1;
nodes = (
"568.46 794.25 LINE",
"624.36 843.16 LINE",
"634.62 896.64 LINE",
"612.83 896.64 LINE",
"603.09 857.48 LINE",
"557.58 821.23 LINE",
"520.26 821.23 LINE",
"457.74 897.01 LINE",
"384.26 897.01 LINE",
"328.23 847.61 LINE",
"317.9 794.61 LINE",
"339.82 794.61 LINE",
"349.66 833.65 LINE",
"395.16 870.03 LINE",
"443.72 870.03 LINE",
"506.14 794.25 LINE"
);
}
);
width = 609;
}
);
note = uni1EBC;
rightKerningGroup = AE;
unicode = 1EBC;
},
{
glyphname = F;
lastChange = "2019-09-04 12:29:29 +0000";
layers = (
{
hints = (
{
horizontal = 1;
place = "{357.75, 32.26}";
type = Stem;
},
{
horizontal = 1;
place = "{704.73, 32.27}";
type = Stem;
},
{
place = "{97.78, 575.86}";
type = Stem;
}
);
layerId = "4A657952-F232-4636-873B-F2B6F2CFB0B2";
paths = (
{
closed = 1;
nodes = (
"131.51 0 LINE",
"194.59 357.75 LINE",
"554.93 357.75 LINE",
"560.62 390.01 LINE",
"200.28 390.01 LINE",
"255.77 704.73 LINE",
"667.94 704.73 LINE",
"673.64 737 LINE",
"227.73 737 LINE",
"97.78 0 LINE"
);
}
);
width = 567;
}
);
note = F;
rightKerningGroup = F;
unicode = 0046;
},
{
glyphname = G;
lastChange = "2019-09-04 12:29:29 +0000";
layers = (
{
hints = (
{
horizontal = 1;
place = "{0, 31.77}";
type = Stem;
},
{
horizontal = 1;
place = "{326.08, 31.78}";
type = Stem;
},
{
horizontal = 1;
place = "{705.21, 31.78}";
type = Stem;
},
{
place = "{100.18, 612.43}";
type = Stem;
}
);
layerId = "4A657952-F232-4636-873B-F2B6F2CFB0B2";
paths = (
{
closed = 1;
nodes = (
"471 0 LINE",
"589.01 102.51 LINE",
"570.92 0 LINE",
"601.96 0 LINE",
"665.11 357.86 LINE",
"461.81 357.86 LINE",
"456.21 326.08 LINE",
"628.47 326.08 LINE",
"597.06 148.11 LINE",
"463.57 31.78 LINE",
"194.29 31.75 LINE",
"134.96 105.11 LINE",
"227.75 631.89 LINE",
"313.08 705.19 LINE",
"612.47 705.22 LINE",
"689.03 611.28 LINE",
"712.61 631.37 LINE",
"626.78 736.98 LINE",
"302.3 737 LINE",
"196.85 646.57 LINE",
"100.18 98.31 LINE",
"180.06 0 LINE"
);
}
);
width = 696;
}
);
leftKerningGroup = C;
note = G;
rightKerningGroup = G;
unicode = 0047;
},
{
glyphname = Gbreve;
lastChange = "2019-09-04 12:29:29 +0000";
layers = (
{
hints = (
{
horizontal = 1;
place = "{0, 31.77}";
type = Stem;
},
{
horizontal = 1;
place = "{326.08, 31.78}";
type = Stem;
},
{
horizontal = 1;
place = "{705.21, 31.78}";
type = Stem;
},
{
horizontal = 1;
place = "{794.25, 27.22}";
type = Stem;
},
{
place = "{100.18, 612.43}";
type = Stem;
}
);
layerId = "4A657952-F232-4636-873B-F2B6F2CFB0B2";
paths = (
{
closed = 1;
nodes = (
"471 0 LINE",
"589.01 102.51 LINE",
"570.92 0 LINE",
"601.96 0 LINE",
"665.11 357.86 LINE",
"461.81 357.86 LINE",
"456.21 326.08 LINE",
"628.47 326.08 LINE",
"597.06 148.11 LINE",
"463.57 31.78 LINE",
"194.29 31.75 LINE",
"134.96 105.11 LINE",
"227.75 631.89 LINE",
"313.08 705.19 LINE",
"612.47 705.22 LINE",
"689.03 611.28 LINE",
"712.61 631.37 LINE",
"626.78 736.98 LINE",
"302.3 737 LINE",
"196.85 646.57 LINE",
"100.18 98.31 LINE",
"180.06 0 LINE"
);
},
{
closed = 1;
nodes = (
"540.99 794.25 LINE",
"597.77 842.51 LINE",
"610.46 913.69 LINE",
"582.86 913.69 LINE",
"572.44 855.03 LINE",
"533.04 821.47 LINE",
"422.26 821.47 LINE",
"394.58 855.03 LINE",
"405 913.69 LINE",
"377.4 913.69 LINE",
"365.86 848.42 LINE",
"411.01 794.24 LINE"
);
}
);
width = 696;
}
);
leftKerningGroup = C;
note = Gbreve;
rightKerningGroup = G;
unicode = 011E;
},
{
glyphname = Gcaron;
lastChange = "2019-09-04 12:29:29 +0000";
layers = (
{
hints = (
{
horizontal = 1;
place = "{0, 31.77}";
type = Stem;
},
{
horizontal = 1;
place = "{326.08, 31.78}";
type = Stem;
},
{
horizontal = 1;
place = "{705.21, 31.78}";
type = Stem;
},
{
horizontal = 1;
place = "{794.24, 25.99}";
type = Stem;
},
{
place = "{100.18, 612.43}";
type = Stem;
}
);
layerId = "4A657952-F232-4636-873B-F2B6F2CFB0B2";
paths = (
{
closed = 1;
nodes = (
"471 0 LINE",
"589.01 102.51 LINE",
"570.92 0 LINE",
"601.96 0 LINE",
"665.11 357.86 LINE",
"461.81 357.86 LINE",
"456.21 326.08 LINE",
"628.47 326.08 LINE",
"597.06 148.11 LINE",
"463.57 31.78 LINE",
"194.29 31.75 LINE",
"134.96 105.11 LINE",
"227.75 631.89 LINE",
"313.08 705.19 LINE",
"612.47 705.22 LINE",
"689.03 611.28 LINE",
"712.61 631.37 LINE",
"626.78 736.98 LINE",
"302.3 737 LINE",
"196.85 646.57 LINE",
"100.18 98.31 LINE",
"180.06 0 LINE"
);
},
{
closed = 1;
nodes = (
"501.91 794.24 LINE",
"628.79 932.35 LINE",
"595.79 932.35 LINE",
"482.45 820.23 LINE",
"466.89 820.23 LINE",
"393.1 932.35 LINE",
"363.6 932.35 LINE",
"445.73 794.24 LINE"
);
}
);
width = 696;
}
);
leftKerningGroup = C;
note = Gcaron;
rightKerningGroup = G;
unicode = 01E6;
},
{
glyphname = Gcircumflex;
lastChange = "2019-09-04 12:29:29 +0000";
layers = (
{
hints = (
{
horizontal = 1;
place = "{0, 31.77}";
type = Stem;
},
{
horizontal = 1;
place = "{326.08, 31.78}";
type = Stem;
},
{
horizontal = 1;
place = "{705.21, 31.78}";
type = Stem;
},
{
horizontal = 1;
place = "{906.37, 25.99}";
type = Stem;
},
{
place = "{100.18, 612.43}";
type = Stem;
}
);
layerId = "4A657952-F232-4636-873B-F2B6F2CFB0B2";
paths = (
{
closed = 1;
nodes = (
"471 0 LINE",
"589.01 102.51 LINE",
"570.92 0 LINE",
"601.96 0 LINE",
"665.11 357.86 LINE",
"461.81 357.86 LINE",
"456.21 326.08 LINE",
"628.47 326.08 LINE",
"597.06 148.11 LINE",
"463.57 31.78 LINE",
"194.29 31.75 LINE",
"134.96 105.11 LINE",
"227.75 631.89 LINE",
"313.08 705.19 LINE",
"612.47 705.22 LINE",
"689.03 611.28 LINE",
"712.61 631.37 LINE",
"626.78 736.98 LINE",
"302.3 737 LINE",
"196.85 646.57 LINE",
"100.18 98.31 LINE",
"180.06 0 LINE"
);
},
{
closed = 1;
nodes = (
"374.11 794.25 LINE",
"487.46 906.37 LINE",
"503.01 906.37 LINE",
"576.81 794.25 LINE",
"606.3 794.25 LINE",
"524.18 932.36 LINE",
"468 932.36 LINE",
"341.12 794.25 LINE"
);
}
);
width = 696;
}
);
leftKerningGroup = C;
note = Gcircumflex;
rightKerningGroup = G;
unicode = 011C;
},
{
glyphname = uni0122;
lastChange = "2019-09-04 12:29:29 +0000";
layers = (
{
hints = (
{
horizontal = 1;
place = "{0, 31.77}";
type = Stem;
},
{
horizontal = 1;
place = "{326.08, 31.78}";
type = Stem;
},
{
horizontal = 1;
place = "{705.21, 31.78}";
type = Stem;
},
{
place = "{100.18, 612.43}";
type = Stem;
}
);
layerId = "4A657952-F232-4636-873B-F2B6F2CFB0B2";
paths = (
{
closed = 1;
nodes = (
"471 0 LINE",
"589.01 102.51 LINE",
"570.92 0 LINE",
"601.96 0 LINE",
"665.11 357.86 LINE",
"461.81 357.86 LINE",
"456.21 326.08 LINE",
"628.47 326.08 LINE",
"597.06 148.11 LINE",
"463.57 31.78 LINE",
"194.29 31.75 LINE",
"134.96 105.11 LINE",
"227.75 631.89 LINE",
"313.08 705.19 LINE",
"612.47 705.22 LINE",
"689.03 611.28 LINE",
"712.61 631.37 LINE",
"626.78 736.98 LINE",
"302.3 737 LINE",
"196.85 646.57 LINE",
"100.18 98.31 LINE",
"180.06 0 LINE"
);
},
{
closed = 1;
nodes = (
"261.61 -219.31 LINE",
"342.06 -57.25 LINE",
"302.78 -57.25 LINE",
"236.36 -219.31 LINE"
);
}
);
width = 696;
}
);
leftKerningGroup = C;
note = uni0122;
rightKerningGroup = G;
unicode = 0122;
},
{
glyphname = Gdotaccent;
lastChange = "2019-09-04 12:29:29 +0000";
layers = (
{
hints = (
{
horizontal = 1;
place = "{0, 31.77}";
type = Stem;
},
{
horizontal = 1;
place = "{326.08, 31.78}";
type = Stem;
},
{
horizontal = 1;
place = "{705.21, 31.78}";
type = Stem;
},
{
horizontal = 1;
place = "{794.25, 105.82}";
type = Stem;
},
{
place = "{100.18, 612.43}";
type = Stem;
}
);
layerId = "4A657952-F232-4636-873B-F2B6F2CFB0B2";
paths = (
{
closed = 1;
nodes = (
"471 0 LINE",
"589.01 102.51 LINE",
"570.92 0 LINE",
"601.96 0 LINE",
"665.11 357.86 LINE",
"461.81 357.86 LINE",
"456.21 326.08 LINE",
"628.47 326.08 LINE",
"597.06 148.11 LINE",
"463.57 31.78 LINE",
"194.29 31.75 LINE",
"134.96 105.11 LINE",
"227.75 631.89 LINE",
"313.08 705.19 LINE",
"612.47 705.22 LINE",
"689.03 611.28 LINE",
"712.61 631.37 LINE",
"626.78 736.98 LINE",
"302.3 737 LINE",
"196.85 646.57 LINE",
"100.18 98.31 LINE",
"180.06 0 LINE"
);
},
{
closed = 1;
nodes = (
"493.74 794.25 LINE",
"512.42 900.07 LINE",
"479.42 900.07 LINE",
"460.74 794.25 LINE"
);
}
);
width = 696;
}
);
leftKerningGroup = C;
note = Gdotaccent;
rightKerningGroup = G;
unicode = 0120;
},
{
glyphname = H;
lastChange = "2019-09-04 12:29:29 +0000";
layers = (
{
hints = (
{
horizontal = 1;
place = "{374.12, 31.78}";
type = Stem;
},
{
place = "{97.78, 633.86}";
type = Stem;
}
);
layerId = "4A657952-F232-4636-873B-F2B6F2CFB0B2";
paths = (
{
closed = 1;
nodes = (
"131.51 0 LINE",
"197.48 374.12 LINE",
"633.92 374.12 LINE",
"567.96 0 LINE",
"601.69 0 LINE",
"731.64 737 LINE",
"697.91 737 LINE",
"639.53 405.9 LINE",
"203.08 405.9 LINE",
"261.46 737 LINE",
"227.73 737 LINE",
"97.78 0 LINE"
);
}
);
width = 699;
}
);
leftKerningGroup = B;
note = H;
rightKerningGroup = H;
unicode = 0048;
},
{
glyphname = Hbar;
lastChange = "2019-09-04 12:29:29 +0000";
layers = (
{
hints = (
{
horizontal = 1;
place = "{374.12, 31.78}";
type = Stem;
},
{
horizontal = 1;
place = "{567.75, 30.55}";
type = Stem;
},
{
place = "{97.55, 684.96}";
type = Stem;
}
);
layerId = "4A657952-F232-4636-873B-F2B6F2CFB0B2";
paths = (
{
closed = 1;
nodes = (
"131.29 0 LINE",
"197.25 374.12 LINE",
"633.7 374.12 LINE",
"567.73 0 LINE",
"601.47 0 LINE",
"701.58 567.75 LINE",
"777.12 567.75 LINE",
"782.51 598.3 LINE",
"706.96 598.3 LINE",
"731.42 737 LINE",
"697.69 737 LINE",
"673.23 598.3 LINE",
"236.78 598.3 LINE",
"261.24 737 LINE",
"227.51 737 LINE",
"203.05 598.3 LINE",
"127.07 598.3 LINE",
"121.68 567.75 LINE",
"197.66 567.75 LINE",
"97.55 0 LINE"
);
},
{
closed = 1;
nodes = (
"231.4 567.75 LINE",
"667.84 567.75 LINE",
"639.31 405.9 LINE",
"202.86 405.9 LINE"
);
}
);
width = 699;
}
);
note = Hbar;
unicode = 0126;
},
{
glyphname = Hcircumflex;
lastChange = "2019-09-04 12:29:29 +0000";
layers = (
{
hints = (
{
horizontal = 1;
place = "{374.12, 31.78}";
type = Stem;
},
{
horizontal = 1;
place = "{906.37, 25.99}";
type = Stem;
},
{
place = "{97.78, 633.86}";
type = Stem;
}
);
layerId = "4A657952-F232-4636-873B-F2B6F2CFB0B2";
paths = (
{
closed = 1;
nodes = (
"131.51 0 LINE",
"197.48 374.12 LINE",
"633.92 374.12 LINE",
"567.96 0 LINE",
"601.69 0 LINE",
"731.64 737 LINE",
"697.91 737 LINE",
"639.53 405.9 LINE",
"203.08 405.9 LINE",
"261.46 737 LINE",
"227.73 737 LINE",
"97.78 0 LINE"
);
},
{
closed = 1;
nodes = (
"382.28 794.25 LINE",
"495.62 906.37 LINE",
"511.18 906.37 LINE",
"584.97 794.25 LINE",
"614.47 794.25 LINE",
"532.34 932.36 LINE",
"476.16 932.36 LINE",
"349.28 794.25 LINE"
);
}
);
width = 699;
}
);
leftKerningGroup = B;
note = Hcircumflex;
rightKerningGroup = H;
unicode = 0124;
},
{
glyphname = I;
lastChange = "2019-09-04 12:29:29 +0000";
layers = (
{
hints = (
{
horizontal = 1;
place = "{0, 32.26}";
type = Stem;
},
{
horizontal = 1;
place = "{704.73, 32.27}";
type = Stem;
},
{
place = "{64.44, 395.22}";
type = Stem;
}
);
layerId = "4A657952-F232-4636-873B-F2B6F2CFB0B2";
paths = (
{
closed = 1;
nodes = (
"329.66 0 LINE",
"335.34 32.26 LINE",
"219.73 32.26 LINE",
"338.3 704.73 LINE",
"453.97 704.73 LINE",
"459.66 737 LINE",
"194.44 737 LINE",
"188.75 704.73 LINE",
"304.57 704.73 LINE",
"185.99 32.26 LINE",
"70.12 32.26 LINE",
"64.44 0 LINE"
);
}
);
width = 394;
}
);
leftKerningGroup = B;
note = I;
rightKerningGroup = H;
unicode = 0049;
},
{
glyphname = Iacute;
lastChange = "2019-09-04 12:29:29 +0000";
layers = (
{
hints = (
{
horizontal = 1;
place = "{0, 32.26}";
type = Stem;
},
{
horizontal = 1;
place = "{704.73, 32.27}";
type = Stem;
},
{
horizontal = 1;
place = "{794.25, 140.22}";
type = Stem;
},
{
place = "{64.44, 418.02}";
type = Stem;
}
);
layerId = "4A657952-F232-4636-873B-F2B6F2CFB0B2";
paths = (
{
closed = 1;
nodes = (
"329.66 0 LINE",
"335.34 32.26 LINE",
"219.73 32.26 LINE",
"338.3 704.73 LINE",
"453.97 704.73 LINE",
"459.66 737 LINE",
"194.44 737 LINE",
"188.75 704.73 LINE",
"304.57 704.73 LINE",
"185.99 32.26 LINE",
"70.12 32.26 LINE",
"64.44 0 LINE"
);
},
{
closed = 1;
nodes = (
"354.83 794.25 LINE",
"482.46 934.47 LINE",
"432.93 934.47 LINE",
"321.55 794.25 LINE"
);
}
);
width = 394;
}
);
leftKerningGroup = B;
note = Iacute;
rightKerningGroup = H;
unicode = 00CD;
},
{
glyphname = Ibreve;
lastChange = "2019-09-04 12:29:29 +0000";
layers = (
{
hints = (
{
horizontal = 1;
place = "{0, 32.26}";
type = Stem;
},
{
horizontal = 1;
place = "{704.73, 32.27}";
type = Stem;
},
{
horizontal = 1;
place = "{794.25, 27.22}";
type = Stem;
},
{
place = "{64.44, 405.85}";
type = Stem;
}
);
layerId = "4A657952-F232-4636-873B-F2B6F2CFB0B2";
paths = (
{
closed = 1;
nodes = (
"329.66 0 LINE",
"335.34 32.26 LINE",
"219.73 32.26 LINE",
"338.3 704.73 LINE",
"453.97 704.73 LINE",
"459.66 737 LINE",
"194.44 737 LINE",
"188.75 704.73 LINE",
"304.57 704.73 LINE",
"185.99 32.26 LINE",
"70.12 32.26 LINE",
"64.44 0 LINE"
);
},
{
closed = 1;
nodes = (
"400.83 794.25 LINE",
"457.6 842.51 LINE",
"470.29 913.69 LINE",
"442.69 913.69 LINE",
"432.28 855.03 LINE",
"392.87 821.47 LINE",
"282.1 821.47 LINE",
"254.42 855.03 LINE",
"264.83 913.69 LINE",
"237.23 913.69 LINE",
"225.7 848.42 LINE",
"270.85 794.24 LINE"
);
}
);
width = 394;
}
);
leftKerningGroup = B;
note = Ibreve;
rightKerningGroup = H;
unicode = 012C;
},
{
glyphname = Icircumflex;
lastChange = "2019-09-04 12:29:29 +0000";
layers = (
{
hints = (
{
horizontal = 1;
place = "{0, 32.26}";
type = Stem;
},
{
horizontal = 1;
place = "{704.73, 32.27}";
type = Stem;
},
{
horizontal = 1;
place = "{906.37, 25.99}";
type = Stem;
},
{
place = "{64.44, 401.69}";
type = Stem;
}
);
layerId = "4A657952-F232-4636-873B-F2B6F2CFB0B2";
paths = (
{
closed = 1;
nodes = (
"329.66 0 LINE",
"335.34 32.26 LINE",
"219.73 32.26 LINE",
"338.3 704.73 LINE",
"453.97 704.73 LINE",
"459.66 737 LINE",
"194.44 737 LINE",
"188.75 704.73 LINE",
"304.57 704.73 LINE",
"185.99 32.26 LINE",
"70.12 32.26 LINE",
"64.44 0 LINE"
);
},
{
closed = 1;
nodes = (
"233.94 794.25 LINE",
"347.29 906.37 LINE",
"362.85 906.37 LINE",
"436.64 794.25 LINE",
"466.13 794.25 LINE",
"384.01 932.36 LINE",
"327.83 932.36 LINE",
"200.95 794.25 LINE"
);
}
);
width = 394;
}
);
leftKerningGroup = B;
note = Icircumflex;
rightKerningGroup = H;
unicode = 00CE;
},
{
glyphname = uni0208;
lastChange = "2019-09-04 12:29:29 +0000";
layers = (
{
hints = (
{
horizontal = 1;
place = "{0, 32.26}";
type = Stem;
},
{
horizontal = 1;
place = "{704.73, 32.27}";
type = Stem;
},
{
horizontal = 1;
place = "{794.25, 140.22}";
type = Stem;
},
{
place = "{64.44, 395.22}";
type = Stem;
}
);
layerId = "4A657952-F232-4636-873B-F2B6F2CFB0B2";
paths = (
{
closed = 1;
nodes = (
"329.66 0 LINE",
"335.34 32.26 LINE",
"219.73 32.26 LINE",
"338.3 704.73 LINE",
"453.97 704.73 LINE",
"459.66 737 LINE",
"194.44 737 LINE",
"188.75 704.73 LINE",
"304.57 704.73 LINE",
"185.99 32.26 LINE",
"70.12 32.26 LINE",
"64.44 0 LINE"
);
},
{
closed = 1;
nodes = (
"276.93 794.25 LINE",
"215.09 934.47 LINE",
"171.16 934.47 LINE",
"248.07 794.25 LINE"
);
},
{
closed = 1;
nodes = (
"396.3 794.25 LINE",
"334.46 934.47 LINE",
"290.53 934.47 LINE",
"367.44 794.25 LINE"
);
}
);
width = 394;
}
);
leftKerningGroup = B;
note = uni0208;
rightKerningGroup = H;
unicode = 0208;
},
{
glyphname = Idieresis;
lastChange = "2019-09-04 12:29:29 +0000";
layers = (
{
hints = (
{
horizontal = 1;
place = "{0, 32.26}";
type = Stem;
},
{
horizontal = 1;
place = "{704.73, 32.27}";
type = Stem;
},
{
horizontal = 1;
place = "{794.25, 105.94}";
type = Stem;
},
{
place = "{64.44, 438.98}";
type = Stem;
}
);
layerId = "4A657952-F232-4636-873B-F2B6F2CFB0B2";
paths = (
{
closed = 1;
nodes = (
"329.66 0 LINE",
"335.34 32.26 LINE",
"219.73 32.26 LINE",
"338.3 704.73 LINE",
"453.97 704.73 LINE",
"459.66 737 LINE",
"194.44 737 LINE",
"188.75 704.73 LINE",
"304.57 704.73 LINE",
"185.99 32.26 LINE",
"70.12 32.26 LINE",
"64.44 0 LINE"
);
},
{
closed = 1;
nodes = (
"218.62 794.25 LINE",
"237.3 900.19 LINE",
"204.3 900.19 LINE",
"185.62 794.25 LINE"
);
},
{
closed = 1;
nodes = (
"484.73 794.25 LINE",
"503.42 900.19 LINE",
"470.42 900.19 LINE",
"451.73 794.25 LINE"
);
}
);
width = 394;
}
);
leftKerningGroup = B;
note = Idieresis;
rightKerningGroup = H;
unicode = 00CF;
},
{
glyphname = Idotaccent;
lastChange = "2019-09-04 12:29:29 +0000";
layers = (
{
hints = (
{
horizontal = 1;
place = "{0, 32.26}";
type = Stem;
},
{
horizontal = 1;
place = "{704.73, 32.27}";
type = Stem;
},
{
horizontal = 1;
place = "{794.25, 105.82}";
type = Stem;
},
{
place = "{64.44, 395.22}";
type = Stem;
}
);
layerId = "4A657952-F232-4636-873B-F2B6F2CFB0B2";
paths = (
{
closed = 1;
nodes = (
"329.66 0 LINE",
"335.34 32.26 LINE",
"219.73 32.26 LINE",
"338.3 704.73 LINE",
"453.97 704.73 LINE",
"459.66 737 LINE",
"194.44 737 LINE",
"188.75 704.73 LINE",
"304.57 704.73 LINE",
"185.99 32.26 LINE",
"70.12 32.26 LINE",
"64.44 0 LINE"
);
},
{
closed = 1;
nodes = (
"353.57 794.25 LINE",
"372.25 900.07 LINE",
"339.25 900.07 LINE",
"320.57 794.25 LINE"
);
}
);
width = 394;
}
);
leftKerningGroup = B;
note = Idotaccent;
rightKerningGroup = H;
unicode = 0130;
},
{
glyphname = uni1ECA;
lastChange = "2019-09-04 12:29:29 +0000";
layers = (
{
hints = (
{
horizontal = 1;
place = "{-163.07, 105.82}";
type = Stem;
},
{
horizontal = 1;
place = "{0, 32.26}";
type = Stem;
},
{
horizontal = 1;
place = "{704.73, 32.27}";
type = Stem;
},
{
place = "{64.44, 395.22}";
type = Stem;
}
);
layerId = "4A657952-F232-4636-873B-F2B6F2CFB0B2";
paths = (
{
closed = 1;
nodes = (
"329.66 0 LINE",
"335.34 32.26 LINE",
"219.73 32.26 LINE",
"338.3 704.73 LINE",
"453.97 704.73 LINE",
"459.66 737 LINE",
"194.44 737 LINE",
"188.75 704.73 LINE",
"304.57 704.73 LINE",
"185.99 32.26 LINE",
"70.12 32.26 LINE",
"64.44 0 LINE"
);
},
{
closed = 1;
nodes = (
"184.74 -163.07 LINE",
"203.42 -57.25 LINE",
"170.42 -57.25 LINE",
"151.74 -163.07 LINE"
);
}
);
width = 394;
}
);
leftKerningGroup = B;
note = uni1ECA;
rightKerningGroup = H;
unicode = 1ECA;
},
{
glyphname = Igrave;
lastChange = "2019-09-04 12:29:29 +0000";
layers = (
{
hints = (
{
horizontal = 1;
place = "{0, 32.26}";
type = Stem;
},
{
horizontal = 1;
place = "{704.73, 32.27}";
type = Stem;
},
{
horizontal = 1;
place = "{794.25, 140.22}";
type = Stem;
},
{
place = "{64.44, 395.22}";
type = Stem;
}
);
layerId = "4A657952-F232-4636-873B-F2B6F2CFB0B2";
paths = (
{
closed = 1;
nodes = (
"329.66 0 LINE",
"335.34 32.26 LINE",
"219.73 32.26 LINE",
"338.3 704.73 LINE",
"453.97 704.73 LINE",
"459.66 737 LINE",
"194.44 737 LINE",
"188.75 704.73 LINE",
"304.57 704.73 LINE",
"185.99 32.26 LINE",
"70.12 32.26 LINE",
"64.44 0 LINE"
);
},
{
closed = 1;
nodes = (
"336.12 794.25 LINE",
"274.27 934.47 LINE",
"230.34 934.47 LINE",
"307.26 794.25 LINE"
);
}
);
width = 394;
}
);
leftKerningGroup = B;
note = Igrave;
rightKerningGroup = H;
unicode = 00CC;
},
{
glyphname = uni1EC8;
lastChange = "2019-09-04 12:29:29 +0000";
layers = (
{
hints = (
{
horizontal = 1;
place = "{0, 32.26}";
type = Stem;
},
{
horizontal = 1;
place = "{704.73, 32.27}";
type = Stem;
},
{
horizontal = 1;
place = "{958.55, 27.11}";
type = Stem;
},
{
place = "{324.16, 26.74}";
type = Stem;
}
);
layerId = "4A657952-F232-4636-873B-F2B6F2CFB0B2";
paths = (
{
closed = 1;
nodes = (
"329.66 0 LINE",
"335.34 32.26 LINE",
"219.73 32.26 LINE",
"338.3 704.73 LINE",
"453.97 704.73 LINE",
"459.66 737 LINE",
"194.44 737 LINE",
"188.75 704.73 LINE",
"304.57 704.73 LINE",
"185.99 32.26 LINE",
"70.12 32.26 LINE",
"64.44 0 LINE"
);
},
{
closed = 1;
nodes = (
"348.53 794.25 LINE",
"353.28 820.52 LINE",
"432.68 885.28 LINE",
"443.55 946.85 LINE",
"413.16 985.66 LINE",
"334.51 985.66 LINE",
"290.06 945.81 LINE",
"308.28 924.93 LINE",
"346 958.55 LINE",
"398.51 958.55 LINE",
"413.47 939.32 LINE",
"406.39 899.37 LINE",
"327.73 834.59 LINE",
"320.6 794.25 LINE"
);
}
);
width = 394;
}
);
leftKerningGroup = B;
note = uni1EC8;
rightKerningGroup = H;
unicode = 1EC8;
},
{
glyphname = uni020A;
lastChange = "2019-09-04 12:29:29 +0000";
layers = (
{
hints = (
{
horizontal = 1;
place = "{0, 32.26}";
type = Stem;
},
{
horizontal = 1;
place = "{704.73, 32.27}";
type = Stem;
},
{
horizontal = 1;
place = "{886.46, 27.23}";
type = Stem;
},
{
place = "{64.44, 400.46}";
type = Stem;
}
);
layerId = "4A657952-F232-4636-873B-F2B6F2CFB0B2";
paths = (
{
closed = 1;
nodes = (
"329.66 0 LINE",
"335.34 32.26 LINE",
"219.73 32.26 LINE",
"338.3 704.73 LINE",
"453.97 704.73 LINE",
"459.66 737 LINE",
"194.44 737 LINE",
"188.75 704.73 LINE",
"304.57 704.73 LINE",
"185.99 32.26 LINE",
"70.12 32.26 LINE",
"64.44 0 LINE"
);
},
{
closed = 1;
nodes = (
"247.92 794.25 LINE",
"258.33 852.91 LINE",
"297.73 886.46 LINE",
"408.51 886.46 LINE",
"436.19 852.91 LINE",
"425.78 794.25 LINE",
"453.37 794.25 LINE",
"464.9 858.91 LINE",
"419.62 913.69 LINE",
"289.78 913.69 LINE",
"232.93 865.3 LINE",
"220.32 794.25 LINE"
);
}
);
width = 394;
}
);
leftKerningGroup = B;
note = uni020A;
rightKerningGroup = H;
unicode = 020A;
},
{
glyphname = Imacron;
lastChange = "2019-09-04 12:29:29 +0000";
layers = (
{
hints = (
{
horizontal = 1;
place = "{0, 32.26}";
type = Stem;
},
{
horizontal = 1;
place = "{704.73, 32.27}";
type = Stem;
},
{
horizontal = 1;
place = "{794.25, 28.57}";
type = Stem;
},
{
place = "{64.44, 427.29}";
type = Stem;
}
);
layerId = "4A657952-F232-4636-873B-F2B6F2CFB0B2";
paths = (
{
closed = 1;
nodes = (
"329.66 0 LINE",
"335.34 32.26 LINE",
"219.73 32.26 LINE",
"338.3 704.73 LINE",
"453.97 704.73 LINE",
"459.66 737 LINE",
"194.44 737 LINE",
"188.75 704.73 LINE",
"304.57 704.73 LINE",
"185.99 32.26 LINE",
"70.12 32.26 LINE",
"64.44 0 LINE"
);
},
{
closed = 1;
nodes = (
"486.62 794.25 LINE",
"491.73 822.82 LINE",
"192.62 822.82 LINE",
"187.51 794.25 LINE"
);
}
);
width = 394;
}
);
leftKerningGroup = B;
note = Imacron;
rightKerningGroup = H;
unicode = 012A;
},
{
glyphname = Iogonek;
lastChange = "2019-09-04 12:29:29 +0000";
layers = (
{
hints = (
{
horizontal = 1;
place = "{-142.29, 28.59}";
type = Stem;
},
{
horizontal = 1;
place = "{0, 32.26}";
type = Stem;
},
{
horizontal = 1;
place = "{704.73, 32.27}";
type = Stem;
},
{
place = "{64.44, 395.22}";
type = Stem;
}
);
layerId = "4A657952-F232-4636-873B-F2B6F2CFB0B2";
paths = (
{
closed = 1;
nodes = (
"304.53 -142.29 LINE",
"309.57 -113.7 LINE",
"286.47 -113.7 LINE",
"261.21 -83.03 LINE",
"268.48 -42.17 LINE",
"329.66 0 LINE",
"335.34 32.26 LINE",
"219.73 32.26 LINE",
"338.3 704.73 LINE",
"453.97 704.73 LINE",
"459.66 737 LINE",
"194.44 737 LINE",
"188.75 704.73 LINE",
"304.57 704.73 LINE",
"185.99 32.26 LINE",
"70.12 32.26 LINE",
"64.44 0 LINE",
"286.52 0 LINE",
"242.39 -30.34 LINE",
"232.02 -89.91 LINE",
"275.04 -142.29 LINE"
);
}
);
width = 394;
}
);
leftKerningGroup = B;
note = Iogonek;
rightKerningGroup = H;
unicode = 012E;
},
{
glyphname = Itilde;
lastChange = "2019-09-04 12:29:29 +0000";
layers = (
{
hints = (
{
horizontal = 1;
place = "{0, 32.26}";
type = Stem;
},
{
horizontal = 1;
place = "{704.73, 32.27}";
type = Stem;
},
{
horizontal = 1;
place = "{794.25, 26.98}";
type = Stem;
},
{
horizontal = 1;
place = "{870.03, 26.98}";
type = Stem;
},
{
place = "{64.44, 441.62}";
type = Stem;
}
);
layerId = "4A657952-F232-4636-873B-F2B6F2CFB0B2";
paths = (
{
closed = 1;
nodes = (
"329.66 0 LINE",
"335.34 32.26 LINE",
"219.73 32.26 LINE",
"338.3 704.73 LINE",
"453.97 704.73 LINE",
"459.66 737 LINE",
"194.44 737 LINE",
"188.75 704.73 LINE",
"304.57 704.73 LINE",
"185.99 32.26 LINE",
"70.12 32.26 LINE",
"64.44 0 LINE"
);
},
{
closed = 1;
nodes = (
"439.91 794.25 LINE",
"495.8 843.16 LINE",
"506.06 896.64 LINE",
"484.28 896.64 LINE",
"474.54 857.48 LINE",
"429.03 821.23 LINE",
"391.7 821.23 LINE",
"329.19 897.01 LINE",
"255.71 897.01 LINE",
"199.67 847.61 LINE",
"189.34 794.61 LINE",
"211.26 794.61 LINE",
"221.11 833.65 LINE",
"266.61 870.03 LINE",
"315.16 870.03 LINE",
"377.59 794.25 LINE"
);
}
);
width = 394;
}
);
leftKerningGroup = B;
note = Itilde;
rightKerningGroup = H;
unicode = 0128;
},
{
glyphname = J;
lastChange = "2019-09-04 12:29:29 +0000";
layers = (
{
hints = (
{
horizontal = 1;
place = "{0, 31.78}";
type = Stem;
},
{
place = "{82.45, 506.97}";
type = Stem;
}
);
layerId = "4A657952-F232-4636-873B-F2B6F2CFB0B2";
paths = (
{
closed = 1;
nodes = (
"475.32 90.34 LINE",
"589.42 737 LINE",
"555.94 737 LINE",
"444.54 105.11 LINE",
"359.2 31.79 LINE",
"176.56 31.75 LINE",
"117.23 105.11 LINE",
"144.8 261.94 LINE",
"111.31 261.94 LINE",
"82.45 98.31 LINE",
"162.33 0 LINE",
"369.99 -0.02 LINE"
);
}
);
width = 559;
}
);
leftKerningGroup = J;
note = J;
unicode = 004A;
},
{
glyphname = Jcircumflex;
lastChange = "2019-09-04 12:29:29 +0000";
layers = (
{
hints = (
{
horizontal = 1;
place = "{0, 31.78}";
type = Stem;
},
{
horizontal = 1;
place = "{906.37, 25.99}";
type = Stem;
},
{
place = "{82.45, 629.03}";
type = Stem;
}
);
layerId = "4A657952-F232-4636-873B-F2B6F2CFB0B2";
paths = (
{
closed = 1;
nodes = (
"475.32 90.34 LINE",
"589.42 737 LINE",
"555.94 737 LINE",
"444.54 105.11 LINE",
"359.2 31.79 LINE",
"176.56 31.75 LINE",
"117.23 105.11 LINE",
"144.8 261.94 LINE",
"111.31 261.94 LINE",
"82.45 98.31 LINE",
"162.33 0 LINE",
"369.99 -0.02 LINE"
);
},
{
closed = 1;
nodes = (
"479.29 794.25 LINE",
"592.64 906.37 LINE",
"608.2 906.37 LINE",
"681.99 794.25 LINE",
"711.48 794.25 LINE",
"629.36 932.36 LINE",
"573.18 932.36 LINE",
"446.3 794.25 LINE"
);
}
);
width = 559;
}
);
note = Jcircumflex;
unicode = 0134;
},
{
glyphname = K;
lastChange = "2019-09-30 12:24:51 +0000";
layers = (
{
hints = (
{
horizontal = 1;
place = "{0, 737}";
type = Stem;
},
{
place = "{97.78, 600.28}";
type = Stem;
}
);
layerId = "4A657952-F232-4636-873B-F2B6F2CFB0B2";
paths = (
{
closed = 1;
nodes = (
"131.51 0 LINE",
"175.31 248.43 LINE",
"331.31 394.23 LINE",
"543.36 0 LINE",
"579.02 0 LINE",
"355.6 416.94 LINE",
"698.06 737 LINE",
"653.62 737 LINE",
"184.53 300.571 LINE",
"261.46 737 LINE",
"227.73 737 LINE",
"97.78 0 LINE"
);
}
);
width = 616;
}
);
leftKerningGroup = B;
note = K;
rightKerningGroup = K;
unicode = 004B;
},
{
glyphname = uni0136;
lastChange = "2019-09-30 12:24:58 +0000";
layers = (
{
hints = (
{
horizontal = 1;
place = "{-219.31, 956.31}";
type = Stem;
},
{
place = "{97.78, 600.28}";
type = Stem;
}
);
layerId = "4A657952-F232-4636-873B-F2B6F2CFB0B2";
paths = (
{
closed = 1;
nodes = (
"268.65 -219.31 LINE",
"349.11 -57.25 LINE",
"309.82 -57.25 LINE",
"243.41 -219.31 LINE"
);
},
{
closed = 1;
nodes = (
"131.51 0 LINE",
"175.31 248.43 LINE",
"331.31 394.23 LINE",
"543.36 0 LINE",
"579.02 0 LINE",
"355.6 416.94 LINE",
"698.06 737 LINE",
"653.62 737 LINE",
"184.53 300.571 LINE",
"261.46 737 LINE",
"227.73 737 LINE",
"97.78 0 LINE"
);
}
);
width = 616;
}
);
leftKerningGroup = B;
note = uni0136;
rightKerningGroup = K;
unicode = 0136;
},
{
glyphname = L;
lastChange = "2019-09-04 12:29:29 +0000";
layers = (
{
hints = (
{
horizontal = 1;
place = "{0, 32.26}";
type = Stem;
},
{
place = "{97.78, 436.54}";
type = Stem;
}
);
layerId = "4A657952-F232-4636-873B-F2B6F2CFB0B2";
paths = (
{
closed = 1;
nodes = (
"528.64 0 LINE",
"534.32 32.26 LINE",
"137.2 32.26 LINE",
"261.46 737 LINE",
"227.73 737 LINE",
"97.78 0 LINE"
);
}
);
width = 539;
}
);
leftKerningGroup = B;
note = L;
rightKerningGroup = L;
unicode = 004C;
},
{
glyphname = uni01C7;
lastChange = "2019-09-04 12:29:29 +0000";
layers = (
{
hints = (
{
horizontal = 1;
place = "{0, 32.26}";
type = Stem;
},
{
place = "{97.78, 1049.01}";
type = Stem;
}
);
layerId = "4A657952-F232-4636-873B-F2B6F2CFB0B2";
paths = (
{
closed = 1;
nodes = (
"1032.68 90.34 LINE",
"1146.79 737 LINE",
"1113.3 737 LINE",
"1001.9 105.11 LINE",
"916.56 31.79 LINE",
"733.92 31.75 LINE",
"674.59 105.11 LINE",
"702.16 261.94 LINE",
"668.67 261.94 LINE",
"639.81 98.31 LINE",
"719.69 0 LINE",
"927.35 -0.02 LINE"
);
},
{
closed = 1;
nodes = (
"528.64 0 LINE",
"534.32 32.26 LINE",
"137.2 32.26 LINE",
"261.46 737 LINE",
"227.73 737 LINE",
"97.78 0 LINE"
);
}
);
width = 1116;
}
);
note = uni01C7;
unicode = 01C7;
},
{
glyphname = Lacute;
lastChange = "2019-09-04 12:29:29 +0000";
layers = (
{
hints = (
{
horizontal = 1;
place = "{0, 32.26}";
type = Stem;
},
{
horizontal = 1;
place = "{794.25, 140.22}";
type = Stem;
},
{
place = "{97.78, 436.54}";
type = Stem;
}
);
layerId = "4A657952-F232-4636-873B-F2B6F2CFB0B2";
paths = (
{
closed = 1;
nodes = (
"528.64 0 LINE",
"534.32 32.26 LINE",
"137.2 32.26 LINE",
"261.46 737 LINE",
"227.73 737 LINE",
"97.78 0 LINE"
);
},
{
closed = 1;
nodes = (
"272.27 794.25 LINE",
"399.91 934.47 LINE",
"350.37 934.47 LINE",
"239 794.25 LINE"
);
}
);
width = 539;
}
);
leftKerningGroup = B;
note = Lacute;
rightKerningGroup = L;
unicode = 0139;
},
{
glyphname = Lcaron;
lastChange = "2019-09-04 12:29:29 +0000";
layers = (
{
hints = (
{
horizontal = 1;
place = "{0, 32.26}";
type = Stem;
},
{
horizontal = 1;
place = "{574.94, 162.06}";
type = Stem;
},
{
place = "{97.78, 436.54}";
type = Stem;
}
);
layerId = "4A657952-F232-4636-873B-F2B6F2CFB0B2";
paths = (
{
closed = 1;
nodes = (
"528.64 0 LINE",
"534.32 32.26 LINE",
"137.2 32.26 LINE",
"261.46 737 LINE",
"227.73 737 LINE",
"97.78 0 LINE"
);
},
{
closed = 1;
nodes = (
"435.08 574.94 LINE",
"515.53 737 LINE",
"476.25 737 LINE",
"409.83 574.94 LINE"
);
}
);
width = 538;
}
);
leftKerningGroup = B;
note = Lcaron;
rightKerningGroup = L;
unicode = 013D;
},
{
glyphname = uni013B;
lastChange = "2019-09-04 12:29:29 +0000";
layers = (
{
hints = (
{
horizontal = 1;
place = "{0, 32.26}";
type = Stem;
},
{
place = "{97.78, 436.54}";
type = Stem;
}
);
layerId = "4A657952-F232-4636-873B-F2B6F2CFB0B2";
paths = (
{
closed = 1;
nodes = (
"528.64 0 LINE",
"534.32 32.26 LINE",
"137.2 32.26 LINE",
"261.46 737 LINE",
"227.73 737 LINE",
"97.78 0 LINE"
);
},
{
closed = 1;
nodes = (
"243.38 -219.31 LINE",
"323.84 -57.25 LINE",
"284.55 -57.25 LINE",
"218.14 -219.31 LINE"
);
}
);
width = 538;
}
);
leftKerningGroup = B;
note = uni013B;
rightKerningGroup = L;
unicode = 013B;
},
{
glyphname = Ldot;
lastChange = "2019-09-04 12:29:29 +0000";
layers = (
{
hints = (
{
horizontal = 1;
place = "{0, 32.26}";
type = Stem;
},
{
horizontal = 1;
place = "{331.12, 105.82}";
type = Stem;
},
{
place = "{97.78, 436.54}";
type = Stem;
}
);
layerId = "4A657952-F232-4636-873B-F2B6F2CFB0B2";
paths = (
{
closed = 1;
nodes = (
"528.64 0 LINE",
"534.32 32.26 LINE",
"137.2 32.26 LINE",
"261.46 737 LINE",
"227.73 737 LINE",
"97.78 0 LINE"
);
},
{
closed = 1;
nodes = (
"420.5 331.12 LINE",
"439.16 436.94 LINE",
"406.16 436.94 LINE",
"387.5 331.12 LINE"
);
}
);
width = 539;
}
);
leftKerningGroup = B;
note = Ldot;
rightKerningGroup = L;
unicode = 013F;
},
{
glyphname = uni01C8;
lastChange = "2019-09-04 12:29:29 +0000";
layers = (
{
hints = (
{
horizontal = 1;
place = "{-187, 30.55}";
type = Stem;
},
{
horizontal = 1;
place = "{0, 32.26}";
type = Stem;
},
{
horizontal = 1;
place = "{579.75, 105.82}";
type = Stem;
},
{
place = "{97.78, 704.7}";
type = Stem;
}
);
layerId = "4A657952-F232-4636-873B-F2B6F2CFB0B2";
paths = (
{
closed = 1;
nodes = (
"528.64 0 LINE",
"534.32 32.26 LINE",
"137.2 32.26 LINE",
"261.46 737 LINE",
"227.73 737 LINE",
"97.78 0 LINE"
);
},
{
closed = 1;
nodes = (
"574.87 -187 LINE",
"661.84 -112.56 LINE",
"773.81 522.5 LINE",
"740.81 522.5 LINE",
"631.48 -97.91 LINE",
"563.66 -156.45 LINE",
"456.69 -156.45 LINE",
"451.3 -187 LINE"
);
},
{
closed = 1;
nodes = (
"783.8 579.75 LINE",
"802.48 685.57 LINE",
"769.48 685.57 LINE",
"750.8 579.75 LINE"
);
}
);
width = 774;
}
);
leftKerningGroup = B;
note = uni01C8;
unicode = 01C8;
},
{
glyphname = Lslash;
lastChange = "2019-09-04 12:29:29 +0000";
layers = (
{
hints = (
{
horizontal = 1;
place = "{0, 32.26}";
type = Stem;
},
{
place = "{76.59, 457.73}";
type = Stem;
}
);
layerId = "4A657952-F232-4636-873B-F2B6F2CFB0B2";
paths = (
{
closed = 1;
nodes = (
"528.64 0 LINE",
"534.32 32.26 LINE",
"137.2 32.26 LINE",
"196.4 368.03 LINE",
"413.14 456.15 LINE",
"419.59 492.77 LINE",
"202.86 404.64 LINE",
"261.46 737 LINE",
"227.73 737 LINE",
"166.52 389.87 LINE",
"83.05 355.93 LINE",
"76.59 319.32 LINE",
"160.06 353.25 LINE",
"97.78 0 LINE"
);
}
);
width = 539;
}
);
leftKerningGroup = B;
note = Lslash;
rightKerningGroup = L;
unicode = 0141;
},
{
glyphname = M;
lastChange = "2019-09-04 12:29:29 +0000";
layers = (
{
hints = (
{
horizontal = 1;
place = "{692.75, 44.25}";
type = Stem;
},
{
place = "{97.78, 801}";
type = Stem;
}
);
layerId = "4A657952-F232-4636-873B-F2B6F2CFB0B2";
paths = (
{
closed = 1;
nodes = (
"131.51 0 LINE",
"253.66 692.75 LINE",
"271.12 692.75 LINE",
"423.37 0 LINE",
"442.98 0 LINE",
"839.62 692.75 LINE",
"857.24 692.75 LINE",
"735.09 0 LINE",
"768.83 0 LINE",
"898.78 737 LINE",
"830.21 737 LINE",
"441.28 57.14 LINE",
"292.48 737 LINE",
"227.73 737 LINE",
"97.78 0 LINE"
);
}
);
width = 866;
}
);
note = M;
unicode = 004D;
},
{
glyphname = N;
lastChange = "2019-09-04 12:29:29 +0000";
layers = (
{
hints = (
{
horizontal = 1;
place = "{0, 42.93}";
type = Stem;
},
{
horizontal = 1;
place = "{692.75, 44.25}";
type = Stem;
},
{
place = "{97.78, 617.81}";
type = Stem;
}
);
layerId = "4A657952-F232-4636-873B-F2B6F2CFB0B2";
paths = (
{
closed = 1;
nodes = (
"131.51 0 LINE",
"253.66 692.75 LINE",
"273.69 692.75 LINE",
"524.68 0 LINE",
"585.63 0 LINE",
"715.59 737 LINE",
"681.85 737 LINE",
"559.53 43.28 LINE",
"541.86 42.57 LINE",
"290.01 737 LINE",
"227.73 737 LINE",
"97.78 0 LINE"
);
}
);
width = 683;
}
);
leftKerningGroup = B;
note = N;
rightKerningGroup = H;
unicode = 004E;
},
{
glyphname = uni01CA;
lastChange = "2019-09-04 12:29:29 +0000";
layers = (
{
hints = (
{
horizontal = 1;
place = "{0, 42.93}";
type = Stem;
},
{
horizontal = 1;
place = "{692.75, 44.25}";
type = Stem;
},
{
place = "{97.78, 1199.41}";
type = Stem;
},
{
horizontal = 1;
place = "{0, 31.78}";
type = Stem;
}
);
layerId = "4A657952-F232-4636-873B-F2B6F2CFB0B2";
paths = (
{
closed = 1;
nodes = (
"131.51 0 LINE",
"253.66 692.75 LINE",
"273.69 692.75 LINE",
"524.68 0 LINE",
"585.63 0 LINE",
"715.59 737 LINE",
"681.85 737 LINE",
"559.53 43.28 LINE",
"541.86 42.57 LINE",
"290.01 737 LINE",
"227.73 737 LINE",
"97.78 0 LINE"
);
},
{
closed = 1;
nodes = (
"1183.09 90.34 LINE",
"1297.19 737 LINE",
"1263.7 737 LINE",
"1152.3 105.11 LINE",
"1066.97 31.79 LINE",
"884.33 31.75 LINE",
"824.99 105.11 LINE",
"852.56 261.94 LINE",
"819.08 261.94 LINE",
"790.22 98.31 LINE",
"870.1 0 LINE",
"1077.75 -0.02 LINE"
);
}
);
width = 1266;
}
);
note = uni01CA;
unicode = 01CA;
},
{
glyphname = Nacute;
lastChange = "2019-09-04 12:29:29 +0000";
layers = (
{
hints = (
{
horizontal = 1;
place = "{0, 42.93}";
type = Stem;
},
{
horizontal = 1;
place = "{692.75, 44.25}";
type = Stem;
},
{
horizontal = 1;
place = "{794.25, 140.22}";
type = Stem;
},
{
place = "{97.78, 617.81}";
type = Stem;
}
);
layerId = "4A657952-F232-4636-873B-F2B6F2CFB0B2";
paths = (
{
closed = 1;
nodes = (
"131.51 0 LINE",
"253.66 692.75 LINE",
"273.69 692.75 LINE",
"524.68 0 LINE",
"585.63 0 LINE",
"715.59 737 LINE",
"681.85 737 LINE",
"559.53 43.28 LINE",
"541.86 42.57 LINE",
"290.01 737 LINE",
"227.73 737 LINE",
"97.78 0 LINE"
);
},
{
closed = 1;
nodes = (
"499.66 794.25 LINE",
"627.3 934.47 LINE",
"577.76 934.47 LINE",
"466.39 794.25 LINE"
);
}
);
width = 683;
}
);
note = Nacute;
unicode = 0143;
},
{
glyphname = Ncaron;
lastChange = "2019-09-04 12:29:29 +0000";
layers = (
{
hints = (
{
horizontal = 1;
place = "{0, 42.93}";
type = Stem;
},
{
horizontal = 1;
place = "{692.75, 44.25}";
type = Stem;
},
{
horizontal = 1;
place = "{794.24, 25.99}";
type = Stem;
},
{
place = "{97.78, 617.81}";
type = Stem;
}
);
layerId = "4A657952-F232-4636-873B-F2B6F2CFB0B2";
paths = (
{
closed = 1;
nodes = (
"131.51 0 LINE",
"253.66 692.75 LINE",
"273.69 692.75 LINE",
"524.68 0 LINE",
"585.63 0 LINE",
"715.59 737 LINE",
"681.85 737 LINE",
"559.53 43.28 LINE",
"541.86 42.57 LINE",
"290.01 737 LINE",
"227.73 737 LINE",
"97.78 0 LINE"
);
},
{
closed = 1;
nodes = (
"506.57 794.24 LINE",
"633.45 932.35 LINE",
"600.46 932.35 LINE",
"487.11 820.23 LINE",
"471.55 820.23 LINE",
"397.76 932.35 LINE",
"368.27 932.35 LINE",
"450.39 794.24 LINE"
);
}
);
width = 683;
}
);
note = Ncaron;
unicode = 0147;
},
{
glyphname = uni0145;
lastChange = "2019-09-04 12:29:29 +0000";
layers = (
{
hints = (
{
horizontal = 1;
place = "{0, 42.93}";
type = Stem;
},
{
horizontal = 1;
place = "{692.75, 44.25}";
type = Stem;
},
{
place = "{97.78, 617.81}";
type = Stem;
}
);
layerId = "4A657952-F232-4636-873B-F2B6F2CFB0B2";
paths = (
{
closed = 1;
nodes = (
"131.51 0 LINE",
"253.66 692.75 LINE",
"273.69 692.75 LINE",
"524.68 0 LINE",
"585.63 0 LINE",
"715.59 737 LINE",
"681.85 737 LINE",
"559.53 43.28 LINE",
"541.86 42.57 LINE",
"290.01 737 LINE",
"227.73 737 LINE",
"97.78 0 LINE"
);
},
{
closed = 1;
nodes = (
"266.83 -219.31 LINE",
"347.28 -57.25 LINE",
"308 -57.25 LINE",
"241.58 -219.31 LINE"
);
}
);
width = 683;
}
);
note = uni0145;
unicode = 0145;
},
{
glyphname = Eng;
lastChange = "2019-09-04 12:30:48 +0000";
layers = (
{
hints = (
{
horizontal = 1;
place = "{-187, 30.5}";
type = Stem;
},
{
horizontal = 1;
place = "{0, 44.25}";
type = Stem;
},
{
horizontal = 1;
place = "{692.75, 44.25}";
type = Stem;
},
{
place = "{97.78, 617.71}";
type = Stem;
}
);
layerId = "4A657952-F232-4636-873B-F2B6F2CFB0B2";
paths = (
{
closed = 1;
nodes = (
"478.74 -187 LINE",
"566.36 -108.5 LINE",
"715.49 737 LINE",
"681.99 737 LINE",
"559.79 44.25 LINE",
"541.99 44.25 LINE",
"292.49 737 LINE",
"227.73 737 LINE",
"97.78 0 LINE",
"131.51 0 LINE",
"253.66 692.75 LINE",
"273.61 692.75 LINE",
"523.24 0 LINE",
"552.02 0 LINE",
"535.11 -96 LINE",
"468.24 -156.5 LINE",
"362.36 -156.5 LINE",
"356.99 -187 LINE"
);
}
);
width = 683;
}
);
note = Eng;
unicode = 014A;
},
{
glyphname = uni01CB;
lastChange = "2019-09-04 12:29:29 +0000";
layers = (
{
hints = (
{
horizontal = 1;
place = "{-187, 30.55}";
type = Stem;
},
{
horizontal = 1;
place = "{0, 42.93}";
type = Stem;
},
{
horizontal = 1;
place = "{692.75, 44.25}";
type = Stem;
},
{
place = "{97.78, 872.16}";
type = Stem;
},
{
horizontal = 1;
place = "{579.75, 105.82}";
type = Stem;
}
);
layerId = "4A657952-F232-4636-873B-F2B6F2CFB0B2";
paths = (
{
closed = 1;
nodes = (
"131.51 0 LINE",
"253.66 692.75 LINE",
"273.69 692.75 LINE",
"524.68 0 LINE",
"585.63 0 LINE",
"715.59 737 LINE",
"681.85 737 LINE",
"559.53 43.28 LINE",
"541.86 42.57 LINE",
"290.01 737 LINE",
"227.73 737 LINE",
"97.78 0 LINE"
);
},
{
closed = 1;
nodes = (
"742.33 -187 LINE",
"829.3 -112.56 LINE",
"941.27 522.5 LINE",
"908.27 522.5 LINE",
"798.94 -97.91 LINE",
"731.12 -156.45 LINE",
"624.14 -156.45 LINE",
"618.76 -187 LINE"
);
},
{
closed = 1;
nodes = (
"951.26 579.75 LINE",
"969.94 685.57 LINE",
"936.94 685.57 LINE",
"918.26 579.75 LINE"
);
}
);
width = 942;
}
);
note = uni01CB;
unicode = 01CB;
},
{
glyphname = Ntilde;
lastChange = "2019-09-04 12:29:29 +0000";
layers = (
{
hints = (
{
horizontal = 1;
place = "{0, 42.93}";
type = Stem;
},
{
horizontal = 1;
place = "{692.75, 44.25}";
type = Stem;
},
{
horizontal = 1;
place = "{794.25, 26.98}";
type = Stem;
},
{
horizontal = 1;
place = "{870.03, 26.98}";
type = Stem;
},
{
place = "{97.78, 617.81}";
type = Stem;
}
);
layerId = "4A657952-F232-4636-873B-F2B6F2CFB0B2";
paths = (
{
closed = 1;
nodes = (
"131.51 0 LINE",
"253.66 692.75 LINE",
"273.69 692.75 LINE",
"524.68 0 LINE",
"585.63 0 LINE",
"715.59 737 LINE",
"681.85 737 LINE",
"559.53 43.28 LINE",
"541.86 42.57 LINE",
"290.01 737 LINE",
"227.73 737 LINE",
"97.78 0 LINE"
);
},
{
closed = 1;
nodes = (
"584.74 794.25 LINE",
"640.64 843.16 LINE",
"650.89 896.64 LINE",
"629.11 896.64 LINE",
"619.37 857.48 LINE",
"573.86 821.23 LINE",
"536.54 821.23 LINE",
"474.02 897.01 LINE",
"400.54 897.01 LINE",
"344.5 847.61 LINE",
"334.18 794.61 LINE",
"356.09 794.61 LINE",
"365.94 833.65 LINE",
"411.44 870.03 LINE",
"460 870.03 LINE",
"522.42 794.25 LINE"
);
}
);
width = 683;
}
);
leftKerningGroup = B;
note = Ntilde;
rightKerningGroup = H;
unicode = 00D1;
},
{
glyphname = O;
lastChange = "2019-09-04 12:29:29 +0000";
layers = (
{
hints = (
{
horizontal = 1;
place = "{0, 31.78}";
type = Stem;
},
{
horizontal = 1;
place = "{705.21, 31.79}";
type = Stem;
},
{
place = "{100.18, 609.89}";
type = Stem;
}
);
layerId = "4A657952-F232-4636-873B-F2B6F2CFB0B2";
paths = (
{
closed = 1;
nodes = (
"508.01 0 LINE",
"613.34 90.35 LINE",
"710.07 638.86 LINE",
"630.3 737 LINE",
"302.3 737 LINE",
"196.85 646.57 LINE",
"100.18 98.31 LINE",
"180.06 0 LINE"
);
},
{
closed = 1;
nodes = (
"134.96 105.11 LINE",
"227.75 631.89 LINE",
"313.08 705.19 LINE",
"616 705.23 LINE",
"675.33 631.89 LINE",
"582.53 105.12 LINE",
"497.22 31.8 LINE",
"194.3 31.76 LINE"
);
}
);
width = 679;
}
);
leftKerningGroup = C;
note = O;
rightKerningGroup = O;
unicode = 004F;
},
{
glyphname = Oacute;
lastChange = "2019-09-04 12:29:29 +0000";
layers = (
{
hints = (
{
horizontal = 1;
place = "{0, 31.78}";
type = Stem;
},
{
horizontal = 1;
place = "{705.21, 31.79}";
type = Stem;
},
{
horizontal = 1;
place = "{794.25, 140.22}";
type = Stem;
},
{
place = "{100.18, 609.89}";
type = Stem;
}
);
layerId = "4A657952-F232-4636-873B-F2B6F2CFB0B2";
paths = (
{
closed = 1;
nodes = (
"508.01 0 LINE",
"613.34 90.35 LINE",
"710.07 638.86 LINE",
"630.3 737 LINE",
"302.3 737 LINE",
"196.85 646.57 LINE",
"100.18 98.31 LINE",
"180.06 0 LINE"
);
},
{
closed = 1;
nodes = (
"134.96 105.11 LINE",
"227.75 631.89 LINE",
"313.08 705.19 LINE",
"616 705.23 LINE",
"675.33 631.89 LINE",
"582.53 105.12 LINE",
"497.22 31.8 LINE",
"194.3 31.76 LINE"
);
},
{
closed = 1;
nodes = (
"495.7 794.25 LINE",
"623.33 934.47 LINE",
"573.79 934.47 LINE",
"462.42 794.25 LINE"
);
}
);
width = 679;
}
);
leftKerningGroup = C;
note = Oacute;
rightKerningGroup = O;
unicode = 00D3;
},
{
glyphname = Obreve;
lastChange = "2019-09-04 12:29:29 +0000";
layers = (
{
hints = (
{
horizontal = 1;
place = "{0, 31.78}";
type = Stem;
},
{
horizontal = 1;
place = "{705.21, 31.79}";
type = Stem;
},
{
horizontal = 1;
place = "{794.25, 27.22}";
type = Stem;
},
{
place = "{100.18, 609.89}";
type = Stem;
}
);
layerId = "4A657952-F232-4636-873B-F2B6F2CFB0B2";
paths = (
{
closed = 1;
nodes = (
"508.01 -0.01 LINE",
"613.34 90.34 LINE",
"710.07 638.85 LINE",
"630.3 736.99 LINE",
"302.3 736.99 LINE",
"196.85 646.56 LINE",
"100.18 98.3 LINE",
"180.06 -0.01 LINE"
);
},
{
closed = 1;
nodes = (
"134.96 105.1 LINE",
"227.75 631.88 LINE",
"313.08 705.18 LINE",
"616 705.22 LINE",
"675.33 631.88 LINE",
"582.53 105.11 LINE",
"497.22 31.79 LINE",
"194.3 31.75 LINE"
);
},
{
closed = 1;
nodes = (
"541.69 794.24 LINE",
"598.46 842.5 LINE",
"611.16 913.68 LINE",
"583.56 913.68 LINE",
"573.14 855.02 LINE",
"533.74 821.46 LINE",
"422.96 821.46 LINE",
"395.28 855.02 LINE",
"405.7 913.68 LINE",
"378.1 913.68 LINE",
"366.56 848.41 LINE",
"411.71 794.24 LINE"
);
}
);
width = 679;
}
);
leftKerningGroup = C;
note = Obreve;
rightKerningGroup = O;
unicode = 014E;
},
{
glyphname = Ocircumflex;
lastChange = "2019-09-04 12:29:29 +0000";
layers = (
{
hints = (
{
horizontal = 1;
place = "{0, 31.78}";
type = Stem;
},
{
horizontal = 1;
place = "{705.21, 31.79}";
type = Stem;
},
{
horizontal = 1;
place = "{906.37, 25.99}";
type = Stem;
},
{
place = "{100.18, 609.89}";
type = Stem;
}
);
layerId = "4A657952-F232-4636-873B-F2B6F2CFB0B2";
paths = (
{
closed = 1;
nodes = (
"508.01 0 LINE",
"613.34 90.35 LINE",
"710.07 638.86 LINE",
"630.3 737 LINE",
"302.3 737 LINE",
"196.85 646.57 LINE",
"100.18 98.31 LINE",
"180.06 0 LINE"
);
},
{
closed = 1;
nodes = (
"134.96 105.11 LINE",
"227.75 631.89 LINE",
"313.08 705.19 LINE",
"616 705.23 LINE",
"675.33 631.89 LINE",
"582.53 105.12 LINE",
"497.22 31.8 LINE",
"194.3 31.76 LINE"
);
},
{
closed = 1;
nodes = (
"374.81 794.25 LINE",
"488.16 906.37 LINE",
"503.71 906.37 LINE",
"577.5 794.25 LINE",
"607 794.25 LINE",
"524.87 932.36 LINE",
"468.69 932.36 LINE",
"341.82 794.25 LINE"
);
}
);
width = 679;
}
);
leftKerningGroup = C;
note = Ocircumflex;
rightKerningGroup = O;
unicode = 00D4;
},
{
glyphname = uni1ED0;
lastChange = "2019-09-04 12:29:29 +0000";
layers = (
{
hints = (
{
horizontal = 1;
place = "{0, 31.78}";
type = Stem;
},
{
horizontal = 1;
place = "{705.21, 31.79}";
type = Stem;
},
{
horizontal = 1;
place = "{861.61, 140.22}";
type = Stem;
},
{
place = "{100.18, 671.05}";
type = Stem;
},
{
horizontal = 1;
place = "{906.37, 25.99}";
type = Stem;
}
);
layerId = "4A657952-F232-4636-873B-F2B6F2CFB0B2";
paths = (
{
closed = 1;
nodes = (
"508.01 0 LINE",
"613.34 90.35 LINE",
"710.07 638.86 LINE",
"630.3 737 LINE",
"302.3 737 LINE",
"196.85 646.57 LINE",
"100.18 98.31 LINE",
"180.06 0 LINE"
);
},
{
closed = 1;
nodes = (
"134.96 105.11 LINE",
"227.75 631.89 LINE",
"313.08 705.19 LINE",
"616 705.23 LINE",
"675.33 631.89 LINE",
"582.53 105.12 LINE",
"497.22 31.8 LINE",
"194.3 31.76 LINE"
);
},
{
closed = 1;
nodes = (
"374.81 794.25 LINE",
"488.16 906.37 LINE",
"503.71 906.37 LINE",
"577.5 794.25 LINE",
"607 794.25 LINE",
"524.87 932.36 LINE",
"468.69 932.36 LINE",
"341.82 794.25 LINE"
);
},
{
closed = 1;
nodes = (
"643.59 861.61 LINE",
"771.23 1001.83 LINE",
"721.69 1001.83 LINE",
"610.32 861.61 LINE"
);
}
);
width = 679;
}
);
leftKerningGroup = C;
note = uni1ED0;
rightKerningGroup = O;
unicode = 1ED0;
},
{
glyphname = uni1ED8;
lastChange = "2019-09-04 12:29:29 +0000";
layers = (
{
hints = (
{
horizontal = 1;
place = "{-163.07, 105.82}";
type = Stem;
},
{
horizontal = 1;
place = "{0, 31.78}";
type = Stem;
},
{
horizontal = 1;
place = "{705.21, 31.79}";
type = Stem;
},
{
horizontal = 1;
place = "{906.37, 25.99}";
type = Stem;
},
{
place = "{100.18, 609.89}";
type = Stem;
}
);
layerId = "4A657952-F232-4636-873B-F2B6F2CFB0B2";
paths = (
{
closed = 1;
nodes = (
"508.01 0 LINE",
"613.34 90.35 LINE",
"710.07 638.86 LINE",
"630.3 737 LINE",
"302.3 737 LINE",
"196.85 646.57 LINE",
"100.18 98.31 LINE",
"180.06 0 LINE"
);
},
{
closed = 1;
nodes = (
"328.19 -163.07 LINE",
"346.87 -57.25 LINE",
"313.87 -57.25 LINE",
"295.19 -163.07 LINE"
);
},
{
closed = 1;
nodes = (
"134.96 105.11 LINE",
"227.75 631.89 LINE",
"313.08 705.19 LINE",
"616 705.23 LINE",
"675.33 631.89 LINE",
"582.53 105.12 LINE",
"497.22 31.8 LINE",
"194.3 31.76 LINE"
);
},
{
closed = 1;
nodes = (
"374.81 794.25 LINE",
"488.16 906.37 LINE",
"503.71 906.37 LINE",
"577.5 794.25 LINE",
"607 794.25 LINE",
"524.87 932.36 LINE",
"468.69 932.36 LINE",
"341.82 794.25 LINE"
);
}
);
width = 679;
}
);
leftKerningGroup = C;
note = uni1ED8;
rightKerningGroup = O;
unicode = 1ED8;
},
{
glyphname = uni1ED2;
lastChange = "2019-09-04 12:29:29 +0000";
layers = (
{
hints = (
{
horizontal = 1;
place = "{0, 31.78}";
type = Stem;
},
{
horizontal = 1;
place = "{705.21, 31.79}";
type = Stem;
},
{
horizontal = 1;
place = "{861.59, 140.22}";
type = Stem;
},
{
place = "{100.18, 609.89}";
type = Stem;
},
{
horizontal = 1;
place = "{906.37, 25.99}";
type = Stem;
}
);
layerId = "4A657952-F232-4636-873B-F2B6F2CFB0B2";
paths = (
{
closed = 1;
nodes = (
"508.01 0 LINE",
"613.34 90.35 LINE",
"710.07 638.86 LINE",
"630.3 737 LINE",
"302.3 737 LINE",
"196.85 646.57 LINE",
"100.18 98.31 LINE",
"180.06 0 LINE"
);
},
{
closed = 1;
nodes = (
"134.96 105.11 LINE",
"227.75 631.89 LINE",
"313.08 705.19 LINE",
"616 705.23 LINE",
"675.33 631.89 LINE",
"582.53 105.12 LINE",
"497.22 31.8 LINE",
"194.3 31.76 LINE"
);
},
{
closed = 1;
nodes = (
"355.06 861.59 LINE",
"293.22 1001.81 LINE",
"249.29 1001.81 LINE",
"326.2 861.59 LINE"
);
},
{
closed = 1;
nodes = (
"374.81 794.25 LINE",
"488.16 906.37 LINE",
"503.71 906.37 LINE",
"577.5 794.25 LINE",
"607 794.25 LINE",
"524.87 932.36 LINE",
"468.69 932.36 LINE",
"341.82 794.25 LINE"
);
}
);
width = 679;
}
);
leftKerningGroup = C;
note = uni1ED2;
rightKerningGroup = O;
unicode = 1ED2;
},
{
glyphname = uni1ED4;
lastChange = "2019-09-04 12:29:29 +0000";
layers = (
{
hints = (
{
horizontal = 1;
place = "{0, 31.78}";
type = Stem;
},
{
horizontal = 1;
place = "{705.21, 31.79}";
type = Stem;
},
{
horizontal = 1;
place = "{906.37, 25.99}";
type = Stem;
},
{
horizontal = 1;
place = "{1025.94, 27.11}";
type = Stem;
},
{
place = "{603.72, 26.74}";
type = Stem;
}
);
layerId = "4A657952-F232-4636-873B-F2B6F2CFB0B2";
paths = (
{
closed = 1;
nodes = (
"508.01 0 LINE",
"613.34 90.35 LINE",
"710.07 638.86 LINE",
"630.3 737 LINE",
"302.3 737 LINE",
"196.85 646.57 LINE",
"100.18 98.31 LINE",
"180.06 0 LINE"
);
},
{
closed = 1;
nodes = (
"134.96 105.11 LINE",
"227.75 631.89 LINE",
"313.08 705.19 LINE",
"616 705.23 LINE",
"675.33 631.89 LINE",
"582.53 105.12 LINE",
"497.22 31.8 LINE",
"194.3 31.76 LINE"
);
},
{
closed = 1;
nodes = (
"374.81 794.25 LINE",
"488.16 906.37 LINE",
"503.71 906.37 LINE",
"577.5 794.25 LINE",
"607 794.25 LINE",
"524.87 932.36 LINE",
"468.69 932.36 LINE",
"341.82 794.25 LINE"
);
},
{
closed = 1;
nodes = (
"628.09 861.64 LINE",
"632.84 887.9 LINE",
"712.24 952.66 LINE",
"723.11 1014.24 LINE",
"692.72 1053.05 LINE",
"614.07 1053.05 LINE",
"569.62 1013.2 LINE",
"587.84 992.32 LINE",
"625.56 1025.94 LINE",
"678.07 1025.94 LINE",
"693.03 1006.71 LINE",
"685.95 966.76 LINE",
"607.29 901.98 LINE",
"600.16 861.64 LINE"
);
}
);
width = 679;
}
);
leftKerningGroup = C;
note = uni1ED4;
rightKerningGroup = O;
unicode = 1ED4;
},
{
glyphname = uni1ED6;
lastChange = "2019-09-04 12:29:29 +0000";
layers = (
{
hints = (
{
horizontal = 1;
place = "{0, 31.78}";
type = Stem;
},
{
horizontal = 1;
place = "{705.21, 31.79}";
type = Stem;
},
{
horizontal = 1;
place = "{954.43, 26.98}";
type = Stem;
},
{
horizontal = 1;
place = "{1030.21, 26.98}";
type = Stem;
},
{
place = "{100.18, 609.89}";
type = Stem;
},
{
horizontal = 1;
place = "{906.37, 25.99}";
type = Stem;
}
);
layerId = "4A657952-F232-4636-873B-F2B6F2CFB0B2";
paths = (
{
closed = 1;
nodes = (
"508.01 0 LINE",
"613.34 90.35 LINE",
"710.07 638.86 LINE",
"630.3 737 LINE",
"302.3 737 LINE",
"196.85 646.57 LINE",
"100.18 98.31 LINE",
"180.06 0 LINE"
);
},
{
closed = 1;
nodes = (
"134.96 105.11 LINE",
"227.75 631.89 LINE",
"313.08 705.19 LINE",
"616 705.23 LINE",
"675.33 631.89 LINE",
"582.53 105.12 LINE",
"497.22 31.8 LINE",
"194.3 31.76 LINE"
);
},
{
closed = 1;
nodes = (
"374.81 794.25 LINE",
"488.16 906.37 LINE",
"503.71 906.37 LINE",
"577.5 794.25 LINE",
"607 794.25 LINE",
"524.87 932.36 LINE",
"468.69 932.36 LINE",
"341.82 794.25 LINE"
);
},
{
closed = 1;
nodes = (
"601.96 954.43 LINE",
"657.85 1003.34 LINE",
"668.11 1056.82 LINE",
"646.32 1056.82 LINE",
"636.59 1017.66 LINE",
"591.07 981.41 LINE",
"553.75 981.41 LINE",
"491.23 1057.19 LINE",
"417.76 1057.19 LINE",
"361.72 1007.79 LINE",
"351.39 954.79 LINE",
"373.31 954.79 LINE",
"383.16 993.83 LINE",
"428.66 1030.21 LINE",
"477.21 1030.21 LINE",
"539.63 954.43 LINE"
);
}
);
width = 679;
}
);
leftKerningGroup = C;
note = uni1ED6;
rightKerningGroup = O;
unicode = 1ED6;
},
{
glyphname = uni020C;
lastChange = "2019-09-04 12:29:29 +0000";
layers = (
{
hints = (
{
horizontal = 1;
place = "{0, 31.78}";
type = Stem;
},
{
horizontal = 1;
place = "{705.21, 31.79}";
type = Stem;
},
{
horizontal = 1;
place = "{794.25, 140.22}";
type = Stem;
},
{
place = "{100.18, 609.89}";
type = Stem;
}
);
layerId = "4A657952-F232-4636-873B-F2B6F2CFB0B2";
paths = (
{
closed = 1;
nodes = (
"508.01 0 LINE",
"613.34 90.35 LINE",
"710.07 638.86 LINE",
"630.3 737 LINE",
"302.3 737 LINE",
"196.85 646.57 LINE",
"100.18 98.31 LINE",
"180.06 0 LINE"
);
},
{
closed = 1;
nodes = (
"134.96 105.11 LINE",
"227.75 631.89 LINE",
"313.08 705.19 LINE",
"616 705.23 LINE",
"675.33 631.89 LINE",
"582.53 105.12 LINE",
"497.22 31.8 LINE",
"194.3 31.76 LINE"
);
},
{
closed = 1;
nodes = (
"417.8 794.25 LINE",
"355.95 934.47 LINE",
"312.02 934.47 LINE",
"388.94 794.25 LINE"
);
},
{
closed = 1;
nodes = (
"537.17 794.25 LINE",
"475.32 934.47 LINE",
"431.39 934.47 LINE",
"508.31 794.25 LINE"
);
}
);
width = 679;
}
);
leftKerningGroup = C;
note = uni020C;
rightKerningGroup = O;
unicode = 020C;
},
{
glyphname = Odieresis;
lastChange = "2019-09-04 12:29:29 +0000";
layers = (
{
hints = (
{
horizontal = 1;
place = "{0, 31.78}";
type = Stem;
},
{
horizontal = 1;
place = "{705.21, 31.79}";
type = Stem;
},
{
horizontal = 1;
place = "{794.25, 105.94}";
type = Stem;
},
{
place = "{100.18, 609.89}";
type = Stem;
}
);
layerId = "4A657952-F232-4636-873B-F2B6F2CFB0B2";
paths = (
{
closed = 1;
nodes = (
"508.01 0 LINE",
"613.34 90.35 LINE",
"710.07 638.86 LINE",
"630.3 737 LINE",
"302.3 737 LINE",
"196.85 646.57 LINE",
"100.18 98.31 LINE",
"180.06 0 LINE"
);
},
{
closed = 1;
nodes = (
"134.96 105.11 LINE",
"227.75 631.89 LINE",
"313.08 705.19 LINE",
"616 705.23 LINE",
"675.33 631.89 LINE",
"582.53 105.12 LINE",
"497.22 31.8 LINE",
"194.3 31.76 LINE"
);
},
{
closed = 1;
nodes = (
"359.49 794.25 LINE",
"378.17 900.19 LINE",
"345.17 900.19 LINE",
"326.49 794.25 LINE"
);
},
{
closed = 1;
nodes = (
"625.6 794.25 LINE",
"644.28 900.19 LINE",
"611.28 900.19 LINE",
"592.6 794.25 LINE"
);
}
);
width = 679;
}
);
leftKerningGroup = C;
note = Odieresis;
rightKerningGroup = O;
unicode = 00D6;
},
{
glyphname = uni022A;
lastChange = "2019-09-04 12:29:29 +0000";
layers = (
{
hints = (
{
horizontal = 1;
place = "{0, 31.78}";
type = Stem;
},
{
horizontal = 1;
place = "{705.21, 31.79}";
type = Stem;
},
{
horizontal = 1;
place = "{794.25, 105.94}";
type = Stem;
},
{
horizontal = 1;
place = "{932.16, 28.57}";
type = Stem;
},
{
place = "{100.18, 609.89}";
type = Stem;
}
);
layerId = "4A657952-F232-4636-873B-F2B6F2CFB0B2";
paths = (
{
closed = 1;
nodes = (
"508.01 0 LINE",
"613.34 90.35 LINE",
"710.07 638.86 LINE",
"630.3 737 LINE",
"302.3 737 LINE",
"196.85 646.57 LINE",
"100.18 98.31 LINE",
"180.06 0 LINE"
);
},
{
closed = 1;
nodes = (
"134.96 105.11 LINE",
"227.75 631.89 LINE",
"313.08 705.19 LINE",
"616 705.23 LINE",
"675.33 631.89 LINE",
"582.53 105.12 LINE",
"497.22 31.8 LINE",
"194.3 31.76 LINE"
);
},
{
closed = 1;
nodes = (
"359.49 794.25 LINE",
"378.17 900.19 LINE",
"345.17 900.19 LINE",
"326.49 794.25 LINE"
);
},
{
closed = 1;
nodes = (
"649.87 932.16 LINE",
"654.98 960.73 LINE",
"355.87 960.73 LINE",
"350.76 932.16 LINE"
);
},
{
closed = 1;
nodes = (
"625.6 794.25 LINE",
"644.28 900.19 LINE",
"611.28 900.19 LINE",
"592.6 794.25 LINE"
);
}
);
width = 679;
}
);
leftKerningGroup = C;
note = uni022A;
rightKerningGroup = O;
unicode = 022A;
},
{
glyphname = uni0230;
lastChange = "2019-09-04 12:29:29 +0000";
layers = (
{
hints = (
{
horizontal = 1;
place = "{0, 31.78}";
type = Stem;
},
{
horizontal = 1;
place = "{705.21, 31.79}";
type = Stem;
},
{
horizontal = 1;
place = "{794.25, 105.82}";
type = Stem;
},
{
horizontal = 1;
place = "{932.16, 28.57}";
type = Stem;
},
{
place = "{100.18, 609.89}";
type = Stem;
}
);
layerId = "4A657952-F232-4636-873B-F2B6F2CFB0B2";
paths = (
{
closed = 1;
nodes = (
"508.01 0 LINE",
"613.34 90.35 LINE",
"710.07 638.86 LINE",
"630.3 737 LINE",
"302.3 737 LINE",
"196.85 646.57 LINE",
"100.18 98.31 LINE",
"180.06 0 LINE"
);
},
{
closed = 1;
nodes = (
"134.96 105.11 LINE",
"227.75 631.89 LINE",
"313.08 705.19 LINE",
"616 705.23 LINE",
"675.33 631.89 LINE",
"582.53 105.12 LINE",
"497.22 31.8 LINE",
"194.3 31.76 LINE"
);
},
{
closed = 1;
nodes = (
"494.43 794.25 LINE",
"513.11 900.07 LINE",
"480.11 900.07 LINE",
"461.43 794.25 LINE"
);
},
{
closed = 1;
nodes = (
"649.87 932.16 LINE",
"654.98 960.73 LINE",
"355.87 960.73 LINE",
"350.76 932.16 LINE"
);
}
);
width = 679;
}
);
leftKerningGroup = C;
note = uni0230;
rightKerningGroup = O;
unicode = 0230;
},
{
glyphname = uni1ECC;
lastChange = "2019-09-04 12:29:29 +0000";
layers = (
{
hints = (
{
horizontal = 1;
place = "{-163.07, 105.82}";
type = Stem;
},
{
horizontal = 1;
place = "{0, 31.78}";
type = Stem;
},
{
horizontal = 1;
place = "{705.21, 31.79}";
type = Stem;
},
{
place = "{100.18, 609.89}";
type = Stem;
}
);
layerId = "4A657952-F232-4636-873B-F2B6F2CFB0B2";
paths = (
{
closed = 1;
nodes = (
"508.01 0 LINE",
"613.34 90.35 LINE",
"710.07 638.86 LINE",
"630.3 737 LINE",
"302.3 737 LINE",
"196.85 646.57 LINE",
"100.18 98.31 LINE",
"180.06 0 LINE"
);
},
{
closed = 1;
nodes = (
"328.19 -163.07 LINE",
"346.87 -57.25 LINE",
"313.87 -57.25 LINE",
"295.19 -163.07 LINE"
);
},
{
closed = 1;
nodes = (
"134.96 105.11 LINE",
"227.75 631.89 LINE",
"313.08 705.19 LINE",
"616 705.23 LINE",
"675.33 631.89 LINE",
"582.53 105.12 LINE",
"497.22 31.8 LINE",
"194.3 31.76 LINE"
);
}
);
width = 679;
}
);
leftKerningGroup = C;
note = uni1ECC;
rightKerningGroup = O;
unicode = 1ECC;
},
{
glyphname = Ograve;
lastChange = "2019-09-04 12:29:29 +0000";
layers = (
{
hints = (
{
horizontal = 1;
place = "{0, 31.78}";
type = Stem;
},
{
horizontal = 1;
place = "{705.21, 31.79}";
type = Stem;
},
{
horizontal = 1;
place = "{794.25, 140.22}";
type = Stem;
},
{
place = "{100.18, 609.89}";
type = Stem;
}
);
layerId = "4A657952-F232-4636-873B-F2B6F2CFB0B2";
paths = (
{
closed = 1;
nodes = (
"508.01 0 LINE",
"613.34 90.35 LINE",
"710.07 638.86 LINE",
"630.3 737 LINE",
"302.3 737 LINE",
"196.85 646.57 LINE",
"100.18 98.31 LINE",
"180.06 0 LINE"
);
},
{
closed = 1;
nodes = (
"134.96 105.11 LINE",
"227.75 631.89 LINE",
"313.08 705.19 LINE",
"616 705.23 LINE",
"675.33 631.89 LINE",
"582.53 105.12 LINE",
"497.22 31.8 LINE",
"194.3 31.76 LINE"
);
},
{
closed = 1;
nodes = (
"476.98 794.25 LINE",
"415.14 934.47 LINE",
"371.21 934.47 LINE",
"448.12 794.25 LINE"
);
}
);
width = 679;
}
);
leftKerningGroup = C;
note = Ograve;
rightKerningGroup = O;
unicode = 00D2;
},
{
glyphname = uni1ECE;
lastChange = "2019-09-04 12:29:29 +0000";
layers = (
{
hints = (
{
horizontal = 1;
place = "{0, 31.78}";
type = Stem;
},
{
horizontal = 1;
place = "{705.21, 31.79}";
type = Stem;
},
{
horizontal = 1;
place = "{958.55, 27.11}";
type = Stem;
},
{
place = "{465.03, 26.74}";
type = Stem;
}
);
layerId = "4A657952-F232-4636-873B-F2B6F2CFB0B2";
paths = (
{
closed = 1;
nodes = (
"508.01 0 LINE",
"613.34 90.35 LINE",
"710.07 638.86 LINE",
"630.3 737 LINE",
"302.3 737 LINE",
"196.85 646.57 LINE",
"100.18 98.31 LINE",
"180.06 0 LINE"
);
},
{
closed = 1;
nodes = (
"134.96 105.11 LINE",
"227.75 631.89 LINE",
"313.08 705.19 LINE",
"616 705.23 LINE",
"675.33 631.89 LINE",
"582.53 105.12 LINE",
"497.22 31.8 LINE",
"194.3 31.76 LINE"
);
},
{
closed = 1;
nodes = (
"489.39 794.25 LINE",
"494.15 820.52 LINE",
"573.54 885.28 LINE",
"584.41 946.85 LINE",
"554.03 985.66 LINE",
"475.38 985.66 LINE",
"430.93 945.81 LINE",
"449.14 924.93 LINE",
"486.86 958.55 LINE",
"539.37 958.55 LINE",
"554.34 939.32 LINE",
"547.25 899.37 LINE",
"468.6 834.59 LINE",
"461.46 794.25 LINE"
);
}
);
width = 679;
}
);
leftKerningGroup = C;
note = uni1ECE;
rightKerningGroup = O;
unicode = 1ECE;
},
{
glyphname = Ohorn;
lastChange = "2019-09-04 12:29:29 +0000";
layers = (
{
hints = (
{
horizontal = 1;
place = "{0, 31.78}";
type = Stem;
},
{
horizontal = 1;
place = "{630.57, 27.65}";
type = Stem;
},
{
horizontal = 1;
place = "{705.21, 31.79}";
type = Stem;
},
{
place = "{100.18, 737.46}";
type = Stem;
}
);
layerId = "4A657952-F232-4636-873B-F2B6F2CFB0B2";
paths = (
{
closed = 1;
nodes = (
"508.01 0 LINE",
"613.34 90.35 LINE",
"708.61 630.57 LINE",
"758.14 630.57 LINE",
"837.64 802.84 LINE",
"798.08 802.84 LINE",
"740.15 658.22 LINE",
"694.33 658.22 LINE",
"630.3 737 LINE",
"302.3 737 LINE",
"196.85 646.57 LINE",
"100.18 98.31 LINE",
"180.06 0 LINE"
);
},
{
closed = 1;
nodes = (
"134.96 105.11 LINE",
"227.75 631.89 LINE",
"313.08 705.19 LINE",
"616 705.23 LINE",
"675.33 631.89 LINE",
"582.53 105.12 LINE",
"497.22 31.8 LINE",
"194.3 31.76 LINE"
);
}
);
width = 679;
}
);
leftKerningGroup = C;
note = Ohorn;
rightKerningGroup = O;
unicode = 01A0;
},
{
glyphname = uni1EDA;
lastChange = "2019-09-04 12:29:29 +0000";
layers = (
{
hints = (
{
horizontal = 1;
place = "{0, 31.78}";
type = Stem;
},
{
horizontal = 1;
place = "{630.57, 27.65}";
type = Stem;
},
{
horizontal = 1;
place = "{705.21, 31.79}";
type = Stem;
},
{
horizontal = 1;
place = "{794.25, 140.22}";
type = Stem;
},
{
place = "{100.18, 737.46}";
type = Stem;
}
);
layerId = "4A657952-F232-4636-873B-F2B6F2CFB0B2";
paths = (
{
closed = 1;
nodes = (
"508.01 0 LINE",
"613.34 90.35 LINE",
"708.61 630.57 LINE",
"758.14 630.57 LINE",
"837.64 802.84 LINE",
"798.08 802.84 LINE",
"740.15 658.22 LINE",
"694.33 658.22 LINE",
"630.3 737 LINE",
"302.3 737 LINE",
"196.85 646.57 LINE",
"100.18 98.31 LINE",
"180.06 0 LINE"
);
},
{
closed = 1;
nodes = (
"134.96 105.11 LINE",
"227.75 631.89 LINE",
"313.08 705.19 LINE",
"616 705.23 LINE",
"675.33 631.89 LINE",
"582.53 105.12 LINE",
"497.22 31.8 LINE",
"194.3 31.76 LINE"
);
},
{
closed = 1;
nodes = (
"495.7 794.25 LINE",
"623.33 934.47 LINE",
"573.79 934.47 LINE",
"462.42 794.25 LINE"
);
}
);
width = 679;
}
);
leftKerningGroup = C;
note = uni1EDA;
rightKerningGroup = O;
unicode = 1EDA;
},
{
glyphname = uni1EE2;
lastChange = "2019-09-04 12:29:29 +0000";
layers = (
{
hints = (
{
horizontal = 1;
place = "{-163.07, 105.82}";
type = Stem;
},
{
horizontal = 1;
place = "{0, 31.78}";
type = Stem;
},
{
horizontal = 1;
place = "{630.57, 27.65}";
type = Stem;
},
{
horizontal = 1;
place = "{705.21, 31.79}";
type = Stem;
},
{
place = "{100.18, 737.46}";
type = Stem;
}
);
layerId = "4A657952-F232-4636-873B-F2B6F2CFB0B2";
paths = (
{
closed = 1;
nodes = (
"508.01 0 LINE",
"613.34 90.35 LINE",
"708.61 630.57 LINE",
"758.14 630.57 LINE",
"837.64 802.84 LINE",
"798.08 802.84 LINE",
"740.15 658.22 LINE",
"694.33 658.22 LINE",
"630.3 737 LINE",
"302.3 737 LINE",
"196.85 646.57 LINE",
"100.18 98.31 LINE",
"180.06 0 LINE"
);
},
{
closed = 1;
nodes = (
"328.19 -163.07 LINE",
"346.87 -57.25 LINE",
"313.87 -57.25 LINE",
"295.19 -163.07 LINE"
);
},
{
closed = 1;
nodes = (
"134.96 105.11 LINE",
"227.75 631.89 LINE",
"313.08 705.19 LINE",
"616 705.23 LINE",
"675.33 631.89 LINE",
"582.53 105.12 LINE",
"497.22 31.8 LINE",
"194.3 31.76 LINE"
);
}
);
width = 679;
}
);
leftKerningGroup = C;
note = uni1EE2;
rightKerningGroup = O;
unicode = 1EE2;
},
{
glyphname = uni1EDC;
lastChange = "2019-09-04 12:29:29 +0000";
layers = (
{
hints = (
{
horizontal = 1;
place = "{0, 31.78}";
type = Stem;
},
{
horizontal = 1;
place = "{630.57, 27.65}";
type = Stem;
},
{
horizontal = 1;
place = "{705.21, 31.79}";
type = Stem;
},
{
horizontal = 1;
place = "{794.25, 140.22}";
type = Stem;
},
{
place = "{100.18, 737.46}";
type = Stem;
}
);
layerId = "4A657952-F232-4636-873B-F2B6F2CFB0B2";
paths = (
{
closed = 1;
nodes = (
"508.01 0 LINE",
"613.34 90.35 LINE",
"708.61 630.57 LINE",
"758.14 630.57 LINE",
"837.64 802.84 LINE",
"798.08 802.84 LINE",
"740.15 658.22 LINE",
"694.33 658.22 LINE",
"630.3 737 LINE",
"302.3 737 LINE",
"196.85 646.57 LINE",
"100.18 98.31 LINE",
"180.06 0 LINE"
);
},
{
closed = 1;
nodes = (
"134.96 105.11 LINE",
"227.75 631.89 LINE",
"313.08 705.19 LINE",
"616 705.23 LINE",
"675.33 631.89 LINE",
"582.53 105.12 LINE",
"497.22 31.8 LINE",
"194.3 31.76 LINE"
);
},
{
closed = 1;
nodes = (
"476.98 794.25 LINE",
"415.14 934.47 LINE",
"371.21 934.47 LINE",
"448.12 794.25 LINE"
);
}
);
width = 679;
}
);
leftKerningGroup = C;
note = uni1EDC;
rightKerningGroup = O;
unicode = 1EDC;
},
{
glyphname = uni1EDE;
lastChange = "2019-09-04 12:29:29 +0000";
layers = (
{
hints = (
{
horizontal = 1;
place = "{0, 31.78}";
type = Stem;
},
{
horizontal = 1;
place = "{630.57, 27.65}";
type = Stem;
},
{
horizontal = 1;
place = "{705.21, 31.79}";
type = Stem;
},
{
horizontal = 1;
place = "{958.55, 27.11}";
type = Stem;
},
{
place = "{465.03, 26.74}";
type = Stem;
}
);
layerId = "4A657952-F232-4636-873B-F2B6F2CFB0B2";
paths = (
{
closed = 1;
nodes = (
"508.01 0 LINE",
"613.34 90.35 LINE",
"708.61 630.57 LINE",
"758.14 630.57 LINE",
"837.64 802.84 LINE",
"798.08 802.84 LINE",
"740.15 658.22 LINE",
"694.33 658.22 LINE",
"630.3 737 LINE",
"302.3 737 LINE",
"196.85 646.57 LINE",
"100.18 98.31 LINE",
"180.06 0 LINE"
);
},
{
closed = 1;
nodes = (
"134.96 105.11 LINE",
"227.75 631.89 LINE",
"313.08 705.19 LINE",
"616 705.23 LINE",
"675.33 631.89 LINE",
"582.53 105.12 LINE",
"497.22 31.8 LINE",
"194.3 31.76 LINE"
);
},
{
closed = 1;
nodes = (
"489.39 794.25 LINE",
"494.15 820.52 LINE",
"573.54 885.28 LINE",
"584.41 946.85 LINE",
"554.03 985.66 LINE",
"475.38 985.66 LINE",
"430.93 945.81 LINE",
"449.14 924.93 LINE",
"486.86 958.55 LINE",
"539.37 958.55 LINE",
"554.34 939.32 LINE",
"547.25 899.37 LINE",
"468.6 834.59 LINE",
"461.46 794.25 LINE"
);
}
);
width = 679;
}
);
leftKerningGroup = C;
note = uni1EDE;
rightKerningGroup = O;
unicode = 1EDE;
},
{
glyphname = uni1EE0;
lastChange = "2019-09-04 12:29:29 +0000";
layers = (
{
hints = (
{
horizontal = 1;
place = "{0, 31.78}";
type = Stem;
},
{
horizontal = 1;
place = "{630.57, 27.65}";
type = Stem;
},
{
horizontal = 1;
place = "{705.21, 31.79}";
type = Stem;
},
{
horizontal = 1;
place = "{794.25, 26.98}";
type = Stem;
},
{
horizontal = 1;
place = "{870.03, 26.98}";
type = Stem;
},
{
place = "{100.18, 737.46}";
type = Stem;
}
);
layerId = "4A657952-F232-4636-873B-F2B6F2CFB0B2";
paths = (
{
closed = 1;
nodes = (
"508.01 0 LINE",
"613.34 90.35 LINE",
"708.61 630.57 LINE",
"758.14 630.57 LINE",
"837.64 802.84 LINE",
"798.08 802.84 LINE",
"740.15 658.22 LINE",
"694.33 658.22 LINE",
"630.3 737 LINE",
"302.3 737 LINE",
"196.85 646.57 LINE",
"100.18 98.31 LINE",
"180.06 0 LINE"
);
},
{
closed = 1;
nodes = (
"134.96 105.11 LINE",
"227.75 631.89 LINE",
"313.08 705.19 LINE",
"616 705.23 LINE",
"675.33 631.89 LINE",
"582.53 105.12 LINE",
"497.22 31.8 LINE",
"194.3 31.76 LINE"
);
},
{
closed = 1;
nodes = (
"580.78 794.25 LINE",
"636.67 843.16 LINE",
"646.93 896.64 LINE",
"625.14 896.64 LINE",
"615.41 857.48 LINE",
"569.89 821.23 LINE",
"532.57 821.23 LINE",
"470.05 897.01 LINE",
"396.58 897.01 LINE",
"340.54 847.61 LINE",
"330.21 794.61 LINE",
"352.13 794.61 LINE",
"361.98 833.65 LINE",
"407.48 870.03 LINE",
"456.03 870.03 LINE",
"518.45 794.25 LINE"
);
}
);
width = 679;
}
);
leftKerningGroup = C;
note = uni1EE0;
rightKerningGroup = O;
unicode = 1EE0;
},
{
glyphname = Ohungarumlaut;
lastChange = "2019-09-04 12:29:29 +0000";
layers = (
{
hints = (
{
horizontal = 1;
place = "{0, 31.78}";
type = Stem;
},
{
horizontal = 1;
place = "{705.21, 31.79}";
type = Stem;
},
{
horizontal = 1;
place = "{794.25, 140.22}";
type = Stem;
},
{
place = "{100.18, 609.89}";
type = Stem;
}
);
layerId = "4A657952-F232-4636-873B-F2B6F2CFB0B2";
paths = (
{
closed = 1;
nodes = (
"508.01 0 LINE",
"613.34 90.35 LINE",
"710.07 638.86 LINE",
"630.3 737 LINE",
"302.3 737 LINE",
"196.85 646.57 LINE",
"100.18 98.31 LINE",
"180.06 0 LINE"
);
},
{
closed = 1;
nodes = (
"134.96 105.11 LINE",
"227.75 631.89 LINE",
"313.08 705.19 LINE",
"616 705.23 LINE",
"675.33 631.89 LINE",
"582.53 105.12 LINE",
"497.22 31.8 LINE",
"194.3 31.76 LINE"
);
},
{
closed = 1;
nodes = (
"424.74 794.25 LINE",
"552.37 934.47 LINE",
"502.84 934.47 LINE",
"391.46 794.25 LINE"
);
},
{
closed = 1;
nodes = (
"544.03 794.25 LINE",
"671.66 934.47 LINE",
"622.13 934.47 LINE",
"510.75 794.25 LINE"
);
}
);
width = 679;
}
);
leftKerningGroup = C;
note = Ohungarumlaut;
rightKerningGroup = O;
unicode = 0150;
},
{
glyphname = uni020E;
lastChange = "2019-09-04 12:29:29 +0000";
layers = (
{
hints = (
{
horizontal = 1;
place = "{0, 31.78}";
type = Stem;
},
{
horizontal = 1;
place = "{705.21, 31.79}";
type = Stem;
},
{
horizontal = 1;
place = "{886.46, 27.23}";
type = Stem;
},
{
place = "{100.18, 609.89}";
type = Stem;
}
);
layerId = "4A657952-F232-4636-873B-F2B6F2CFB0B2";
paths = (
{
closed = 1;
nodes = (
"508.01 0 LINE",
"613.34 90.35 LINE",
"710.07 638.86 LINE",
"630.3 737 LINE",
"302.3 737 LINE",
"196.85 646.57 LINE",
"100.18 98.31 LINE",
"180.06 0 LINE"
);
},
{
closed = 1;
nodes = (
"134.96 105.11 LINE",
"227.75 631.89 LINE",
"313.08 705.19 LINE",
"616 705.23 LINE",
"675.33 631.89 LINE",
"582.53 105.12 LINE",
"497.22 31.8 LINE",
"194.3 31.76 LINE"
);
},
{
closed = 1;
nodes = (
"388.78 794.25 LINE",
"399.2 852.91 LINE",
"438.6 886.46 LINE",
"549.38 886.46 LINE",
"577.06 852.91 LINE",
"566.64 794.25 LINE",
"594.24 794.25 LINE",
"605.77 858.91 LINE",
"560.49 913.69 LINE",
"430.64 913.69 LINE",
"373.79 865.3 LINE",
"361.18 794.25 LINE"
);
}
);
width = 679;
}
);
leftKerningGroup = C;
note = uni020E;
rightKerningGroup = O;
unicode = 020E;
},
{
glyphname = Omacron;
lastChange = "2019-09-04 12:29:29 +0000";
layers = (
{
hints = (
{
horizontal = 1;
place = "{0, 31.78}";
type = Stem;
},
{
horizontal = 1;
place = "{705.21, 31.79}";
type = Stem;
},
{
horizontal = 1;
place = "{794.25, 28.57}";
type = Stem;
},
{
place = "{100.18, 609.89}";
type = Stem;
}
);
layerId = "4A657952-F232-4636-873B-F2B6F2CFB0B2";
paths = (
{
closed = 1;
nodes = (
"508.01 0 LINE",
"613.34 90.35 LINE",
"710.07 638.86 LINE",
"630.3 737 LINE",
"302.3 737 LINE",
"196.85 646.57 LINE",
"100.18 98.31 LINE",
"180.06 0 LINE"
);
},
{
closed = 1;
nodes = (
"134.96 105.11 LINE",
"227.75 631.89 LINE",
"313.08 705.19 LINE",
"616 705.23 LINE",
"675.33 631.89 LINE",
"582.53 105.12 LINE",
"497.22 31.8 LINE",
"194.3 31.76 LINE"
);
},
{
closed = 1;
nodes = (
"627.49 794.25 LINE",
"632.6 822.82 LINE",
"333.49 822.82 LINE",
"328.38 794.25 LINE"
);
}
);
width = 679;
}
);
leftKerningGroup = C;
note = Omacron;
rightKerningGroup = O;
unicode = 014C;
},
{
glyphname = uni01EA;
lastChange = "2019-09-04 12:29:29 +0000";
layers = (
{
hints = (
{
horizontal = 1;
place = "{-142.29, 28.59}";
type = Stem;
},
{
horizontal = 1;
place = "{0, 31.78}";
type = Stem;
},
{
horizontal = 1;
place = "{705.21, 31.79}";
type = Stem;
},
{
place = "{100.18, 609.89}";
type = Stem;
}
);
layerId = "4A657952-F232-4636-873B-F2B6F2CFB0B2";
paths = (
{
closed = 1;
nodes = (
"495.26 -142.29 LINE",
"500.31 -113.7 LINE",
"477.21 -113.7 LINE",
"451.96 -83.03 LINE",
"458.82 -44.17 LINE",
"508.01 0 LINE",
"613.34 90.35 LINE",
"710.07 638.86 LINE",
"630.3 737 LINE",
"302.3 737 LINE",
"196.85 646.57 LINE",
"100.18 98.31 LINE",
"180.06 0 LINE",
"471.86 0 LINE",
"432.61 -34.09 LINE",
"422.77 -89.91 LINE",
"465.79 -142.29 LINE"
);
},
{
closed = 1;
nodes = (
"134.96 105.11 LINE",
"227.75 631.89 LINE",
"313.08 705.19 LINE",
"616 705.23 LINE",
"675.33 631.89 LINE",
"582.53 105.12 LINE",
"497.22 31.8 LINE",
"194.3 31.76 LINE"
);
}
);
width = 678;
}
);
leftKerningGroup = C;
note = uni01EA;
rightKerningGroup = O;
unicode = 01EA;
},
{
glyphname = Oslash;
lastChange = "2019-09-04 12:29:29 +0000";
layers = (
{
hints = (
{
horizontal = 1;
place = "{0, 31.78}";
type = Stem;
},
{
horizontal = 1;
place = "{705.21, 31.79}";
type = Stem;
},
{
place = "{100.18, 609.89}";
type = Stem;
}
);
layerId = "4A657952-F232-4636-873B-F2B6F2CFB0B2";
paths = (
{
closed = 1;
nodes = (
"508.01 0 LINE",
"613.34 90.35 LINE",
"710.07 638.86 LINE",
"630.3 737 LINE",
"302.3 737 LINE",
"196.85 646.57 LINE",
"100.18 98.31 LINE",
"180.06 0 LINE"
);
},
{
closed = 1;
nodes = (
"172.83 58.29 LINE",
"656.27 655.44 LINE",
"675.33 631.88 LINE",
"582.53 105.11 LINE",
"497.22 31.79 LINE",
"194.3 31.75 LINE"
);
},
{
closed = 1;
nodes = (
"134.96 105.11 LINE",
"227.75 631.89 LINE",
"313.08 705.19 LINE",
"616 705.23 LINE",
"636.64 679.72 LINE",
"153.19 82.58 LINE"
);
}
);
width = 679;
}
);
leftKerningGroup = C;
note = Oslash;
rightKerningGroup = O;
unicode = 00D8;
},
{
glyphname = Oslashacute;
lastChange = "2019-09-04 12:29:29 +0000";
layers = (
{
hints = (
{
horizontal = 1;
place = "{0, 31.78}";
type = Stem;
},
{
horizontal = 1;
place = "{705.21, 31.79}";
type = Stem;
},
{
horizontal = 1;
place = "{794.25, 140.22}";
type = Stem;
},
{
place = "{100.18, 609.89}";
type = Stem;
}
);
layerId = "4A657952-F232-4636-873B-F2B6F2CFB0B2";
paths = (
{
closed = 1;
nodes = (
"508.01 0 LINE",
"613.34 90.35 LINE",
"710.07 638.86 LINE",
"630.3 737 LINE",
"302.3 737 LINE",
"196.85 646.57 LINE",
"100.18 98.31 LINE",
"180.06 0 LINE"
);
},
{
closed = 1;
nodes = (
"172.83 58.29 LINE",
"656.27 655.44 LINE",
"675.33 631.88 LINE",
"582.53 105.11 LINE",
"497.22 31.79 LINE",
"194.3 31.75 LINE"
);
},
{
closed = 1;
nodes = (
"134.96 105.11 LINE",
"227.75 631.89 LINE",
"313.08 705.19 LINE",
"616 705.23 LINE",
"636.64 679.72 LINE",
"153.19 82.58 LINE"
);
},
{
closed = 1;
nodes = (
"495.7 794.25 LINE",
"623.33 934.47 LINE",
"573.79 934.47 LINE",
"462.42 794.25 LINE"
);
}
);
width = 679;
}
);
leftKerningGroup = C;
note = Oslashacute;
rightKerningGroup = O;
unicode = 01FE;
},
{
glyphname = Otilde;
lastChange = "2019-09-04 12:29:29 +0000";
layers = (
{
hints = (
{
horizontal = 1;
place = "{0, 31.78}";
type = Stem;
},
{
horizontal = 1;
place = "{705.21, 31.79}";
type = Stem;
},
{
horizontal = 1;
place = "{794.25, 26.98}";
type = Stem;
},
{
horizontal = 1;
place = "{870.03, 26.98}";
type = Stem;
},
{
place = "{100.18, 609.89}";
type = Stem;
}
);
layerId = "4A657952-F232-4636-873B-F2B6F2CFB0B2";
paths = (
{
closed = 1;
nodes = (
"508.01 0 LINE",
"613.34 90.35 LINE",
"710.07 638.86 LINE",
"630.3 737 LINE",
"302.3 737 LINE",
"196.85 646.57 LINE",
"100.18 98.31 LINE",
"180.06 0 LINE"
);
},
{
closed = 1;
nodes = (
"134.96 105.11 LINE",
"227.75 631.89 LINE",
"313.08 705.19 LINE",
"616 705.23 LINE",
"675.33 631.89 LINE",
"582.53 105.12 LINE",
"497.22 31.8 LINE",
"194.3 31.76 LINE"
);
},
{
closed = 1;
nodes = (
"580.78 794.25 LINE",
"636.67 843.16 LINE",
"646.93 896.64 LINE",
"625.14 896.64 LINE",
"615.41 857.48 LINE",
"569.89 821.23 LINE",
"532.57 821.23 LINE",
"470.05 897.01 LINE",
"396.58 897.01 LINE",
"340.54 847.61 LINE",
"330.21 794.61 LINE",
"352.13 794.61 LINE",
"361.98 833.65 LINE",
"407.48 870.03 LINE",
"456.03 870.03 LINE",
"518.45 794.25 LINE"
);
}
);
width = 679;
}
);
leftKerningGroup = C;
note = Otilde;
rightKerningGroup = O;
unicode = 00D5;
},
{
glyphname = uni022C;
lastChange = "2019-09-04 12:29:29 +0000";
layers = (
{
hints = (
{
horizontal = 1;
place = "{0, 31.78}";
type = Stem;
},
{
horizontal = 1;
place = "{705.21, 31.79}";
type = Stem;
},
{
horizontal = 1;
place = "{794.25, 26.98}";
type = Stem;
},
{
horizontal = 1;
place = "{870.03, 26.98}";
type = Stem;
},
{
horizontal = 1;
place = "{929.02, 28.57}";
type = Stem;
},
{
place = "{100.18, 609.89}";
type = Stem;
}
);
layerId = "4A657952-F232-4636-873B-F2B6F2CFB0B2";
paths = (
{
closed = 1;
nodes = (
"508.01 0 LINE",
"613.34 90.35 LINE",
"710.07 638.86 LINE",
"630.3 737 LINE",
"302.3 737 LINE",
"196.85 646.57 LINE",
"100.18 98.31 LINE",
"180.06 0 LINE"
);
},
{
closed = 1;
nodes = (
"134.96 105.11 LINE",
"227.75 631.89 LINE",
"313.08 705.19 LINE",
"616 705.23 LINE",
"675.33 631.89 LINE",
"582.53 105.12 LINE",
"497.22 31.8 LINE",
"194.3 31.76 LINE"
);
},
{
closed = 1;
nodes = (
"580.78 794.25 LINE",
"636.67 843.16 LINE",
"646.93 896.64 LINE",
"625.14 896.64 LINE",
"615.41 857.48 LINE",
"569.89 821.23 LINE",
"532.57 821.23 LINE",
"470.05 897.01 LINE",
"396.58 897.01 LINE",
"340.54 847.61 LINE",
"330.21 794.61 LINE",
"352.13 794.61 LINE",
"361.98 833.65 LINE",
"407.48 870.03 LINE",
"456.03 870.03 LINE",
"518.45 794.25 LINE"
);
},
{
closed = 1;
nodes = (
"653.52 929.02 LINE",
"658.63 957.59 LINE",
"359.52 957.59 LINE",
"354.41 929.02 LINE"
);
}
);
width = 679;
}
);
leftKerningGroup = C;
note = uni022C;
rightKerningGroup = O;
unicode = 022C;
},
{
glyphname = OE;
lastChange = "2019-09-04 12:30:58 +0000";
layers = (
{
hints = (
{
horizontal = 1;
place = "{0, 32.26}";
type = Stem;
},
{
horizontal = 1;
place = "{373.87, 32.27}";
type = Stem;
},
{
horizontal = 1;
place = "{704.73, 32.27}";
type = Stem;
},
{
place = "{100.18, 1049.93}";
type = Stem;
},
{
horizontal = 1;
place = "{0, 31.78}";
type = Stem;
},
{
horizontal = 1;
place = "{705.21, 31.79}";
type = Stem;
}
);
layerId = "4A657952-F232-4636-873B-F2B6F2CFB0B2";
paths = (
{
closed = 1;
nodes = (
"1020.11 0 LINE",
"1025.79 32.26 LINE",
"602.71 32.26 LINE",
"663.34 373.87 LINE",
"1029.55 373.87 LINE",
"1035.23 406.14 LINE",
"669.03 406.14 LINE",
"721.29 704.73 LINE",
"1144.41 704.73 LINE",
"1150.11 737 LINE",
"693.24 736.98 LINE",
"682.02 673.37 LINE",
"630.3 737 LINE",
"302.3 737 LINE",
"196.85 646.57 LINE",
"100.18 98.31 LINE",
"180.06 0 LINE",
"508.01 0 LINE",
"573.14 55.87 LINE",
"563.29 -0.02 LINE"
);
},
{
closed = 1;
nodes = (
"134.96 105.11 LINE",
"227.75 631.89 LINE",
"313.08 705.19 LINE",
"616 705.23 LINE",
"674.82 632.52 LINE",
"581.7 104.41 LINE",
"497.22 31.8 LINE",
"194.3 31.76 LINE"
);
}
);
width = 1075;
}
);
leftKerningGroup = C;
note = OE;
rightKerningGroup = AE;
unicode = 0152;
},
{
glyphname = P;
lastChange = "2019-09-04 12:29:29 +0000";
layers = (
{
hints = (
{
horizontal = 1;
place = "{306.9, 31.8}";
type = Stem;
},
{
horizontal = 1;
place = "{705.24, 31.76}";
type = Stem;
},
{
place = "{97.78, 552.4}";
type = Stem;
}
);
layerId = "4A657952-F232-4636-873B-F2B6F2CFB0B2";
paths = (
{
closed = 1;
nodes = (
"131.51 0 LINE",
"185.62 306.9 LINE",
"502.19 306.9 LINE",
"607.52 397.25 LINE",
"650.18 638.87 LINE",
"572.48 737 LINE",
"227.73 737 LINE",
"97.78 0 LINE"
);
},
{
closed = 1;
nodes = (
"255.86 705.22 LINE",
"556.11 705.25 LINE",
"615.43 631.89 LINE",
"576.71 412.03 LINE",
"491.43 338.71 LINE",
"191.23 338.68 LINE"
);
}
);
width = 584;
}
);
leftKerningGroup = B;
note = P;
rightKerningGroup = P;
unicode = 0050;
},
{
glyphname = Thorn;
lastChange = "2019-09-04 12:29:29 +0000";
layers = (
{
hints = (
{
horizontal = 1;
place = "{164.71, 31.79}";
type = Stem;
},
{
horizontal = 1;
place = "{563.04, 31.76}";
type = Stem;
},
{
place = "{97.78, 527.33}";
type = Stem;
}
);
layerId = "4A657952-F232-4636-873B-F2B6F2CFB0B2";
paths = (
{
closed = 1;
nodes = (
"131.51 -0.25 LINE",
"160.59 164.71 LINE",
"477.12 164.71 LINE",
"582.46 255.06 LINE",
"625.11 496.68 LINE",
"547.41 594.8 LINE",
"236.43 594.8 LINE",
"261.46 736.75 LINE",
"227.73 736.75 LINE",
"97.78 -0.25 LINE"
);
},
{
closed = 1;
nodes = (
"230.83 563.03 LINE",
"531.04 563.05 LINE",
"590.36 489.69 LINE",
"551.64 269.83 LINE",
"466.36 196.51 LINE",
"166.2 196.48 LINE"
);
}
);
width = 584;
}
);
note = Thorn;
rightKerningGroup = Thorn;
unicode = 00DE;
},
{
glyphname = Q;
lastChange = "2019-09-04 12:29:29 +0000";
layers = (
{
hints = (
{
horizontal = 1;
place = "{0, 31.77}";
type = Stem;
},
{
horizontal = 1;
place = "{705.21, 31.79}";
type = Stem;
},
{
place = "{100.18, 609.89}";
type = Stem;
}
);
layerId = "4A657952-F232-4636-873B-F2B6F2CFB0B2";
paths = (
{
closed = 1;
nodes = (
"333.4 -124.35 LINE",
"355.33 0 LINE",
"508.01 0 LINE",
"613.34 90.35 LINE",
"710.07 638.86 LINE",
"630.3 737 LINE",
"302.3 737 LINE",
"196.85 646.57 LINE",
"100.18 98.31 LINE",
"180.06 0 LINE",
"323.58 0 LINE",
"301.65 -124.35 LINE"
);
},
{
closed = 1;
nodes = (
"134.96 105.11 LINE",
"227.75 631.89 LINE",
"313.08 705.19 LINE",
"616 705.23 LINE",
"675.33 631.89 LINE",
"582.53 105.12 LINE",
"497.22 31.8 LINE",
"360.94 31.78 LINE",
"382.03 151.33 LINE",
"350.28 151.33 LINE",
"329.19 31.78 LINE",
"194.3 31.76 LINE"
);
}
);
width = 679;
}
);
leftKerningGroup = C;
note = Q;
rightKerningGroup = O;
unicode = 0051;
},
{
glyphname = R;
lastChange = "2019-09-04 12:29:29 +0000";
layers = (
{
hints = (
{
horizontal = 1;
place = "{328.25, 31.83}";
type = Stem;
},
{
horizontal = 1;
place = "{705.21, 31.79}";
type = Stem;
},
{
place = "{97.77, 565.98}";
type = Stem;
}
);
layerId = "4A657952-F232-4636-873B-F2B6F2CFB0B2";
paths = (
{
closed = 1;
nodes = (
"131.5 0 LINE",
"189.38 328.25 LINE",
"444.1 328.25 LINE",
"545.75 0 LINE",
"580.83 0 LINE",
"479.18 328.25 LINE",
"516.99 328.25 LINE",
"625.07 421.03 LINE",
"663.75 640.85 LINE",
"585.7 737 LINE",
"227.72 737 LINE",
"97.77 0 LINE"
);
},
{
closed = 1;
nodes = (
"255.85 705.21 LINE",
"569.47 705.21 LINE",
"628.72 631.87 LINE",
"593.84 433.41 LINE",
"508.67 360.08 LINE",
"195 360.08 LINE"
);
}
);
width = 649;
}
);
leftKerningGroup = B;
note = R;
rightKerningGroup = R;
unicode = 0052;
},
{
glyphname = Racute;
lastChange = "2019-09-04 12:29:29 +0000";
layers = (
{
hints = (
{
horizontal = 1;
place = "{328.25, 31.83}";
type = Stem;
},
{
horizontal = 1;
place = "{705.21, 31.79}";
type = Stem;
},
{
horizontal = 1;
place = "{794.25, 140.22}";
type = Stem;
},
{
place = "{97.77, 565.98}";
type = Stem;
}
);
layerId = "4A657952-F232-4636-873B-F2B6F2CFB0B2";
paths = (
{
closed = 1;
nodes = (
"131.5 0 LINE",
"189.38 328.25 LINE",
"444.1 328.25 LINE",
"545.75 0 LINE",
"580.83 0 LINE",
"479.18 328.25 LINE",
"516.99 328.25 LINE",
"625.07 421.03 LINE",
"663.75 640.85 LINE",
"585.7 737 LINE",
"227.72 737 LINE",
"97.77 0 LINE"
);
},
{
closed = 1;
nodes = (
"255.85 705.21 LINE",
"569.47 705.21 LINE",
"628.72 631.87 LINE",
"593.84 433.41 LINE",
"508.67 360.08 LINE",
"195 360.08 LINE"
);
},
{
closed = 1;
nodes = (
"453.91 794.25 LINE",
"581.54 934.47 LINE",
"532.01 934.47 LINE",
"420.63 794.25 LINE"
);
}
);
width = 649;
}
);
note = Racute;
rightKerningGroup = R;
unicode = 0154;
},
{
glyphname = Rcaron;
lastChange = "2019-09-04 12:29:29 +0000";
layers = (
{
hints = (
{
horizontal = 1;
place = "{328.25, 31.83}";
type = Stem;
},
{
horizontal = 1;
place = "{705.21, 31.79}";
type = Stem;
},
{
horizontal = 1;
place = "{794.24, 25.99}";
type = Stem;
},
{
place = "{97.77, 565.98}";
type = Stem;
}
);
layerId = "4A657952-F232-4636-873B-F2B6F2CFB0B2";
paths = (
{
closed = 1;
nodes = (
"131.5 0 LINE",
"189.38 328.25 LINE",
"444.1 328.25 LINE",
"545.75 0 LINE",
"580.83 0 LINE",
"479.18 328.25 LINE",
"516.99 328.25 LINE",
"625.07 421.03 LINE",
"663.75 640.85 LINE",
"585.7 737 LINE",
"227.72 737 LINE",
"97.77 0 LINE"
);
},
{
closed = 1;
nodes = (
"255.85 705.21 LINE",
"569.47 705.21 LINE",
"628.72 631.87 LINE",
"593.84 433.41 LINE",
"508.67 360.08 LINE",
"195 360.08 LINE"
);
},
{
closed = 1;
nodes = (
"460.82 794.24 LINE",
"587.7 932.35 LINE",
"554.71 932.35 LINE",
"441.36 820.23 LINE",
"425.8 820.23 LINE",
"352.01 932.35 LINE",
"322.52 932.35 LINE",
"404.64 794.24 LINE"
);
}
);
width = 649;
}
);
note = Rcaron;
rightKerningGroup = R;
unicode = 0158;
},
{
glyphname = uni0156;
lastChange = "2019-09-04 12:29:29 +0000";
layers = (
{
hints = (
{
horizontal = 1;
place = "{328.25, 31.83}";
type = Stem;
},
{
horizontal = 1;
place = "{705.21, 31.79}";
type = Stem;
},
{
place = "{97.77, 565.98}";
type = Stem;
}
);
layerId = "4A657952-F232-4636-873B-F2B6F2CFB0B2";
paths = (
{
closed = 1;
nodes = (
"131.5 0 LINE",
"189.38 328.25 LINE",
"444.1 328.25 LINE",
"545.75 0 LINE",
"580.83 0 LINE",
"479.18 328.25 LINE",
"516.99 328.25 LINE",
"625.07 421.03 LINE",
"663.75 640.85 LINE",
"585.7 737 LINE",
"227.72 737 LINE",
"97.77 0 LINE"
);
},
{
closed = 1;
nodes = (
"262.94 -219.31 LINE",
"343.39 -57.25 LINE",
"304.11 -57.25 LINE",
"237.69 -219.31 LINE"
);
},
{
closed = 1;
nodes = (
"255.85 705.21 LINE",
"569.47 705.21 LINE",
"628.72 631.87 LINE",
"593.84 433.41 LINE",
"508.67 360.08 LINE",
"195 360.08 LINE"
);
}
);
width = 649;
}
);
note = uni0156;
rightKerningGroup = R;
unicode = 0156;
},
{
glyphname = uni0210;
lastChange = "2019-09-04 12:29:29 +0000";
layers = (
{
hints = (
{
horizontal = 1;
place = "{328.25, 31.83}";
type = Stem;
},
{
horizontal = 1;
place = "{705.21, 31.79}";
type = Stem;
},
{
horizontal = 1;
place = "{794.25, 140.22}";
type = Stem;
},
{
place = "{97.77, 565.98}";
type = Stem;
}
);
layerId = "4A657952-F232-4636-873B-F2B6F2CFB0B2";
paths = (
{
closed = 1;
nodes = (
"131.5 0 LINE",
"189.38 328.25 LINE",
"444.1 328.25 LINE",
"545.75 0 LINE",
"580.83 0 LINE",
"479.18 328.25 LINE",
"516.99 328.25 LINE",
"625.07 421.03 LINE",
"663.75 640.85 LINE",
"585.7 737 LINE",
"227.72 737 LINE",
"97.77 0 LINE"
);
},
{
closed = 1;
nodes = (
"255.85 705.21 LINE",
"569.47 705.21 LINE",
"628.72 631.87 LINE",
"593.84 433.41 LINE",
"508.67 360.08 LINE",
"195 360.08 LINE"
);
},
{
closed = 1;
nodes = (
"376.01 794.25 LINE",
"314.17 934.47 LINE",
"270.24 934.47 LINE",
"347.15 794.25 LINE"
);
},
{
closed = 1;
nodes = (
"495.38 794.25 LINE",
"433.54 934.47 LINE",
"389.61 934.47 LINE",
"466.52 794.25 LINE"
);
}
);
width = 649;
}
);
note = uni0210;
unicode = 0210;
},
{
glyphname = uni0212;
lastChange = "2019-09-04 12:29:29 +0000";
layers = (
{
hints = (
{
horizontal = 1;
place = "{328.25, 31.83}";
type = Stem;
},
{
horizontal = 1;
place = "{705.21, 31.79}";
type = Stem;
},
{
horizontal = 1;
place = "{886.46, 27.23}";
type = Stem;
},
{
place = "{97.77, 565.98}";
type = Stem;
}
);
layerId = "4A657952-F232-4636-873B-F2B6F2CFB0B2";
paths = (
{
closed = 1;
nodes = (
"131.5 0 LINE",
"189.38 328.25 LINE",
"444.1 328.25 LINE",
"545.75 0 LINE",
"580.83 0 LINE",
"479.18 328.25 LINE",
"516.99 328.25 LINE",
"625.07 421.03 LINE",
"663.75 640.85 LINE",
"585.7 737 LINE",
"227.72 737 LINE",
"97.77 0 LINE"
);
},
{
closed = 1;
nodes = (
"255.85 705.21 LINE",
"569.47 705.21 LINE",
"628.72 631.87 LINE",
"593.84 433.41 LINE",
"508.67 360.08 LINE",
"195 360.08 LINE"
);
},
{
closed = 1;
nodes = (
"347 794.25 LINE",
"357.41 852.91 LINE",
"396.82 886.46 LINE",
"507.59 886.46 LINE",
"535.27 852.91 LINE",
"524.86 794.25 LINE",
"552.45 794.25 LINE",
"563.99 858.91 LINE",
"518.7 913.69 LINE",
"388.86 913.69 LINE",
"332.01 865.3 LINE",
"319.4 794.25 LINE"
);
}
);
width = 649;
}
);
note = uni0212;
unicode = 0212;
},
{
glyphname = S;
lastChange = "2019-09-04 12:29:29 +0000";
layers = (
{
hints = (
{
horizontal = 1;
place = "{0, 32.28}";
type = Stem;
},
{
horizontal = 1;
place = "{363.88, 31.74}";
type = Stem;
},
{
horizontal = 1;
place = "{704.72, 32.28}";
type = Stem;
},
{
place = "{99.93, 559.32}";
type = Stem;
}
);
layerId = "4A657952-F232-4636-873B-F2B6F2CFB0B2";
paths = (
{
closed = 1;
nodes = (
"474.18 0 LINE",
"580.1 90.84 LINE",
"616.98 299.58 LINE",
"538.87 395.64 LINE",
"247.28 395.59 LINE",
"187.82 468.97 LINE",
"216.46 631.4 LINE",
"301.8 704.71 LINE",
"653.55 704.73 LINE",
"659.25 737 LINE",
"291.58 737 LINE",
"185.55 646.08 LINE",
"152.74 459.88 LINE",
"230.88 363.86 LINE",
"522.46 363.89 LINE",
"581.79 290.53 LINE",
"549.29 105.61 LINE",
"463.97 32.29 LINE",
"105.61 32.26 LINE",
"99.93 0 LINE"
);
}
);
width = 638;
}
);
leftKerningGroup = S;
note = S;
rightKerningGroup = S;
unicode = 0053;
},
{
glyphname = Sacute;
lastChange = "2019-09-04 12:29:29 +0000";
layers = (
{
hints = (
{
horizontal = 1;
place = "{0, 32.28}";
type = Stem;
},
{
horizontal = 1;
place = "{363.88, 31.74}";
type = Stem;
},
{
horizontal = 1;
place = "{704.72, 32.28}";
type = Stem;
},
{
horizontal = 1;
place = "{794.25, 140.22}";
type = Stem;
},
{
place = "{99.93, 559.32}";
type = Stem;
}
);
layerId = "4A657952-F232-4636-873B-F2B6F2CFB0B2";
paths = (
{
closed = 1;
nodes = (
"474.18 0 LINE",
"580.1 90.84 LINE",
"616.98 299.58 LINE",
"538.87 395.64 LINE",
"247.28 395.59 LINE",
"187.82 468.97 LINE",
"216.46 631.4 LINE",
"301.8 704.71 LINE",
"653.55 704.73 LINE",
"659.25 737 LINE",
"291.58 737 LINE",
"185.55 646.08 LINE",
"152.74 459.88 LINE",
"230.88 363.86 LINE",
"522.46 363.89 LINE",
"581.79 290.53 LINE",
"549.29 105.61 LINE",
"463.97 32.29 LINE",
"105.61 32.26 LINE",
"99.93 0 LINE"
);
},
{
closed = 1;
nodes = (
"470.46 794.25 LINE",
"598.09 934.47 LINE",
"548.55 934.47 LINE",
"437.18 794.25 LINE"
);
}
);
width = 638;
}
);
leftKerningGroup = S;
note = Sacute;
rightKerningGroup = S;
unicode = 015A;
},
{
glyphname = Scaron;
lastChange = "2019-09-04 12:29:29 +0000";
layers = (
{
hints = (
{
horizontal = 1;
place = "{0, 32.28}";
type = Stem;
},
{
horizontal = 1;
place = "{363.88, 31.74}";
type = Stem;
},
{
horizontal = 1;
place = "{704.72, 32.28}";
type = Stem;
},
{
horizontal = 1;
place = "{794.24, 25.99}";
type = Stem;
},
{
place = "{99.93, 559.32}";
type = Stem;
}
);
layerId = "4A657952-F232-4636-873B-F2B6F2CFB0B2";
paths = (
{
closed = 1;
nodes = (
"474.18 0 LINE",
"580.1 90.84 LINE",
"616.98 299.58 LINE",
"538.87 395.64 LINE",
"247.28 395.59 LINE",
"187.82 468.97 LINE",
"216.46 631.4 LINE",
"301.8 704.71 LINE",
"653.55 704.73 LINE",
"659.25 737 LINE",
"291.58 737 LINE",
"185.55 646.08 LINE",
"152.74 459.88 LINE",
"230.88 363.86 LINE",
"522.46 363.89 LINE",
"581.79 290.53 LINE",
"549.29 105.61 LINE",
"463.97 32.29 LINE",
"105.61 32.26 LINE",
"99.93 0 LINE"
);
},
{
closed = 1;
nodes = (
"477.36 794.24 LINE",
"604.24 932.35 LINE",
"571.25 932.35 LINE",
"457.9 820.23 LINE",
"442.35 820.23 LINE",
"368.55 932.35 LINE",
"339.06 932.35 LINE",
"421.18 794.24 LINE"
);
}
);
width = 638;
}
);
leftKerningGroup = S;
note = Scaron;
rightKerningGroup = S;
unicode = 0160;
},
{
glyphname = Scedilla;
lastChange = "2019-09-04 12:29:29 +0000";
layers = (
{
hints = (
{
horizontal = 1;
place = "{0, 32.28}";
type = Stem;
},
{
horizontal = 1;
place = "{363.88, 31.74}";
type = Stem;
},
{
horizontal = 1;
place = "{704.72, 32.28}";
type = Stem;
},
{
place = "{99.93, 559.32}";
type = Stem;
}
);
layerId = "4A657952-F232-4636-873B-F2B6F2CFB0B2";
paths = (
{
closed = 1;
nodes = (
"268.21 -131.27 LINE",
"330.17 0 LINE",
"474.17 0 LINE",
"580.09 90.84 LINE",
"616.97 299.58 LINE",
"538.86 395.64 LINE",
"247.27 395.59 LINE",
"187.81 468.97 LINE",
"216.45 631.4 LINE",
"301.8 704.71 LINE",
"653.55 704.73 LINE",
"659.25 737 LINE",
"291.58 737 LINE",
"185.55 646.08 LINE",
"152.74 459.88 LINE",
"230.88 363.86 LINE",
"522.46 363.89 LINE",
"581.79 290.53 LINE",
"549.29 105.61 LINE",
"463.97 32.29 LINE",
"105.61 32.26 LINE",
"99.93 0 LINE",
"296.07 0 LINE",
"237.51 -131.27 LINE"
);
}
);
width = 638;
}
);
leftKerningGroup = S;
note = Scedilla;
rightKerningGroup = S;
unicode = 015E;
},
{
glyphname = Scircumflex;
lastChange = "2019-09-04 12:29:29 +0000";
layers = (
{
hints = (
{
horizontal = 1;
place = "{0, 32.28}";
type = Stem;
},
{
horizontal = 1;
place = "{363.88, 31.74}";
type = Stem;
},
{
horizontal = 1;
place = "{704.72, 32.28}";
type = Stem;
},
{
horizontal = 1;
place = "{906.37, 25.99}";
type = Stem;
},
{
place = "{99.93, 559.32}";
type = Stem;
}
);
layerId = "4A657952-F232-4636-873B-F2B6F2CFB0B2";
paths = (
{
closed = 1;
nodes = (
"474.18 0 LINE",
"580.1 90.84 LINE",
"616.98 299.58 LINE",
"538.87 395.64 LINE",
"247.28 395.59 LINE",
"187.82 468.97 LINE",
"216.46 631.4 LINE",
"301.8 704.71 LINE",
"653.55 704.73 LINE",
"659.25 737 LINE",
"291.58 737 LINE",
"185.55 646.08 LINE",
"152.74 459.88 LINE",
"230.88 363.86 LINE",
"522.46 363.89 LINE",
"581.79 290.53 LINE",
"549.29 105.61 LINE",
"463.97 32.29 LINE",
"105.61 32.26 LINE",
"99.93 0 LINE"
);
},
{
closed = 1;
nodes = (
"349.57 794.25 LINE",
"462.91 906.37 LINE",
"478.47 906.37 LINE",
"552.26 794.25 LINE",
"581.76 794.25 LINE",
"499.63 932.36 LINE",
"443.45 932.36 LINE",
"316.57 794.25 LINE"
);
}
);
width = 638;
}
);
note = Scircumflex;
unicode = 015C;
},
{
glyphname = uni0218;
lastChange = "2019-09-04 12:29:29 +0000";
layers = (
{
hints = (
{
horizontal = 1;
place = "{0, 32.28}";
type = Stem;
},
{
horizontal = 1;
place = "{363.88, 31.74}";
type = Stem;
},
{
horizontal = 1;
place = "{704.72, 32.28}";
type = Stem;
},
{
place = "{99.93, 559.32}";
type = Stem;
}
);
layerId = "4A657952-F232-4636-873B-F2B6F2CFB0B2";
paths = (
{
closed = 1;
nodes = (
"474.18 0 LINE",
"580.1 90.84 LINE",
"616.98 299.58 LINE",
"538.87 395.64 LINE",
"247.28 395.59 LINE",
"187.82 468.97 LINE",
"216.46 631.4 LINE",
"301.8 704.71 LINE",
"653.55 704.73 LINE",
"659.25 737 LINE",
"291.58 737 LINE",
"185.55 646.08 LINE",
"152.74 459.88 LINE",
"230.88 363.86 LINE",
"522.46 363.89 LINE",
"581.79 290.53 LINE",
"549.29 105.61 LINE",
"463.97 32.29 LINE",
"105.61 32.26 LINE",
"99.93 0 LINE"
);
},
{
closed = 1;
nodes = (
"242.38 -219.31 LINE",
"322.84 -57.25 LINE",
"283.55 -57.25 LINE",
"217.14 -219.31 LINE"
);
}
);
width = 638;
}
);
leftKerningGroup = S;
note = uni0218;
rightKerningGroup = S;
unicode = 0218;
},
{
glyphname = uni1E9E;
lastChange = "2019-09-04 12:29:29 +0000";
layers = (
{
hints = (
{
horizontal = 1;
place = "{0, 31.78}";
type = Stem;
},
{
horizontal = 1;
place = "{395.45, 31.76}";
type = Stem;
},
{
horizontal = 1;
place = "{705.21, 31.79}";
type = Stem;
},
{
place = "{97.78, 547.5}";
type = Stem;
}
);
layerId = "4A657952-F232-4636-873B-F2B6F2CFB0B2";
paths = (
{
closed = 1;
nodes = (
"131.25 0 LINE",
"242.65 631.89 LINE",
"327.98 705.19 LINE",
"540.07 705.23 LINE",
"599.77 631.33 LINE",
"369.03 424.76 LINE",
"363.86 395.43 LINE",
"528.4 395.46 LINE",
"610.56 287.91 LINE",
"578.75 106.89 LINE",
"491.39 31.8 LINE",
"319.44 31.76 LINE",
"243.46 125.28 LINE",
"219.76 105.21 LINE",
"305.19 0 LINE",
"502.18 0 LINE",
"609.53 92.06 LINE",
"645.28 294.74 LINE",
"543.08 427.21 LINE",
"412.82 427.21 LINE",
"629.59 621.78 LINE",
"632.86 640.45 LINE",
"554.38 737 LINE",
"317.2 737 LINE",
"211.75 646.57 LINE",
"97.78 0 LINE"
);
}
);
width = 667;
}
);
note = uni1E9E;
unicode = 1E9E;
},
{
glyphname = uni018F;
lastChange = "2019-09-04 12:29:29 +0000";
layers = (
{
hints = (
{
horizontal = 1;
place = "{0, 31.78}";
type = Stem;
},
{
horizontal = 1;
place = "{355.62, 30.29}";
type = Stem;
},
{
horizontal = 1;
place = "{705.21, 31.79}";
type = Stem;
},
{
place = "{100.18, 675.9}";
type = Stem;
}
);
layerId = "4A657952-F232-4636-873B-F2B6F2CFB0B2";
paths = (
{
closed = 1;
nodes = (
"574.01 0 LINE",
"679.35 90.35 LINE",
"776.08 638.86 LINE",
"696.31 737 LINE",
"224.13 737 LINE",
"218.52 705.19 LINE",
"682 705.23 LINE",
"741.34 631.89 LINE",
"698 385.91 LINE",
"150.96 385.91 LINE",
"100.18 98.31 LINE",
"180.07 0 LINE"
);
},
{
closed = 1;
nodes = (
"134.96 105.11 LINE",
"179.13 355.62 LINE",
"692.66 355.62 LINE",
"648.53 105.12 LINE",
"563.23 31.8 LINE",
"194.31 31.76 LINE"
);
}
);
width = 745;
}
);
note = uni018F;
unicode = 018F;
},
{
glyphname = T;
lastChange = "2019-09-04 12:29:29 +0000";
layers = (
{
hints = (
{
horizontal = 1;
place = "{704.73, 32.27}";
type = Stem;
},
{
place = "{134.86, 523.75}";
type = Stem;
}
);
layerId = "4A657952-F232-4636-873B-F2B6F2CFB0B2";
paths = (
{
closed = 1;
nodes = (
"287.01 0 LINE",
"411.27 704.73 LINE",
"652.91 704.73 LINE",
"658.61 737 LINE",
"140.55 737 LINE",
"134.86 704.73 LINE",
"377.54 704.73 LINE",
"253.28 0 LINE"
);
}
);
width = 539;
}
);
leftKerningGroup = T;
note = T;
rightKerningGroup = T;
unicode = 0054;
},
{
glyphname = Tbar;
lastChange = "2019-09-04 12:29:29 +0000";
layers = (
{
hints = (
{
horizontal = 1;
place = "{381.55, 29.82}";
type = Stem;
},
{
horizontal = 1;
place = "{704.73, 32.27}";
type = Stem;
},
{
place = "{134.86, 523.75}";
type = Stem;
}
);
layerId = "4A657952-F232-4636-873B-F2B6F2CFB0B2";
paths = (
{
closed = 1;
nodes = (
"287.01 0 LINE",
"354.29 381.55 LINE",
"527.5 381.55 LINE",
"532.75 411.37 LINE",
"359.55 411.37 LINE",
"411.27 704.73 LINE",
"652.91 704.73 LINE",
"658.61 737 LINE",
"140.55 737 LINE",
"134.86 704.73 LINE",
"377.54 704.73 LINE",
"325.81 411.37 LINE",
"151.41 411.37 LINE",
"146.16 381.55 LINE",
"320.55 381.55 LINE",
"253.28 0 LINE"
);
}
);
width = 539;
}
);
leftKerningGroup = T;
note = Tbar;
rightKerningGroup = T;
unicode = 0166;
},
{
glyphname = Tcaron;
lastChange = "2019-09-04 12:29:29 +0000";
layers = (
{
hints = (
{
horizontal = 1;
place = "{704.73, 32.27}";
type = Stem;
},
{
horizontal = 1;
place = "{794.24, 25.99}";
type = Stem;
},
{
place = "{134.86, 523.75}";
type = Stem;
}
);
layerId = "4A657952-F232-4636-873B-F2B6F2CFB0B2";
paths = (
{
closed = 1;
nodes = (
"287.01 0 LINE",
"411.27 704.73 LINE",
"652.91 704.73 LINE",
"658.61 737 LINE",
"140.55 737 LINE",
"134.86 704.73 LINE",
"377.54 704.73 LINE",
"253.28 0 LINE"
);
},
{
closed = 1;
nodes = (
"434.57 794.24 LINE",
"561.45 932.35 LINE",
"528.46 932.35 LINE",
"415.11 820.23 LINE",
"399.55 820.23 LINE",
"325.76 932.35 LINE",
"296.27 932.35 LINE",
"378.39 794.24 LINE"
);
}
);
width = 539;
}
);
leftKerningGroup = T;
note = Tcaron;
rightKerningGroup = T;
unicode = 0164;
},
{
glyphname = uni0162;
lastChange = "2019-09-04 12:29:29 +0000";
layers = (
{
hints = (
{
horizontal = 1;
place = "{704.73, 32.27}";
type = Stem;
},
{
place = "{134.86, 523.75}";
type = Stem;
}
);
layerId = "4A657952-F232-4636-873B-F2B6F2CFB0B2";
paths = (
{
closed = 1;
nodes = (
"227.57 -131.27 LINE",
"286.96 0 LINE",
"287.01 0 LINE",
"411.27 704.73 LINE",
"652.91 704.73 LINE",
"658.61 737 LINE",
"140.55 737 LINE",
"134.86 704.73 LINE",
"377.54 704.73 LINE",
"253.28 0 LINE",
"255.72 0 LINE",
"199.61 -131.27 LINE"
);
}
);
width = 539;
}
);
leftKerningGroup = T;
note = uni0162;
rightKerningGroup = T;
unicode = 0162;
},
{
glyphname = uni021A;
lastChange = "2019-09-04 12:29:29 +0000";
layers = (
{
hints = (
{
horizontal = 1;
place = "{704.73, 32.27}";
type = Stem;
},
{
place = "{134.86, 523.75}";
type = Stem;
}
);
layerId = "4A657952-F232-4636-873B-F2B6F2CFB0B2";
paths = (
{
closed = 1;
nodes = (
"287.01 0 LINE",
"411.27 704.73 LINE",
"652.91 704.73 LINE",
"658.61 737 LINE",
"140.55 737 LINE",
"134.86 704.73 LINE",
"377.54 704.73 LINE",
"253.28 0 LINE"
);
},
{
closed = 1;
nodes = (
"199.72 -219.31 LINE",
"280.17 -57.25 LINE",
"240.89 -57.25 LINE",
"174.47 -219.31 LINE"
);
}
);
width = 539;
}
);
leftKerningGroup = T;
note = uni021A;
rightKerningGroup = T;
unicode = 021A;
},
{
glyphname = U;
lastChange = "2019-09-04 12:29:29 +0000";
layers = (
{
hints = (
{
horizontal = 1;
place = "{0, 31.78}";
type = Stem;
},
{
place = "{101.06, 625.22}";
type = Stem;
}
);
layerId = "4A657952-F232-4636-873B-F2B6F2CFB0B2";
paths = (
{
closed = 1;
nodes = (
"612.16 90.31 LINE",
"726.28 737 LINE",
"692.8 737 LINE",
"581.35 105.08 LINE",
"496.04 31.76 LINE",
"195.19 31.8 LINE",
"135.81 105.14 LINE",
"247.21 737 LINE",
"213.73 737 LINE",
"101.06 98.35 LINE",
"180.95 0.04 LINE",
"506.83 -0.04 LINE"
);
}
);
width = 687;
}
);
note = U;
unicode = 0055;
},
{
glyphname = Uacute;
lastChange = "2019-09-04 12:29:29 +0000";
layers = (
{
hints = (
{
horizontal = 1;
place = "{0, 31.78}";
type = Stem;
},
{
horizontal = 1;
place = "{794.25, 140.22}";
type = Stem;
},
{
place = "{101.06, 625.22}";
type = Stem;
}
);
layerId = "4A657952-F232-4636-873B-F2B6F2CFB0B2";
paths = (
{
closed = 1;
nodes = (
"612.16 90.31 LINE",
"726.28 737 LINE",
"692.8 737 LINE",
"581.35 105.08 LINE",
"496.04 31.76 LINE",
"195.19 31.8 LINE",
"135.81 105.14 LINE",
"247.21 737 LINE",
"213.73 737 LINE",
"101.06 98.35 LINE",
"180.95 0.04 LINE",
"506.83 -0.04 LINE"
);
},
{
closed = 1;
nodes = (
"494.71 794.25 LINE",
"622.34 934.47 LINE",
"572.8 934.47 LINE",
"461.43 794.25 LINE"
);
}
);
width = 687;
}
);
note = Uacute;
unicode = 00DA;
},
{
glyphname = Ubreve;
lastChange = "2019-09-04 12:29:29 +0000";
layers = (
{
hints = (
{
horizontal = 1;
place = "{0, 31.78}";
type = Stem;
},
{
horizontal = 1;
place = "{794.25, 27.22}";
type = Stem;
},
{
place = "{101.06, 625.22}";
type = Stem;
}
);
layerId = "4A657952-F232-4636-873B-F2B6F2CFB0B2";
paths = (
{
closed = 1;
nodes = (
"612.16 90.3 LINE",
"726.28 736.99 LINE",
"692.8 736.99 LINE",
"581.35 105.07 LINE",
"496.04 31.75 LINE",
"195.19 31.79 LINE",
"135.81 105.13 LINE",
"247.21 736.99 LINE",
"213.73 736.99 LINE",
"101.06 98.34 LINE",
"180.95 0.03 LINE",
"506.83 -0.05 LINE"
);
},
{
closed = 1;
nodes = (
"540.7 794.24 LINE",
"597.47 842.5 LINE",
"610.16 913.68 LINE",
"582.57 913.68 LINE",
"572.15 855.02 LINE",
"532.75 821.46 LINE",
"421.97 821.46 LINE",
"394.29 855.02 LINE",
"404.71 913.68 LINE",
"377.11 913.68 LINE",
"365.57 848.41 LINE",
"410.72 794.24 LINE"
);
}
);
width = 687;
}
);
note = Ubreve;
unicode = 016C;
},
{
glyphname = Ucircumflex;
lastChange = "2019-09-04 12:29:29 +0000";
layers = (
{
hints = (
{
horizontal = 1;
place = "{0, 31.78}";
type = Stem;
},
{
horizontal = 1;
place = "{906.37, 25.99}";
type = Stem;
},
{
place = "{101.06, 625.22}";
type = Stem;
}
);
layerId = "4A657952-F232-4636-873B-F2B6F2CFB0B2";
paths = (
{
closed = 1;
nodes = (
"612.16 90.31 LINE",
"726.28 737 LINE",
"692.8 737 LINE",
"581.35 105.08 LINE",
"496.04 31.76 LINE",
"195.19 31.8 LINE",
"135.81 105.14 LINE",
"247.21 737 LINE",
"213.73 737 LINE",
"101.06 98.35 LINE",
"180.95 0.04 LINE",
"506.83 -0.04 LINE"
);
},
{
closed = 1;
nodes = (
"373.82 794.25 LINE",
"487.16 906.37 LINE",
"502.72 906.37 LINE",
"576.51 794.25 LINE",
"606.01 794.25 LINE",
"523.88 932.36 LINE",
"467.7 932.36 LINE",
"340.82 794.25 LINE"
);
}
);
width = 687;
}
);
note = Ucircumflex;
unicode = 00DB;
},
{
glyphname = uni0214;
lastChange = "2019-09-04 12:29:29 +0000";
layers = (
{
hints = (
{
horizontal = 1;
place = "{0, 31.78}";
type = Stem;
},
{
horizontal = 1;
place = "{794.25, 140.22}";
type = Stem;
},
{
place = "{101.06, 625.22}";
type = Stem;
}
);
layerId = "4A657952-F232-4636-873B-F2B6F2CFB0B2";
paths = (
{
closed = 1;
nodes = (
"612.16 90.31 LINE",
"726.28 737 LINE",
"692.8 737 LINE",
"581.35 105.08 LINE",
"496.04 31.76 LINE",
"195.19 31.8 LINE",
"135.81 105.14 LINE",
"247.21 737 LINE",
"213.73 737 LINE",
"101.06 98.35 LINE",
"180.95 0.04 LINE",
"506.83 -0.04 LINE"
);
},
{
closed = 1;
nodes = (
"416.81 794.25 LINE",
"354.96 934.47 LINE",
"311.03 934.47 LINE",
"387.95 794.25 LINE"
);
},
{
closed = 1;
nodes = (
"536.17 794.25 LINE",
"474.33 934.47 LINE",
"430.4 934.47 LINE",
"507.31 794.25 LINE"
);
}
);
width = 687;
}
);
note = uni0214;
unicode = 0214;
},
{
glyphname = Udieresis;
lastChange = "2019-09-04 12:29:29 +0000";
layers = (
{
hints = (
{
horizontal = 1;
place = "{0, 31.78}";
type = Stem;
},
{
horizontal = 1;
place = "{794.25, 105.94}";
type = Stem;
},
{
place = "{101.06, 625.22}";
type = Stem;
}
);
layerId = "4A657952-F232-4636-873B-F2B6F2CFB0B2";
paths = (
{
closed = 1;
nodes = (
"612.16 90.31 LINE",
"726.28 737 LINE",
"692.8 737 LINE",
"581.35 105.08 LINE",
"496.04 31.76 LINE",
"195.19 31.8 LINE",
"135.81 105.14 LINE",
"247.21 737 LINE",
"213.73 737 LINE",
"101.06 98.35 LINE",
"180.95 0.04 LINE",
"506.83 -0.04 LINE"
);
},
{
closed = 1;
nodes = (
"358.5 794.25 LINE",
"377.18 900.19 LINE",
"344.18 900.19 LINE",
"325.5 794.25 LINE"
);
},
{
closed = 1;
nodes = (
"624.61 794.25 LINE",
"643.29 900.19 LINE",
"610.29 900.19 LINE",
"591.61 794.25 LINE"
);
}
);
width = 687;
}
);
note = Udieresis;
unicode = 00DC;
},
{
glyphname = uni1EE4;
lastChange = "2019-09-04 12:29:29 +0000";
layers = (
{
hints = (
{
horizontal = 1;
place = "{-163.07, 105.82}";
type = Stem;
},
{
horizontal = 1;
place = "{0, 31.78}";
type = Stem;
},
{
place = "{101.06, 625.22}";
type = Stem;
}
);
layerId = "4A657952-F232-4636-873B-F2B6F2CFB0B2";
paths = (
{
closed = 1;
nodes = (
"612.16 90.31 LINE",
"726.28 737 LINE",
"692.8 737 LINE",
"581.35 105.08 LINE",
"496.04 31.76 LINE",
"195.19 31.8 LINE",
"135.81 105.14 LINE",
"247.21 737 LINE",
"213.73 737 LINE",
"101.06 98.35 LINE",
"180.95 0.04 LINE",
"506.83 -0.04 LINE"
);
},
{
closed = 1;
nodes = (
"328.2 -163.07 LINE",
"346.88 -57.25 LINE",
"313.88 -57.25 LINE",
"295.2 -163.07 LINE"
);
}
);
width = 687;
}
);
note = uni1EE4;
unicode = 1EE4;
},
{
glyphname = Ugrave;
lastChange = "2019-09-04 12:29:29 +0000";
layers = (
{
hints = (
{
horizontal = 1;
place = "{0, 31.78}";
type = Stem;
},
{
horizontal = 1;
place = "{794.25, 140.22}";
type = Stem;
},
{
place = "{101.06, 625.22}";
type = Stem;
}
);
layerId = "4A657952-F232-4636-873B-F2B6F2CFB0B2";
paths = (
{
closed = 1;
nodes = (
"612.16 90.31 LINE",
"726.28 737 LINE",
"692.8 737 LINE",
"581.35 105.08 LINE",
"496.04 31.76 LINE",
"195.19 31.8 LINE",
"135.81 105.14 LINE",
"247.21 737 LINE",
"213.73 737 LINE",
"101.06 98.35 LINE",
"180.95 0.04 LINE",
"506.83 -0.04 LINE"
);
},
{
closed = 1;
nodes = (
"475.99 794.25 LINE",
"414.15 934.47 LINE",
"370.22 934.47 LINE",
"447.13 794.25 LINE"
);
}
);
width = 687;
}
);
note = Ugrave;
unicode = 00D9;
},
{
glyphname = uni1EE6;
lastChange = "2019-09-04 12:29:29 +0000";
layers = (
{
hints = (
{
horizontal = 1;
place = "{0, 31.78}";
type = Stem;
},
{
horizontal = 1;
place = "{958.55, 27.11}";
type = Stem;
},
{
place = "{464.04, 26.74}";
type = Stem;
}
);
layerId = "4A657952-F232-4636-873B-F2B6F2CFB0B2";
paths = (
{
closed = 1;
nodes = (
"612.16 90.31 LINE",
"726.28 737 LINE",
"692.8 737 LINE",
"581.35 105.08 LINE",
"496.04 31.76 LINE",
"195.19 31.8 LINE",
"135.81 105.14 LINE",
"247.21 737 LINE",
"213.73 737 LINE",
"101.06 98.35 LINE",
"180.95 0.04 LINE",
"506.83 -0.04 LINE"
);
},
{
closed = 1;
nodes = (
"488.4 794.25 LINE",
"493.16 820.52 LINE",
"572.55 885.28 LINE",
"583.42 946.85 LINE",
"553.03 985.66 LINE",
"474.38 985.66 LINE",
"429.93 945.81 LINE",
"448.15 924.93 LINE",
"485.87 958.55 LINE",
"538.38 958.55 LINE",
"553.35 939.32 LINE",
"546.26 899.37 LINE",
"467.61 834.59 LINE",
"460.47 794.25 LINE"
);
}
);
width = 687;
}
);
note = uni1EE6;
unicode = 1EE6;
},
{
glyphname = Uhorn;
lastChange = "2019-09-04 12:29:29 +0000";
layers = (
{
hints = (
{
horizontal = 1;
place = "{0, 31.78}";
type = Stem;
},
{
horizontal = 1;
place = "{630.57, 27.65}";
type = Stem;
},
{
place = "{101.06, 760.3}";
type = Stem;
}
);
layerId = "4A657952-F232-4636-873B-F2B6F2CFB0B2";
paths = (
{
closed = 1;
nodes = (
"612.16 90.31 LINE",
"707.5 630.57 LINE",
"781.86 630.57 LINE",
"861.36 802.84 LINE",
"821.8 802.84 LINE",
"763.87 658.22 LINE",
"712.38 658.22 LINE",
"726.28 737 LINE",
"692.8 737 LINE",
"581.35 105.08 LINE",
"496.04 31.76 LINE",
"195.19 31.8 LINE",
"135.81 105.14 LINE",
"247.21 737 LINE",
"213.73 737 LINE",
"101.06 98.35 LINE",
"180.95 0.04 LINE",
"506.83 -0.04 LINE"
);
}
);
width = 687;
}
);
note = Uhorn;
unicode = 01AF;
},
{
glyphname = uni1EE8;
lastChange = "2019-09-04 12:29:29 +0000";
layers = (
{
hints = (
{
horizontal = 1;
place = "{0, 31.78}";
type = Stem;
},
{
horizontal = 1;
place = "{630.57, 27.65}";
type = Stem;
},
{
horizontal = 1;
place = "{794.25, 140.22}";
type = Stem;
},
{
place = "{101.06, 760.3}";
type = Stem;
}
);
layerId = "4A657952-F232-4636-873B-F2B6F2CFB0B2";
paths = (
{
closed = 1;
nodes = (
"612.16 90.31 LINE",
"707.5 630.57 LINE",
"781.86 630.57 LINE",
"861.36 802.84 LINE",
"821.8 802.84 LINE",
"763.87 658.22 LINE",
"712.38 658.22 LINE",
"726.28 737 LINE",
"692.8 737 LINE",
"581.35 105.08 LINE",
"496.04 31.76 LINE",
"195.19 31.8 LINE",
"135.81 105.14 LINE",
"247.21 737 LINE",
"213.73 737 LINE",
"101.06 98.35 LINE",
"180.95 0.04 LINE",
"506.83 -0.04 LINE"
);
},
{
closed = 1;
nodes = (
"494.71 794.25 LINE",
"622.34 934.47 LINE",
"572.8 934.47 LINE",
"461.43 794.25 LINE"
);
}
);
width = 687;
}
);
note = uni1EE8;
unicode = 1EE8;
},
{
glyphname = uni1EF0;
lastChange = "2019-09-04 12:29:29 +0000";
layers = (
{
hints = (
{
horizontal = 1;
place = "{-163.07, 105.82}";
type = Stem;
},
{
horizontal = 1;
place = "{0, 31.78}";
type = Stem;
},
{
horizontal = 1;
place = "{630.57, 27.65}";
type = Stem;
},
{
place = "{101.06, 760.3}";
type = Stem;
}
);
layerId = "4A657952-F232-4636-873B-F2B6F2CFB0B2";
paths = (
{
closed = 1;
nodes = (
"612.16 90.31 LINE",
"707.5 630.57 LINE",
"781.86 630.57 LINE",
"861.36 802.84 LINE",
"821.8 802.84 LINE",
"763.87 658.22 LINE",
"712.38 658.22 LINE",
"726.28 737 LINE",
"692.8 737 LINE",
"581.35 105.08 LINE",
"496.04 31.76 LINE",
"195.19 31.8 LINE",
"135.81 105.14 LINE",
"247.21 737 LINE",
"213.73 737 LINE",
"101.06 98.35 LINE",
"180.95 0.04 LINE",
"506.83 -0.04 LINE"
);
},
{
closed = 1;
nodes = (
"328.2 -163.07 LINE",
"346.88 -57.25 LINE",
"313.88 -57.25 LINE",
"295.2 -163.07 LINE"
);
}
);
width = 687;
}
);
note = uni1EF0;
unicode = 1EF0;
},
{
glyphname = uni1EEA;
lastChange = "2019-09-04 12:29:29 +0000";
layers = (
{
hints = (
{
horizontal = 1;
place = "{0, 31.78}";
type = Stem;
},
{
horizontal = 1;
place = "{630.57, 27.65}";
type = Stem;
},
{
horizontal = 1;
place = "{794.25, 140.22}";
type = Stem;
},
{
place = "{101.06, 760.3}";
type = Stem;
}
);
layerId = "4A657952-F232-4636-873B-F2B6F2CFB0B2";
paths = (
{
closed = 1;
nodes = (
"612.16 90.31 LINE",
"707.5 630.57 LINE",
"781.86 630.57 LINE",
"861.36 802.84 LINE",
"821.8 802.84 LINE",
"763.87 658.22 LINE",
"712.38 658.22 LINE",
"726.28 737 LINE",
"692.8 737 LINE",
"581.35 105.08 LINE",
"496.04 31.76 LINE",
"195.19 31.8 LINE",
"135.81 105.14 LINE",
"247.21 737 LINE",
"213.73 737 LINE",
"101.06 98.35 LINE",
"180.95 0.04 LINE",
"506.83 -0.04 LINE"
);
},
{
closed = 1;
nodes = (
"475.99 794.25 LINE",
"414.15 934.47 LINE",
"370.22 934.47 LINE",
"447.13 794.25 LINE"
);
}
);
width = 687;
}
);
note = uni1EEA;
unicode = 1EEA;
},
{
glyphname = uni1EEC;
lastChange = "2019-09-04 12:29:29 +0000";
layers = (
{
hints = (
{
horizontal = 1;
place = "{0, 31.78}";
type = Stem;
},
{
horizontal = 1;
place = "{630.57, 27.65}";
type = Stem;
},
{
horizontal = 1;
place = "{958.55, 27.11}";
type = Stem;
},
{
place = "{464.04, 26.74}";
type = Stem;
}
);
layerId = "4A657952-F232-4636-873B-F2B6F2CFB0B2";
paths = (
{
closed = 1;
nodes = (
"612.16 90.31 LINE",
"707.5 630.57 LINE",
"781.86 630.57 LINE",
"861.36 802.84 LINE",
"821.8 802.84 LINE",
"763.87 658.22 LINE",
"712.38 658.22 LINE",
"726.28 737 LINE",
"692.8 737 LINE",
"581.35 105.08 LINE",
"496.04 31.76 LINE",
"195.19 31.8 LINE",
"135.81 105.14 LINE",
"247.21 737 LINE",
"213.73 737 LINE",
"101.06 98.35 LINE",
"180.95 0.04 LINE",
"506.83 -0.04 LINE"
);
},
{
closed = 1;
nodes = (
"488.4 794.25 LINE",
"493.16 820.52 LINE",
"572.55 885.28 LINE",
"583.42 946.85 LINE",
"553.03 985.66 LINE",
"474.38 985.66 LINE",
"429.93 945.81 LINE",
"448.15 924.93 LINE",
"485.87 958.55 LINE",
"538.38 958.55 LINE",
"553.35 939.32 LINE",
"546.26 899.37 LINE",
"467.61 834.59 LINE",
"460.47 794.25 LINE"
);
}
);
width = 687;
}
);
note = uni1EEC;
unicode = 1EEC;
},
{
glyphname = uni1EEE;
lastChange = "2019-09-04 12:29:29 +0000";
layers = (
{
hints = (
{
horizontal = 1;
place = "{0, 31.78}";
type = Stem;
},
{
horizontal = 1;
place = "{630.57, 27.65}";
type = Stem;
},
{
horizontal = 1;
place = "{794.25, 26.98}";
type = Stem;
},
{
horizontal = 1;
place = "{870.03, 26.98}";
type = Stem;
},
{
place = "{101.06, 760.3}";
type = Stem;
}
);
layerId = "4A657952-F232-4636-873B-F2B6F2CFB0B2";
paths = (
{
closed = 1;
nodes = (
"612.16 90.31 LINE",
"707.5 630.57 LINE",
"781.86 630.57 LINE",
"861.36 802.84 LINE",
"821.8 802.84 LINE",
"763.87 658.22 LINE",
"712.38 658.22 LINE",
"726.28 737 LINE",
"692.8 737 LINE",
"581.35 105.08 LINE",
"496.04 31.76 LINE",
"195.19 31.8 LINE",
"135.81 105.14 LINE",
"247.21 737 LINE",
"213.73 737 LINE",
"101.06 98.35 LINE",
"180.95 0.04 LINE",
"506.83 -0.04 LINE"
);
},
{
closed = 1;
nodes = (
"579.78 794.25 LINE",
"635.68 843.16 LINE",
"645.94 896.64 LINE",
"624.15 896.64 LINE",
"614.41 857.48 LINE",
"568.9 821.23 LINE",
"531.58 821.23 LINE",
"469.06 897.01 LINE",
"395.58 897.01 LINE",
"339.55 847.61 LINE",
"329.22 794.61 LINE",
"351.14 794.61 LINE",
"360.98 833.65 LINE",
"406.48 870.03 LINE",
"455.04 870.03 LINE",
"517.46 794.25 LINE"
);
}
);
width = 687;
}
);
note = uni1EEE;
unicode = 1EEE;
},
{
glyphname = Uhungarumlaut;
lastChange = "2019-09-04 12:29:29 +0000";
layers = (
{
hints = (
{
horizontal = 1;
place = "{0, 31.78}";
type = Stem;
},
{
horizontal = 1;
place = "{794.25, 140.22}";
type = Stem;
},
{
place = "{101.06, 625.22}";
type = Stem;
}
);
layerId = "4A657952-F232-4636-873B-F2B6F2CFB0B2";
paths = (
{
closed = 1;
nodes = (
"612.16 90.31 LINE",
"726.28 737 LINE",
"692.8 737 LINE",
"581.35 105.08 LINE",
"496.04 31.76 LINE",
"195.19 31.8 LINE",
"135.81 105.14 LINE",
"247.21 737 LINE",
"213.73 737 LINE",
"101.06 98.35 LINE",
"180.95 0.04 LINE",
"506.83 -0.04 LINE"
);
},
{
closed = 1;
nodes = (
"423.75 794.25 LINE",
"551.38 934.47 LINE",
"501.84 934.47 LINE",
"390.47 794.25 LINE"
);
},
{
closed = 1;
nodes = (
"543.04 794.25 LINE",
"670.67 934.47 LINE",
"621.14 934.47 LINE",
"509.76 794.25 LINE"
);
}
);
width = 687;
}
);
note = Uhungarumlaut;
unicode = 0170;
},
{
glyphname = uni0216;
lastChange = "2019-09-04 12:29:29 +0000";
layers = (
{
hints = (
{
horizontal = 1;
place = "{0, 31.78}";
type = Stem;
},
{
horizontal = 1;
place = "{886.46, 27.23}";
type = Stem;
},
{
place = "{101.06, 625.22}";
type = Stem;
}
);
layerId = "4A657952-F232-4636-873B-F2B6F2CFB0B2";
paths = (
{
closed = 1;
nodes = (
"612.16 90.31 LINE",
"726.28 737 LINE",
"692.8 737 LINE",
"581.35 105.08 LINE",
"496.04 31.76 LINE",
"195.19 31.8 LINE",
"135.81 105.14 LINE",
"247.21 737 LINE",
"213.73 737 LINE",
"101.06 98.35 LINE",
"180.95 0.04 LINE",
"506.83 -0.04 LINE"
);
},
{
closed = 1;
nodes = (
"387.79 794.25 LINE",
"398.21 852.91 LINE",
"437.61 886.46 LINE",
"548.39 886.46 LINE",
"576.07 852.91 LINE",
"565.65 794.25 LINE",
"593.25 794.25 LINE",
"604.78 858.91 LINE",
"559.5 913.69 LINE",
"429.65 913.69 LINE",
"372.8 865.3 LINE",
"360.19 794.25 LINE"
);
}
);
width = 687;
}
);
note = uni0216;
unicode = 0216;
},
{
glyphname = Umacron;
lastChange = "2019-09-04 12:29:29 +0000";
layers = (
{
hints = (
{
horizontal = 1;
place = "{0, 31.78}";
type = Stem;
},
{
horizontal = 1;
place = "{794.25, 28.57}";
type = Stem;
},
{
place = "{101.06, 625.22}";
type = Stem;
}
);
layerId = "4A657952-F232-4636-873B-F2B6F2CFB0B2";
paths = (
{
closed = 1;
nodes = (
"612.16 90.31 LINE",
"726.28 737 LINE",
"692.8 737 LINE",
"581.35 105.08 LINE",
"496.04 31.76 LINE",
"195.19 31.8 LINE",
"135.81 105.14 LINE",
"247.21 737 LINE",
"213.73 737 LINE",
"101.06 98.35 LINE",
"180.95 0.04 LINE",
"506.83 -0.04 LINE"
);
},
{
closed = 1;
nodes = (
"626.5 794.25 LINE",
"631.61 822.82 LINE",
"332.5 822.82 LINE",
"327.39 794.25 LINE"
);
}
);
width = 687;
}
);
note = Umacron;
unicode = 016A;
},
{
glyphname = Uogonek;
lastChange = "2019-09-04 12:29:29 +0000";
layers = (
{
hints = (
{
horizontal = 1;
place = "{-142.29, 28.59}";
type = Stem;
},
{
horizontal = 1;
place = "{0.02, 31.76}";
type = Stem;
},
{
place = "{101.06, 625.22}";
type = Stem;
}
);
layerId = "4A657952-F232-4636-873B-F2B6F2CFB0B2";
paths = (
{
closed = 1;
nodes = (
"362.32 -142.29 LINE",
"367.36 -113.7 LINE",
"344.27 -113.7 LINE",
"319 -83.03 LINE",
"326.28 -42.17 LINE",
"387.44 -0.01 LINE",
"506.82 -0.04 LINE",
"612.15 90.31 LINE",
"726.27 737 LINE",
"692.8 737 LINE",
"581.35 105.08 LINE",
"496.04 31.76 LINE",
"195.19 31.8 LINE",
"135.81 105.14 LINE",
"247.21 737 LINE",
"213.73 737 LINE",
"101.06 98.35 LINE",
"180.95 0.04 LINE",
"344.32 0 LINE",
"300.2 -30.34 LINE",
"289.83 -89.91 LINE",
"332.83 -142.29 LINE"
);
}
);
width = 687;
}
);
note = Uogonek;
unicode = 0172;
},
{
glyphname = Uring;
lastChange = "2019-09-04 12:29:29 +0000";
layers = (
{
hints = (
{
horizontal = 1;
place = "{0, 31.78}";
type = Stem;
},
{
horizontal = 1;
place = "{794.25, 25.76}";
type = Stem;
},
{
horizontal = 1;
place = "{940.5, 25.76}";
type = Stem;
},
{
place = "{101.06, 625.22}";
type = Stem;
}
);
layerId = "4A657952-F232-4636-873B-F2B6F2CFB0B2";
paths = (
{
closed = 1;
nodes = (
"612.16 90.31 LINE",
"726.28 737 LINE",
"692.8 737 LINE",
"581.35 105.08 LINE",
"496.04 31.76 LINE",
"195.19 31.8 LINE",
"135.81 105.14 LINE",
"247.21 737 LINE",
"213.73 737 LINE",
"101.06 98.35 LINE",
"180.95 0.04 LINE",
"506.83 -0.04 LINE"
);
},
{
closed = 1;
nodes = (
"513.8 794.25 LINE",
"570.37 842.47 LINE",
"582.59 911.79 LINE",
"537.94 966.26 LINE",
"464.37 966.26 LINE",
"407.9 918.08 LINE",
"395.69 848.89 LINE",
"440.58 794.25 LINE"
);
},
{
closed = 1;
nodes = (
"424.21 854.16 LINE",
"433.43 906.23 LINE",
"473.79 940.5 LINE",
"525.84 940.5 LINE",
"554.04 906.23 LINE",
"544.82 854.16 LINE",
"504.58 820.01 LINE",
"452.53 820.01 LINE"
);
}
);
width = 687;
}
);
note = Uring;
unicode = 016E;
},
{
glyphname = Utilde;
lastChange = "2019-09-04 12:29:29 +0000";
layers = (
{
hints = (
{
horizontal = 1;
place = "{0, 31.78}";
type = Stem;
},
{
horizontal = 1;
place = "{794.25, 26.98}";
type = Stem;
},
{
horizontal = 1;
place = "{870.03, 26.98}";
type = Stem;
},
{
place = "{101.06, 625.22}";
type = Stem;
}
);
layerId = "4A657952-F232-4636-873B-F2B6F2CFB0B2";
paths = (
{
closed = 1;
nodes = (
"612.16 90.31 LINE",
"726.28 737 LINE",
"692.8 737 LINE",
"581.35 105.08 LINE",
"496.04 31.76 LINE",
"195.19 31.8 LINE",
"135.81 105.14 LINE",
"247.21 737 LINE",
"213.73 737 LINE",
"101.06 98.35 LINE",
"180.95 0.04 LINE",
"506.83 -0.04 LINE"
);
},
{
closed = 1;
nodes = (
"579.78 794.25 LINE",
"635.68 843.16 LINE",
"645.94 896.64 LINE",
"624.15 896.64 LINE",
"614.41 857.48 LINE",
"568.9 821.23 LINE",
"531.58 821.23 LINE",
"469.06 897.01 LINE",
"395.58 897.01 LINE",
"339.55 847.61 LINE",
"329.22 794.61 LINE",
"351.14 794.61 LINE",
"360.98 833.65 LINE",
"406.48 870.03 LINE",
"455.04 870.03 LINE",
"517.46 794.25 LINE"
);
}
);
width = 687;
}
);
note = Utilde;
unicode = 0168;
},
{
glyphname = V;
lastChange = "2019-09-11 15:56:26 +0000";
layers = (
{
hints = (
{
horizontal = 1;
place = "{0, 32.75}";
type = Stem;
},
{
place = "{148.45, 595.77}";
type = Stem;
}
);
layerId = "4A657952-F232-4636-873B-F2B6F2CFB0B2";
paths = (
{
closed = 1;
nodes = (
"348 0 LINE",
"744 737 LINE",
"708 737 LINE",
"331 33 LINE",
"310 33 LINE",
"180 737 LINE",
"148 737 LINE",
"284 0 LINE"
);
}
);
width = 633;
}
);
leftKerningGroup = V;
note = V;
rightKerningGroup = V;
unicode = 0056;
},
{
glyphname = W;
lastChange = "2019-09-11 15:57:04 +0000";
layers = (
{
hints = (
{
horizontal = 1;
place = "{0, 32.75}";
type = Stem;
},
{
place = "{138.89, 857.5}";
type = Stem;
}
);
layerId = "4A657952-F232-4636-873B-F2B6F2CFB0B2";
paths = (
{
closed = 1;
nodes = (
"275.3 0 LINE",
"555.52 671.31 LINE",
"599.32 0 LINE",
"665.68 0 LINE",
"996.39 737 LINE",
"960.94 737 LINE",
"647.64 32.75 LINE",
"627.39 32.75 LINE",
"582.61 737 LINE",
"549.07 737 LINE",
"256.33 32.75 LINE",
"236.08 32.75 LINE",
"171.22 737 LINE",
"138.89 737 LINE",
"209.31 0 LINE"
);
}
);
width = 895;
}
);
leftKerningGroup = W;
note = W;
rightKerningGroup = W;
unicode = 0057;
},
{
glyphname = Wacute;
lastChange = "2019-09-04 12:29:29 +0000";
layers = (
{
hints = (
{
horizontal = 1;
place = "{0, 32.75}";
type = Stem;
},
{
horizontal = 1;
place = "{794.25, 140.22}";
type = Stem;
},
{
place = "{138.89, 857.5}";
type = Stem;
}
);
layerId = "4A657952-F232-4636-873B-F2B6F2CFB0B2";
paths = (
{
closed = 1;
nodes = (
"275.3 0 LINE",
"555.52 671.31 LINE",
"599.32 0 LINE",
"665.68 0 LINE",
"996.39 737 LINE",
"960.94 737 LINE",
"647.64 32.75 LINE",
"627.39 32.75 LINE",
"582.61 737 LINE",
"549.07 737 LINE",
"256.33 32.75 LINE",
"236.08 32.75 LINE",
"171.22 737 LINE",
"138.89 737 LINE",
"209.31 0 LINE"
);
},
{
closed = 1;
nodes = (
"593.84 794.25 LINE",
"721.48 934.47 LINE",
"671.94 934.47 LINE",
"560.57 794.25 LINE"
);
}
);
width = 895;
}
);
leftKerningGroup = W;
note = Wacute;
rightKerningGroup = W;
unicode = 1E82;
},
{
glyphname = Wcircumflex;
lastChange = "2019-09-04 12:29:29 +0000";
layers = (
{
hints = (
{
horizontal = 1;
place = "{0, 32.75}";
type = Stem;
},
{
horizontal = 1;
place = "{906.37, 25.99}";
type = Stem;
},
{
place = "{138.89, 857.5}";
type = Stem;
}
);
layerId = "4A657952-F232-4636-873B-F2B6F2CFB0B2";
paths = (
{
closed = 1;
nodes = (
"275.3 0 LINE",
"555.52 671.31 LINE",
"599.32 0 LINE",
"665.68 0 LINE",
"996.39 737 LINE",
"960.94 737 LINE",
"647.64 32.75 LINE",
"627.39 32.75 LINE",
"582.61 737 LINE",
"549.07 737 LINE",
"256.33 32.75 LINE",
"236.08 32.75 LINE",
"171.22 737 LINE",
"138.89 737 LINE",
"209.31 0 LINE"
);
},
{
closed = 1;
nodes = (
"472.96 794.25 LINE",
"586.3 906.37 LINE",
"601.86 906.37 LINE",
"675.65 794.25 LINE",
"705.15 794.25 LINE",
"623.02 932.36 LINE",
"566.84 932.36 LINE",
"439.96 794.25 LINE"
);
}
);
width = 895;
}
);
leftKerningGroup = W;
note = Wcircumflex;
rightKerningGroup = W;
unicode = 0174;
},
{
glyphname = Wdieresis;
lastChange = "2019-09-04 12:29:29 +0000";
layers = (
{
hints = (
{
horizontal = 1;
place = "{0, 32.75}";
type = Stem;
},
{
horizontal = 1;
place = "{794.25, 105.94}";
type = Stem;
},
{
place = "{138.89, 857.5}";
type = Stem;
}
);
layerId = "4A657952-F232-4636-873B-F2B6F2CFB0B2";
paths = (
{
closed = 1;
nodes = (
"275.3 0 LINE",
"555.52 671.31 LINE",
"599.32 0 LINE",
"665.68 0 LINE",
"996.39 737 LINE",
"960.94 737 LINE",
"647.64 32.75 LINE",
"627.39 32.75 LINE",
"582.61 737 LINE",
"549.07 737 LINE",
"256.33 32.75 LINE",
"236.08 32.75 LINE",
"171.22 737 LINE",
"138.89 737 LINE",
"209.31 0 LINE"
);
},
{
closed = 1;
nodes = (
"457.64 794.25 LINE",
"476.32 900.19 LINE",
"443.32 900.19 LINE",
"424.64 794.25 LINE"
);
},
{
closed = 1;
nodes = (
"723.75 794.25 LINE",
"742.43 900.19 LINE",
"709.43 900.19 LINE",
"690.75 794.25 LINE"
);
}
);
width = 895;
}
);
leftKerningGroup = W;
note = Wdieresis;
rightKerningGroup = W;
unicode = 1E84;
},
{
glyphname = Wgrave;
lastChange = "2019-09-04 12:29:29 +0000";
layers = (
{
hints = (
{
horizontal = 1;
place = "{0, 32.75}";
type = Stem;
},
{
horizontal = 1;
place = "{794.25, 140.22}";
type = Stem;
},
{
place = "{138.89, 857.5}";
type = Stem;
}
);
layerId = "4A657952-F232-4636-873B-F2B6F2CFB0B2";
paths = (
{
closed = 1;
nodes = (
"275.3 0 LINE",
"555.52 671.31 LINE",
"599.32 0 LINE",
"665.68 0 LINE",
"996.39 737 LINE",
"960.94 737 LINE",
"647.64 32.75 LINE",
"627.39 32.75 LINE",
"582.61 737 LINE",
"549.07 737 LINE",
"256.33 32.75 LINE",
"236.08 32.75 LINE",
"171.22 737 LINE",
"138.89 737 LINE",
"209.31 0 LINE"
);
},
{
closed = 1;
nodes = (
"575.13 794.25 LINE",
"513.28 934.47 LINE",
"469.35 934.47 LINE",
"546.27 794.25 LINE"
);
}
);
width = 895;
}
);
leftKerningGroup = W;
note = Wgrave;
rightKerningGroup = W;
unicode = 1E80;
},
{
glyphname = X;
lastChange = "2019-09-04 12:29:29 +0000";
layers = (
{
hints = (
{
horizontal = 1;
place = "{351.87, 35.57}";
type = Stem;
},
{
place = "{15.35, 677.3}";
type = Stem;
}
);
layerId = "4A657952-F232-4636-873B-F2B6F2CFB0B2";
paths = (
{
closed = 1;
nodes = (
"56.55 0 LINE",
"340.36 351.87 LINE",
"362.39 351.87 LINE",
"522.16 0 LINE",
"557.09 0 LINE",
"390.26 365.24 LINE",
"692.65 737 LINE",
"651.48 737 LINE",
"367.98 387.44 LINE",
"346.4 387.44 LINE",
"186.46 737 LINE",
"151.88 737 LINE",
"318.55 374.51 LINE",
"15.35 0 LINE"
);
}
);
width = 579;
}
);
leftKerningGroup = X;
note = X;
rightKerningGroup = X;
unicode = 0058;
},
{
glyphname = Y;
lastChange = "2019-09-04 12:29:29 +0000";
layers = (
{
hints = (
{
horizontal = 1;
place = "{0, 737}";
type = Stem;
},
{
place = "{150.71, 549.43}";
type = Stem;
}
);
layerId = "4A657952-F232-4636-873B-F2B6F2CFB0B2";
paths = (
{
closed = 1;
nodes = (
"309.87 0 LINE",
"368.23 331.9 LINE",
"700.14 737 LINE",
"658.91 737 LINE",
"365.82 377.53 LINE",
"353.34 377.53 LINE",
"185.66 737 LINE",
"150.71 737 LINE",
"336.34 341.48 LINE",
"276.15 0 LINE"
);
}
);
width = 587;
}
);
leftKerningGroup = Y;
note = Y;
rightKerningGroup = Y;
unicode = 0059;
},
{
glyphname = Yacute;
lastChange = "2019-09-04 12:29:29 +0000";
layers = (
{
hints = (
{
horizontal = 1;
place = "{793.8, 140.23}";
type = Stem;
},
{
place = "{150.71, 549.43}";
type = Stem;
}
);
layerId = "4A657952-F232-4636-873B-F2B6F2CFB0B2";
paths = (
{
closed = 1;
nodes = (
"309.87 0 LINE",
"368.23 331.9 LINE",
"700.14 737 LINE",
"658.91 737 LINE",
"365.82 377.53 LINE",
"353.34 377.53 LINE",
"185.66 737 LINE",
"150.71 737 LINE",
"336.34 341.48 LINE",
"276.15 0 LINE"
);
},
{
closed = 1;
nodes = (
"451 793.8 LINE",
"578.63 934.03 LINE",
"529.09 934.03 LINE",
"417.72 793.8 LINE"
);
}
);
width = 587;
}
);
leftKerningGroup = Y;
note = Yacute;
rightKerningGroup = Y;
unicode = 00DD;
},
{
glyphname = Ycircumflex;
lastChange = "2019-09-04 12:29:29 +0000";
layers = (
{
hints = (
{
horizontal = 1;
place = "{905.93, 25.98}";
type = Stem;
},
{
place = "{150.71, 549.43}";
type = Stem;
}
);
layerId = "4A657952-F232-4636-873B-F2B6F2CFB0B2";
paths = (
{
closed = 1;
nodes = (
"309.87 0 LINE",
"368.23 331.9 LINE",
"700.14 737 LINE",
"658.91 737 LINE",
"365.82 377.53 LINE",
"353.34 377.53 LINE",
"185.66 737 LINE",
"150.71 737 LINE",
"336.34 341.48 LINE",
"276.15 0 LINE"
);
},
{
closed = 1;
nodes = (
"330.11 793.8 LINE",
"443.46 905.93 LINE",
"459.01 905.93 LINE",
"532.8 793.8 LINE",
"562.3 793.8 LINE",
"480.17 931.91 LINE",
"423.99 931.91 LINE",
"297.12 793.8 LINE"
);
}
);
width = 587;
}
);
leftKerningGroup = Y;
note = Ycircumflex;
rightKerningGroup = Y;
unicode = 0176;
},
{
glyphname = Ydieresis;
lastChange = "2019-09-04 12:29:29 +0000";
layers = (
{
hints = (
{
horizontal = 1;
place = "{793.8, 105.95}";
type = Stem;
},
{
place = "{150.71, 549.43}";
type = Stem;
}
);
layerId = "4A657952-F232-4636-873B-F2B6F2CFB0B2";
paths = (
{
closed = 1;
nodes = (
"309.87 0 LINE",
"368.23 331.9 LINE",
"700.14 737 LINE",
"658.91 737 LINE",
"365.82 377.53 LINE",
"353.34 377.53 LINE",
"185.66 737 LINE",
"150.71 737 LINE",
"336.34 341.48 LINE",
"276.15 0 LINE"
);
},
{
closed = 1;
nodes = (
"314.79 793.8 LINE",
"333.47 899.75 LINE",
"300.47 899.75 LINE",
"281.79 793.8 LINE"
);
},
{
closed = 1;
nodes = (
"580.9 793.8 LINE",
"599.58 899.75 LINE",
"566.58 899.75 LINE",
"547.9 793.8 LINE"
);
}
);
width = 587;
}
);
leftKerningGroup = Y;
note = Ydieresis;
rightKerningGroup = Y;
unicode = 0178;
},
{
glyphname = uni1EF4;
lastChange = "2019-09-04 12:29:29 +0000";
layers = (
{
hints = (
{
horizontal = 1;
place = "{-163.07, 105.82}";
type = Stem;
},
{
place = "{150.71, 549.43}";
type = Stem;
}
);
layerId = "4A657952-F232-4636-873B-F2B6F2CFB0B2";
paths = (
{
closed = 1;
nodes = (
"309.87 0 LINE",
"368.23 331.9 LINE",
"700.14 737 LINE",
"658.91 737 LINE",
"365.82 377.53 LINE",
"353.34 377.53 LINE",
"185.66 737 LINE",
"150.71 737 LINE",
"336.34 341.48 LINE",
"276.15 0 LINE"
);
},
{
closed = 1;
nodes = (
"280.92 -163.07 LINE",
"299.61 -57.25 LINE",
"266.61 -57.25 LINE",
"247.92 -163.07 LINE"
);
}
);
width = 587;
}
);
leftKerningGroup = Y;
note = uni1EF4;
rightKerningGroup = Y;
unicode = 1EF4;
},
{
glyphname = Ygrave;
lastChange = "2019-09-04 12:29:29 +0000";
layers = (
{
hints = (
{
horizontal = 1;
place = "{793.8, 140.23}";
type = Stem;
},
{
place = "{150.71, 549.43}";
type = Stem;
}
);
layerId = "4A657952-F232-4636-873B-F2B6F2CFB0B2";
paths = (
{
closed = 1;
nodes = (
"309.87 0 LINE",
"368.23 331.9 LINE",
"700.14 737 LINE",
"658.91 737 LINE",
"365.82 377.53 LINE",
"353.34 377.53 LINE",
"185.66 737 LINE",
"150.71 737 LINE",
"336.34 341.48 LINE",
"276.15 0 LINE"
);
},
{
closed = 1;
nodes = (
"432.28 793.8 LINE",
"370.44 934.03 LINE",
"326.51 934.03 LINE",
"403.42 793.8 LINE"
);
}
);
width = 587;
}
);
leftKerningGroup = Y;
note = Ygrave;
rightKerningGroup = Y;
unicode = 1EF2;
},
{
glyphname = uni1EF6;
lastChange = "2019-09-04 12:29:29 +0000";
layers = (
{
hints = (
{
horizontal = 1;
place = "{958.11, 27.11}";
type = Stem;
},
{
place = "{420.33, 26.74}";
type = Stem;
}
);
layerId = "4A657952-F232-4636-873B-F2B6F2CFB0B2";
paths = (
{
closed = 1;
nodes = (
"309.87 0 LINE",
"368.23 331.9 LINE",
"700.14 737 LINE",
"658.91 737 LINE",
"365.82 377.53 LINE",
"353.34 377.53 LINE",
"185.66 737 LINE",
"150.71 737 LINE",
"336.34 341.48 LINE",
"276.15 0 LINE"
);
},
{
closed = 1;
nodes = (
"444.69 793.8 LINE",
"449.45 820.07 LINE",
"528.84 884.83 LINE",
"539.71 946.41 LINE",
"509.33 985.22 LINE",
"430.68 985.22 LINE",
"386.23 945.37 LINE",
"404.44 924.48 LINE",
"442.16 958.11 LINE",
"494.67 958.11 LINE",
"509.64 938.87 LINE",
"502.55 898.93 LINE",
"423.9 834.15 LINE",
"416.76 793.8 LINE"
);
}
);
width = 587;
}
);
leftKerningGroup = Y;
note = uni1EF6;
rightKerningGroup = Y;
unicode = 1EF6;
},
{
glyphname = uni0232;
lastChange = "2019-09-04 12:29:29 +0000";
layers = (
{
hints = (
{
horizontal = 1;
place = "{793.8, 28.57}";
type = Stem;
},
{
place = "{150.71, 549.43}";
type = Stem;
}
);
layerId = "4A657952-F232-4636-873B-F2B6F2CFB0B2";
paths = (
{
closed = 1;
nodes = (
"309.87 0 LINE",
"368.23 331.9 LINE",
"700.14 737 LINE",
"658.91 737 LINE",
"365.82 377.53 LINE",
"353.34 377.53 LINE",
"185.66 737 LINE",
"150.71 737 LINE",
"336.34 341.48 LINE",
"276.15 0 LINE"
);
},
{
closed = 1;
nodes = (
"582.79 793.8 LINE",
"587.9 822.37 LINE",
"288.79 822.37 LINE",
"283.68 793.8 LINE"
);
}
);
width = 587;
}
);
leftKerningGroup = Y;
note = uni0232;
rightKerningGroup = Y;
unicode = 0232;
},
{
glyphname = uni1EF8;
lastChange = "2019-09-04 12:29:29 +0000";
layers = (
{
hints = (
{
horizontal = 1;
place = "{793.8, 26.99}";
type = Stem;
},
{
horizontal = 1;
place = "{869.58, 26.99}";
type = Stem;
},
{
place = "{150.71, 549.43}";
type = Stem;
}
);
layerId = "4A657952-F232-4636-873B-F2B6F2CFB0B2";
paths = (
{
closed = 1;
nodes = (
"309.87 0 LINE",
"368.23 331.9 LINE",
"700.14 737 LINE",
"658.91 737 LINE",
"365.82 377.53 LINE",
"353.34 377.53 LINE",
"185.66 737 LINE",
"150.71 737 LINE",
"336.34 341.48 LINE",
"276.15 0 LINE"
);
},
{
closed = 1;
nodes = (
"536.08 793.8 LINE",
"591.97 842.72 LINE",
"602.23 896.19 LINE",
"580.44 896.19 LINE",
"570.71 857.04 LINE",
"525.19 820.79 LINE",
"487.87 820.79 LINE",
"425.35 896.57 LINE",
"351.88 896.57 LINE",
"295.84 847.16 LINE",
"285.51 794.16 LINE",
"307.43 794.16 LINE",
"317.28 833.21 LINE",
"362.78 869.58 LINE",
"411.33 869.58 LINE",
"473.75 793.8 LINE"
);
}
);
width = 587;
}
);
leftKerningGroup = Y;
note = uni1EF8;
rightKerningGroup = Y;
unicode = 1EF8;
},
{
glyphname = Z;
lastChange = "2019-09-04 12:29:29 +0000";
layers = (
{
hints = (
{
horizontal = 1;
place = "{0, 32.26}";
type = Stem;
},
{
horizontal = 1;
place = "{704.73, 32.27}";
type = Stem;
},
{
place = "{91.11, 606.33}";
type = Stem;
}
);
layerId = "4A657952-F232-4636-873B-F2B6F2CFB0B2";
paths = (
{
closed = 1;
nodes = (
"580.22 0 LINE",
"585.9 32.26 LINE",
"134.93 32.26 LINE",
"138.53 52.51 LINE",
"687.12 680.32 LINE",
"697.44 737 LINE",
"240.22 737 LINE",
"234.53 704.73 LINE",
"652.3 704.73 LINE",
"648.72 684.48 LINE",
"101.38 58.55 LINE",
"91.11 0 LINE"
);
}
);
width = 671;
}
);
leftKerningGroup = Z;
note = Z;
rightKerningGroup = Z;
unicode = 005A;
},
{
glyphname = Zacute;
lastChange = "2019-09-04 12:29:29 +0000";
layers = (
{
hints = (
{
horizontal = 1;
place = "{0, 32.26}";
type = Stem;
},
{
horizontal = 1;
place = "{704.73, 32.27}";
type = Stem;
},
{
horizontal = 1;
place = "{794.25, 140.22}";
type = Stem;
},
{
place = "{91.11, 606.33}";
type = Stem;
}
);
layerId = "4A657952-F232-4636-873B-F2B6F2CFB0B2";
paths = (
{
closed = 1;
nodes = (
"580.22 0 LINE",
"585.9 32.26 LINE",
"134.93 32.26 LINE",
"138.53 52.51 LINE",
"687.12 680.32 LINE",
"697.44 737 LINE",
"240.22 737 LINE",
"234.53 704.73 LINE",
"652.3 704.73 LINE",
"648.72 684.48 LINE",
"101.38 58.55 LINE",
"91.11 0 LINE"
);
},
{
closed = 1;
nodes = (
"496.26 794.25 LINE",
"623.89 934.47 LINE",
"574.36 934.47 LINE",
"462.98 794.25 LINE"
);
}
);
width = 671;
}
);
leftKerningGroup = Z;
note = Zacute;
rightKerningGroup = Z;
unicode = 0179;
},
{
glyphname = Zcaron;
lastChange = "2019-09-04 12:29:29 +0000";
layers = (
{
hints = (
{
horizontal = 1;
place = "{0, 32.26}";
type = Stem;
},
{
horizontal = 1;
place = "{704.73, 32.27}";
type = Stem;
},
{
horizontal = 1;
place = "{794.24, 25.99}";
type = Stem;
},
{
place = "{91.11, 606.33}";
type = Stem;
}
);
layerId = "4A657952-F232-4636-873B-F2B6F2CFB0B2";
paths = (
{
closed = 1;
nodes = (
"580.22 0 LINE",
"585.9 32.26 LINE",
"134.93 32.26 LINE",
"138.53 52.51 LINE",
"687.12 680.32 LINE",
"697.44 737 LINE",
"240.22 737 LINE",
"234.53 704.73 LINE",
"652.3 704.73 LINE",
"648.72 684.48 LINE",
"101.38 58.55 LINE",
"91.11 0 LINE"
);
},
{
closed = 1;
nodes = (
"503.17 794.24 LINE",
"630.05 932.35 LINE",
"597.05 932.35 LINE",
"483.71 820.23 LINE",
"468.15 820.23 LINE",
"394.36 932.35 LINE",
"364.86 932.35 LINE",
"446.99 794.24 LINE"
);
}
);
width = 671;
}
);
leftKerningGroup = Z;
note = Zcaron;
rightKerningGroup = Z;
unicode = 017D;
},
{
glyphname = Zdotaccent;
lastChange = "2019-09-04 12:29:29 +0000";
layers = (
{
hints = (
{
horizontal = 1;
place = "{0, 32.26}";
type = Stem;
},
{
horizontal = 1;
place = "{704.73, 32.27}";
type = Stem;
},
{
horizontal = 1;
place = "{794.25, 105.82}";
type = Stem;
},
{
place = "{91.11, 606.33}";
type = Stem;
}
);
layerId = "4A657952-F232-4636-873B-F2B6F2CFB0B2";
paths = (
{
closed = 1;
nodes = (
"580.22 0 LINE",
"585.9 32.26 LINE",
"134.93 32.26 LINE",
"138.53 52.51 LINE",
"687.12 680.32 LINE",
"697.44 737 LINE",
"240.22 737 LINE",
"234.53 704.73 LINE",
"652.3 704.73 LINE",
"648.72 684.48 LINE",
"101.38 58.55 LINE",
"91.11 0 LINE"
);
},
{
closed = 1;
nodes = (
"495 794.25 LINE",
"513.68 900.07 LINE",
"480.68 900.07 LINE",
"462 794.25 LINE"
);
}
);
width = 671;
}
);
leftKerningGroup = Z;
note = Zdotaccent;
rightKerningGroup = Z;
unicode = 017B;
},
{
glyphname = a;
lastChange = "2019-09-04 12:29:29 +0000";
layers = (
{
hints = (
{
horizontal = 1;
place = "{0, 29.93}";
type = Stem;
},
{
horizontal = 1;
place = "{288.88, 29.95}";
type = Stem;
},
{
horizontal = 1;
place = "{491.96, 30.54}";
type = Stem;
},
{
place = "{79.96, 471.76}";
type = Stem;
}
);
layerId = "4A657952-F232-4636-873B-F2B6F2CFB0B2";
paths = (
{
closed = 1;
nodes = (
"357 0 LINE",
"459.46 87.71 LINE",
"444 0 LINE",
"477 0 LINE",
"551.72 423.81 LINE",
"471.59 522.5 LINE",
"220.82 522.5 LINE",
"215.43 491.94 LINE",
"458.41 491.97 LINE",
"517.77 418.61 LINE",
"500.19 318.83 LINE",
"209.3 318.83 LINE",
"103.33 227.88 LINE",
"79.96 94.46 LINE",
"159.44 0 LINE"
);
},
{
closed = 1;
nodes = (
"114.59 103.28 LINE",
"134.28 215.55 LINE",
"219.62 288.86 LINE",
"494.91 288.89 LINE",
"466.51 127.76 LINE",
"350.55 29.94 LINE",
"173.93 29.91 LINE"
);
}
);
width = 565;
}
);
leftKerningGroup = a;
note = a;
rightKerningGroup = a;
unicode = 0061;
},
{
glyphname = aacute;
lastChange = "2019-09-04 12:29:29 +0000";
layers = (
{
hints = (
{
horizontal = 1;
place = "{0, 29.93}";
type = Stem;
},
{
horizontal = 1;
place = "{288.88, 29.95}";
type = Stem;
},
{
horizontal = 1;
place = "{491.96, 30.54}";
type = Stem;
},
{
horizontal = 1;
place = "{579.75, 140.22}";
type = Stem;
},
{
place = "{79.96, 471.76}";
type = Stem;
}
);
layerId = "4A657952-F232-4636-873B-F2B6F2CFB0B2";
paths = (
{
closed = 1;
nodes = (
"357 0 LINE",
"459.46 87.71 LINE",
"444 0 LINE",
"477 0 LINE",
"551.72 423.81 LINE",
"471.59 522.5 LINE",
"220.82 522.5 LINE",
"215.43 491.94 LINE",
"458.41 491.97 LINE",
"517.77 418.61 LINE",
"500.19 318.83 LINE",
"209.3 318.83 LINE",
"103.33 227.88 LINE",
"79.96 94.46 LINE",
"159.44 0 LINE"
);
},
{
closed = 1;
nodes = (
"114.59 103.28 LINE",
"134.28 215.55 LINE",
"219.62 288.86 LINE",
"494.91 288.89 LINE",
"466.51 127.76 LINE",
"350.55 29.94 LINE",
"173.93 29.91 LINE"
);
},
{
closed = 1;
nodes = (
"411.05 579.75 LINE",
"538.68 719.97 LINE",
"489.15 719.97 LINE",
"377.78 579.75 LINE"
);
}
);
width = 565;
}
);
leftKerningGroup = a;
note = aacute;
rightKerningGroup = a;
unicode = 00E1;
},
